<?xml version="1.0" encoding="UTF-8"?><svg id="Layer_2" xmlns="http://www.w3.org/2000/svg" viewBox="0 0 264.35 267.27"><defs><style>.cls-1{fill:#ff9ea3;}.cls-2{fill:#a4d9db;}.cls-3{fill:#d9ae38;}.cls-4{fill:#949390;}</style></defs><g id="Layer_1-2"><g><path class="cls-1" d="M111.8,7.83c-1.17,.25-3.02,1.59-3.96,3.53-.94,1.94-.8,3.92,.23,4.37,1.04,.45,2.91-1,4.1-.79,1.19,.21,2.69,1.4,4.15,.94,1.46-.47,.52-4.35-.51-5.93-1.03-1.59-2.17-2.5-4.02-2.1Z"/><path class="cls-1" d="M119.37,6.44c-.59-.53-1.64-.24-2.34,.64-.7,.88-.78,2.02-.19,2.55,.59,.53,1.64,.25,2.34-.63,.7-.88,.78-2.03,.19-2.57Z"/><path class="cls-1" d="M110.52,7c1-.25,1.52-1.64,1.12-3.09-.39-1.45-1.49-2.41-2.48-2.14-.98,.27-1.46,1.64-1.08,3.08,.4,1.43,1.45,2.4,2.44,2.15Z"/><path class="cls-1" d="M107.63,6.9c-.65-.9-1.73-1.21-2.32-.72-.59,.49-.57,1.61,.1,2.5,.66,.89,1.7,1.22,2.31,.73,.61-.49,.58-1.62-.09-2.51Z"/><path class="cls-1" d="M116.61,4.97c.34-1.45-.19-2.87-1.18-3.14-.99-.28-2.07,.67-2.41,2.12-.32,1.44,.15,2.84,1.13,3.13,.97,.29,2.09-.65,2.46-2.11Z"/><path class="cls-1" d="M161.89,119.62c.88,.8,3.05,1.53,5.17,1.16,2.12-.37,3.65-1.63,3.41-2.73-.24-1.11-2.51-1.78-3.03-2.87-.52-1.09-.43-3.01-1.65-3.92-1.23-.91-3.84,2.11-4.53,3.87-.69,1.76-.77,3.22,.63,4.49Z"/><path class="cls-1" d="M156.35,114.27c-.09,.79,.76,1.47,1.89,1.53,1.12,.05,2.1-.54,2.19-1.33,.09-.79-.75-1.48-1.88-1.54-1.12-.05-2.11,.55-2.2,1.34Z"/><path class="cls-1" d="M161.95,121.14c-.79-.66-2.22-.28-3.16,.89-.95,1.16-1.09,2.62-.3,3.26,.79,.64,2.19,.23,3.13-.91,.93-1.16,1.11-2.58,.33-3.24Z"/><path class="cls-1" d="M163.56,123.55c-.35,1.05,.03,2.11,.77,2.31,.74,.19,1.64-.48,1.98-1.54,.34-1.06,0-2.09-.75-2.3-.76-.21-1.65,.48-1.99,1.53Z"/><path class="cls-1" d="M156.75,117.37c-1.38,.57-2.22,1.83-1.87,2.79s1.75,1.29,3.12,.72c1.36-.58,2.22-1.78,1.89-2.74-.33-.96-1.75-1.32-3.15-.77Z"/><path class="cls-1" d="M252.97,57.69c-.17,1.18,.43,3.38,1.92,4.94,1.49,1.56,3.39,2.12,4.17,1.3,.78-.81,.08-3.08,.69-4.12,.62-1.04,2.26-2.03,2.33-3.56,.07-1.53-3.89-2-5.74-1.59-1.85,.41-3.1,1.16-3.38,3.03Z"/><path class="cls-1" d="M254.31,50.11c-.7,.37-.8,1.45-.21,2.42,.58,.96,1.62,1.44,2.33,1.07,.7-.37,.81-1.45,.22-2.41-.58-.96-1.63-1.44-2.34-1.07Z"/><path class="cls-1" d="M251.74,58.6c.11-1.02-1.01-2-2.5-2.12-1.49-.14-2.78,.56-2.87,1.57-.09,1.01,1.03,1.95,2.51,2.09,1.48,.12,2.76-.52,2.87-1.54Z"/><path class="cls-1" d="M250.64,61.27c-1.07,.3-1.74,1.2-1.48,1.93,.26,.72,1.31,1.1,2.38,.78,1.07-.31,1.74-1.16,1.49-1.91-.25-.75-1.32-1.11-2.39-.8Z"/><path class="cls-1" d="M251.97,52.18c-1.24-.82-2.75-.82-3.36,.01s-.09,2.17,1.15,2.99c1.24,.8,2.72,.85,3.33,.04,.61-.81,.12-2.19-1.12-3.04Z"/><path class="cls-1" d="M205.74,8.09c-1.19,.03-3.26,1-4.54,2.74-1.28,1.73-1.51,3.7-.57,4.33,.94,.63,3.05-.45,4.18-.02,1.13,.43,2.39,1.88,3.91,1.69,1.52-.19,1.31-4.18,.59-5.93-.72-1.75-1.67-2.86-3.56-2.81Z"/><path class="cls-1" d="M213.44,8.12c-.49-.63-1.57-.54-2.42,.2-.85,.74-1.14,1.84-.66,2.47,.49,.63,1.57,.55,2.42-.19,.85-.74,1.15-1.86,.66-2.49Z"/><path class="cls-1" d="M204.64,7.04c1.02-.07,1.79-1.33,1.67-2.83-.11-1.5-1.02-2.64-2.04-2.56-1.01,.08-1.74,1.34-1.63,2.83,.13,1.48,.98,2.63,2,2.56Z"/><path class="cls-1" d="M201.81,6.41c-.48-1-1.48-1.51-2.15-1.13-.67,.37-.86,1.48-.36,2.48,.49,1,1.44,1.51,2.14,1.14,.69-.37,.86-1.49,.38-2.49Z"/><path class="cls-1" d="M211,6.17c.6-1.37,.34-2.85-.58-3.31-.92-.46-2.16,.28-2.75,1.64-.58,1.36-.37,2.82,.53,3.29,.9,.46,2.17-.26,2.81-1.62Z"/><path class="cls-1" d="M99.97,175.79c-1.19-.02-3.3,.85-4.66,2.52-1.36,1.67-1.68,3.63-.78,4.3,.9,.68,3.06-.31,4.17,.17,1.11,.48,2.3,1.99,3.82,1.87,1.52-.12,1.51-4.11,.87-5.89-.64-1.78-1.54-2.93-3.43-2.97Z"/><path class="cls-1" d="M107.66,176.18c-.46-.65-1.54-.61-2.43,.09s-1.23,1.79-.77,2.44c.46,.65,1.54,.62,2.42-.08,.88-.7,1.23-1.8,.77-2.45Z"/><path class="cls-1" d="M98.92,174.69c1.03-.02,1.85-1.25,1.8-2.75-.04-1.5-.9-2.69-1.92-2.65-1.02,.03-1.8,1.26-1.76,2.75,.06,1.49,.86,2.67,1.88,2.65Z"/><path class="cls-1" d="M96.13,173.93c-.43-1.02-1.41-1.57-2.1-1.23-.68,.34-.92,1.44-.48,2.46,.44,1.02,1.37,1.58,2.08,1.24,.71-.34,.93-1.45,.49-2.47Z"/><path class="cls-1" d="M105.32,174.11c.66-1.34,.47-2.83-.43-3.33-.9-.5-2.17,.18-2.83,1.51-.64,1.33-.51,2.8,.38,3.31,.88,.51,2.18-.15,2.88-1.49Z"/><path class="cls-1" d="M8.24,259.96c.97-.7,2.12-2.67,2.2-4.82,.08-2.15-.84-3.91-1.97-3.9-1.13,0-2.26,2.09-3.44,2.38-1.18,.28-3.03-.2-4.18,.81-1.14,1.01,1.28,4.19,2.86,5.23,1.58,1.04,3,1.42,4.53,.31Z"/><path class="cls-1" d="M1.86,264.29c.76,.25,1.6-.44,1.88-1.53,.28-1.09-.1-2.17-.85-2.41-.76-.25-1.6,.43-1.89,1.52-.28,1.09,.1,2.18,.86,2.42Z"/><path class="cls-1" d="M9.74,260.21c-.81,.63-.73,2.11,.22,3.28,.94,1.17,2.34,1.6,3.13,.96,.79-.64,.68-2.09-.25-3.25-.94-1.15-2.29-1.62-3.1-.99Z"/><path class="cls-1" d="M12.43,259.14c.96,.56,2.07,.41,2.41-.28,.34-.69-.13-1.7-1.1-2.25-.96-.55-2.04-.43-2.41,.26-.36,.7,.13,1.72,1.09,2.27Z"/><path class="cls-1" d="M4.98,264.52c.28,1.47,1.33,2.54,2.35,2.4,1.02-.14,1.62-1.45,1.35-2.91-.29-1.45-1.29-2.54-2.29-2.42-1.01,.13-1.65,1.44-1.4,2.92Z"/><path class="cls-1" d="M7.82,132.35c-1.19,.13-3.16,1.28-4.29,3.11-1.13,1.84-1.19,3.82-.2,4.37,.99,.55,3-.71,4.16-.38,1.16,.33,2.54,1.67,4.04,1.35,1.49-.32,.95-4.28,.08-5.96-.87-1.68-1.91-2.71-3.79-2.5Z"/><path class="cls-1" d="M15.5,131.72c-.54-.59-1.61-.4-2.39,.41-.78,.81-.98,1.93-.45,2.52,.54,.59,1.61,.41,2.39-.4,.78-.81,.98-1.95,.45-2.53Z"/><path class="cls-1" d="M6.64,131.39c1.02-.15,1.67-1.48,1.42-2.96-.24-1.48-1.25-2.54-2.25-2.38-1,.17-1.62,1.49-1.38,2.96,.26,1.47,1.2,2.54,2.21,2.38Z"/><path class="cls-1" d="M3.77,131c-.56-.96-1.6-1.38-2.24-.94-.63,.43-.73,1.55-.15,2.5,.57,.95,1.57,1.38,2.23,.96,.66-.43,.73-1.56,.16-2.51Z"/><path class="cls-1" d="M12.9,129.98c.48-1.41,.09-2.87-.86-3.25-.96-.38-2.12,.46-2.6,1.87-.46,1.4-.13,2.85,.81,3.23,.94,.39,2.14-.44,2.66-1.85Z"/><path class="cls-1" d="M46.36,105.09c.09-1.19-.66-3.34-2.26-4.79-1.59-1.45-3.53-1.88-4.25-1.02-.73,.87,.14,3.08-.41,4.16-.54,1.08-2.11,2.18-2.08,3.71,.03,1.53,4.02,1.73,5.83,1.2,1.82-.54,3.02-1.37,3.16-3.26Z"/><path class="cls-1" d="M45.54,112.76c.68-.42,.7-1.51,.05-2.43-.65-.92-1.72-1.33-2.39-.91-.68,.42-.71,1.5-.06,2.42,.65,.92,1.73,1.33,2.41,.91Z"/><path class="cls-1" d="M47.52,104.11c-.04,1.03,1.14,1.92,2.64,1.95,1.5,.04,2.73-.75,2.76-1.76,.02-1.02-1.16-1.87-2.65-1.91-1.49-.02-2.72,.7-2.76,1.73Z"/><path class="cls-1" d="M48.44,101.36c1.04-.37,1.65-1.32,1.35-2.02-.3-.7-1.38-1-2.43-.62-1.04,.38-1.65,1.28-1.36,2.01,.3,.73,1.39,1.01,2.44,.63Z"/><path class="cls-1" d="M47.74,110.53c1.3,.74,2.8,.63,3.35-.24,.55-.87-.06-2.17-1.35-2.91-1.29-.72-2.77-.66-3.33,.19-.55,.85,.03,2.19,1.32,2.96Z"/><path class="cls-1" d="M254.66,152.12c-.75-.93-2.77-1.98-4.93-1.95-2.16,.03-3.86,1.04-3.8,2.17,.06,1.13,2.2,2.15,2.55,3.31,.34,1.16-.05,3.04,1.02,4.13,1.07,1.09,4.12-1.49,5.07-3.12,.96-1.63,1.26-3.06,.08-4.54Z"/><path class="cls-1" d="M259.31,158.27c.21-.77-.52-1.57-1.62-1.8-1.1-.23-2.16,.21-2.37,.97-.21,.77,.51,1.58,1.61,1.81,1.1,.23,2.17-.21,2.38-.98Z"/><path class="cls-1" d="M254.84,150.61c.67,.78,2.15,.62,3.26-.39,1.12-1,1.48-2.41,.8-3.17-.68-.76-2.12-.57-3.24,.42-1.1,1-1.5,2.37-.83,3.14Z"/><path class="cls-1" d="M253.63,147.98c.51-.99,.3-2.09-.4-2.4-.7-.3-1.7,.21-2.19,1.21-.5,.99-.33,2.06,.39,2.39,.72,.33,1.71-.21,2.21-1.21Z"/><path class="cls-1" d="M259.39,155.14c1.45-.35,2.47-1.46,2.28-2.47-.2-1.01-1.53-1.54-2.97-1.2-1.43,.36-2.47,1.41-2.3,2.41,.18,1,1.52,1.58,2.99,1.25Z"/><path class="cls-1" d="M12.55,216.49c-.78-.9-2.85-1.88-5-1.76-2.15,.11-3.82,1.19-3.71,2.31,.11,1.13,2.28,2.07,2.67,3.21,.39,1.15,.07,3.04,1.18,4.09,1.11,1.05,4.06-1.64,4.95-3.31,.89-1.67,1.14-3.11-.1-4.54Z"/><path class="cls-1" d="M17.42,222.45c.18-.78-.58-1.55-1.69-1.74-1.11-.19-2.15,.29-2.33,1.06-.18,.78,.57,1.56,1.68,1.75,1.11,.19,2.16-.3,2.34-1.07Z"/><path class="cls-1" d="M12.66,214.97c.7,.75,2.17,.54,3.24-.51,1.08-1.04,1.39-2.47,.68-3.2-.71-.73-2.15-.49-3.22,.54-1.06,1.04-1.41,2.43-.71,3.17Z"/><path class="cls-1" d="M11.35,212.39c.47-1,.22-2.1-.49-2.38-.71-.28-1.69,.28-2.14,1.29-.46,1.01-.25,2.07,.48,2.38,.73,.3,1.7-.28,2.16-1.29Z"/><path class="cls-1" d="M17.38,219.32c1.44-.41,2.42-1.55,2.18-2.55-.23-1-1.59-1.48-3.02-1.08-1.42,.42-2.42,1.51-2.2,2.5,.22,.99,1.58,1.52,3.04,1.14Z"/><path class="cls-4" d="M152.76,167.91c-.46,1.1-.41,3.38,.64,5.26,1.06,1.88,2.76,2.89,3.72,2.29,.96-.59,.83-2.97,1.69-3.82,.85-.86,2.69-1.41,3.13-2.88,.44-1.46-3.28-2.9-5.17-2.96-1.89-.06-3.29,.36-4.02,2.1Z"/><path class="cls-4" d="M155.94,160.89c-.77,.19-1.13,1.21-.8,2.29,.33,1.08,1.22,1.8,1.99,1.61,.77-.19,1.14-1.21,.81-2.28-.33-1.08-1.23-1.8-2-1.62Z"/><path class="cls-4" d="M151.35,168.48c.36-.96-.48-2.18-1.9-2.68-1.41-.51-2.83-.14-3.17,.81-.34,.96,.52,2.14,1.92,2.64,1.41,.49,2.8,.18,3.16-.78Z"/><path class="cls-4" d="M149.62,170.8c-1.11,.03-1.98,.74-1.91,1.5,.07,.76,1,1.39,2.11,1.34,1.11-.04,1.97-.7,1.92-1.48-.05-.79-1-1.4-2.12-1.36Z"/><path class="cls-4" d="M153.15,162.31c-1-1.11-2.46-1.47-3.26-.82-.79,.66-.62,2.08,.37,3.18,1,1.08,2.42,1.5,3.22,.86,.79-.64,.65-2.09-.33-3.22Z"/><path class="cls-4" d="M168.02,214.98c.18,1.18,1.41,3.1,3.3,4.15,1.88,1.05,3.86,1.02,4.37,.01,.51-1.01-.84-2.96-.56-4.14,.28-1.18,1.55-2.61,1.17-4.09-.38-1.48-4.31-.77-5.95,.17-1.64,.94-2.62,2.03-2.33,3.89Z"/><path class="cls-4" d="M167.06,207.34c-.56,.56-.33,1.62,.51,2.37,.84,.75,1.97,.9,2.54,.34,.56-.56,.34-1.63-.5-2.37-.84-.75-1.99-.9-2.55-.34Z"/><path class="cls-4" d="M167.12,216.21c-.2-1.01-1.55-1.61-3.02-1.29-1.47,.3-2.49,1.36-2.28,2.35,.21,.99,1.56,1.56,3.01,1.25,1.45-.32,2.48-1.31,2.29-2.31Z"/><path class="cls-4" d="M166.85,219.09c-.93,.6-1.3,1.66-.85,2.28,.46,.61,1.58,.66,2.5,.04,.93-.61,1.31-1.62,.86-2.27-.46-.64-1.59-.67-2.52-.06Z"/><path class="cls-4" d="M165.44,210.01c-1.43-.42-2.87,.03-3.21,1-.33,.97,.56,2.1,1.98,2.52,1.42,.4,2.85,0,3.19-.95,.34-.96-.53-2.12-1.97-2.58Z"/><path class="cls-4" d="M13.83,177.11c1.18,.19,3.39-.39,4.96-1.85,1.58-1.47,2.17-3.36,1.36-4.15-.8-.8-3.08-.12-4.11-.75-1.03-.63-2-2.28-3.53-2.38-1.53-.09-2.06,3.87-1.67,5.72,.39,1.85,1.12,3.12,2.98,3.42Z"/><path class="cls-4" d="M6.27,175.66c.36,.71,1.44,.82,2.41,.25,.97-.57,1.46-1.6,1.1-2.31-.36-.71-1.44-.83-2.41-.26-.97,.57-1.47,1.61-1.11,2.32Z"/><path class="cls-4" d="M14.72,178.34c-1.02-.12-2.01,.98-2.16,2.47-.16,1.49,.52,2.78,1.53,2.89,1.01,.11,1.96-1,2.12-2.48,.15-1.48-.48-2.77-1.49-2.89Z"/><path class="cls-4" d="M17.38,179.49c.28,1.07,1.18,1.75,1.91,1.51,.73-.25,1.11-1.3,.81-2.37-.29-1.07-1.14-1.75-1.89-1.52-.75,.24-1.12,1.3-.83,2.38Z"/><path class="cls-4" d="M8.3,178.03c-.84,1.23-.86,2.74-.04,3.36,.82,.62,2.17,.12,3.01-1.1,.82-1.23,.89-2.71,.08-3.33-.8-.62-2.18-.15-3.06,1.07Z"/><path class="cls-4" d="M207.62,179.55c-1.09-.49-3.37-.52-5.28,.49-1.91,1-2.97,2.67-2.4,3.65,.57,.98,2.94,.92,3.77,1.8,.83,.88,1.33,2.73,2.78,3.22,1.45,.49,3-3.19,3.11-5.08,.11-1.89-.26-3.3-1.98-4.08Z"/><path class="cls-4" d="M214.55,182.93c-.16-.78-1.18-1.17-2.26-.87-1.09,.3-1.83,1.16-1.67,1.94,.16,.78,1.17,1.18,2.26,.88,1.09-.29,1.84-1.17,1.68-1.95Z"/><path class="cls-4" d="M207.09,178.13c.95,.39,2.2-.42,2.73-1.82,.55-1.4,.23-2.82-.72-3.19-.95-.37-2.15,.45-2.7,1.84-.53,1.39-.26,2.79,.69,3.18Z"/><path class="cls-4" d="M204.83,176.33c0-1.11-.68-2-1.44-1.96-.76,.05-1.42,.96-1.41,2.07,0,1.11,.64,1.99,1.43,1.96,.79-.03,1.43-.96,1.42-2.07Z"/><path class="cls-4" d="M213.2,180.11c1.13-.97,1.55-2.42,.92-3.23-.63-.81-2.06-.69-3.19,.28-1.11,.97-1.57,2.38-.96,3.19,.61,.81,2.07,.72,3.23-.23Z"/><path class="cls-4" d="M59.37,150.43c-1.1,.46-2.68,2.11-3.25,4.19-.57,2.08-.08,4,1.02,4.25,1.1,.26,2.68-1.52,3.89-1.52,1.21,0,2.9,.89,4.25,.17,1.35-.72-.28-4.37-1.58-5.74-1.3-1.37-2.59-2.07-4.33-1.34Z"/><path class="cls-4" d="M66.58,147.69c-.68-.41-1.66,.06-2.18,1.06s-.41,2.13,.27,2.55c.68,.41,1.66-.05,2.19-1.05,.53-.99,.4-2.14-.28-2.56Z"/><path class="cls-4" d="M57.97,149.84c.93-.43,1.2-1.89,.54-3.24-.64-1.36-1.91-2.1-2.82-1.66-.92,.44-1.14,1.88-.5,3.22,.65,1.34,1.86,2.1,2.79,1.67Z"/><path class="cls-4" d="M55.11,150.27c-.8-.76-1.92-.87-2.41-.28-.49,.59-.27,1.69,.55,2.44,.81,.76,1.89,.89,2.4,.3,.52-.59,.27-1.7-.54-2.46Z"/><path class="cls-4" d="M63.59,146.74c.07-1.49-.71-2.78-1.73-2.88-1.02-.09-1.91,1.04-1.98,2.52-.05,1.48,.67,2.77,1.68,2.88,1.01,.11,1.94-1.02,2.04-2.52Z"/><path class="cls-4" d="M205.78,94.04c1.18-.18,3.11-1.4,4.16-3.28,1.06-1.88,1.04-3.86,.03-4.37-1.01-.51-2.97,.82-4.14,.54-1.18-.29-2.6-1.57-4.08-1.19-1.48,.38-.78,4.31,.15,5.95,.93,1.65,2.01,2.63,3.88,2.35Z"/><path class="cls-4" d="M198.13,94.97c.56,.57,1.62,.34,2.37-.5s.91-1.97,.35-2.54c-.56-.57-1.62-.35-2.38,.49-.75,.84-.91,1.98-.35,2.55Z"/><path class="cls-4" d="M207,94.95c-1.01,.19-1.62,1.55-1.3,3.01,.3,1.47,1.34,2.49,2.34,2.29,1-.21,1.56-1.55,1.27-3.01-.31-1.46-1.3-2.49-2.3-2.3Z"/><path class="cls-4" d="M209.88,95.23c.6,.93,1.66,1.31,2.27,.86,.62-.45,.67-1.57,.05-2.5-.61-.93-1.62-1.32-2.26-.87-.64,.45-.67,1.58-.07,2.52Z"/><path class="cls-4" d="M200.79,96.61c-.43,1.43,.02,2.87,.99,3.21,.97,.34,2.1-.55,2.53-1.97,.41-1.42,.02-2.85-.93-3.2-.96-.35-2.13,.52-2.59,1.96Z"/><path class="cls-4" d="M253.04,11.1c.42,1.12,2.01,2.75,4.07,3.4,2.06,.65,3.99,.22,4.29-.87,.3-1.09-1.42-2.73-1.38-3.94,.04-1.21,1-2.87,.32-4.24-.67-1.37-4.38,.12-5.8,1.37-1.42,1.25-2.16,2.51-1.5,4.28Z"/><path class="cls-4" d="M250.55,3.8c-.44,.66,0,1.66,.98,2.22s2.12,.48,2.55-.18c.44-.66,0-1.66-.97-2.22-.98-.56-2.13-.48-2.57,.19Z"/><path class="cls-4" d="M252.4,12.48c-.4-.95-1.84-1.26-3.22-.65-1.38,.59-2.16,1.83-1.76,2.76,.41,.93,1.84,1.21,3.2,.62,1.36-.61,2.17-1.78,1.77-2.73Z"/><path class="cls-4" d="M252.72,15.36c-.79,.78-.94,1.89-.37,2.4,.57,.51,1.68,.33,2.46-.46,.78-.78,.96-1.86,.38-2.39-.58-.54-1.69-.33-2.48,.45Z"/><path class="cls-4" d="M249.5,6.75c-1.49-.12-2.81,.61-2.94,1.63-.13,1.02,.97,1.95,2.45,2.07,1.47,.11,2.79-.57,2.94-1.57,.14-1.01-.95-1.97-2.45-2.13Z"/><path class="cls-4" d="M62.93,12.07c1.12-.41,2.77-1.98,3.44-4.03,.67-2.05,.26-3.99-.83-4.29-1.09-.31-2.75,1.39-3.96,1.34-1.21-.05-2.86-1.03-4.24-.37-1.38,.66,.08,4.38,1.31,5.81,1.24,1.43,2.49,2.18,4.27,1.54Z"/><path class="cls-4" d="M55.61,14.48c.66,.45,1.66,.01,2.23-.96s.5-2.11-.16-2.56c-.66-.44-1.66-.03-2.23,.94-.57,.97-.5,2.12,.16,2.57Z"/><path class="cls-4" d="M64.31,12.73c-.95,.39-1.28,1.83-.69,3.21,.58,1.38,1.81,2.18,2.74,1.78,.94-.4,1.23-1.83,.65-3.2-.59-1.37-1.76-2.19-2.71-1.8Z"/><path class="cls-4" d="M67.19,12.43c.77,.8,1.88,.96,2.4,.39,.52-.57,.34-1.67-.44-2.47-.78-.79-1.85-.98-2.39-.41-.54,.57-.35,1.68,.43,2.48Z"/><path class="cls-4" d="M58.55,15.57c-.14,1.49,.58,2.81,1.6,2.95s1.96-.95,2.1-2.43c.12-1.47-.54-2.8-1.54-2.95-1.01-.15-1.98,.93-2.15,2.42Z"/><path class="cls-4" d="M108.04,51.05c1.15-.3,2.94-1.73,3.79-3.71,.85-1.98,.62-3.95-.44-4.35-1.06-.4-2.86,1.14-4.06,.98-1.2-.16-2.76-1.28-4.19-.74-1.43,.54-.31,4.37,.79,5.9,1.1,1.54,2.29,2.4,4.11,1.91Z"/><path class="cls-4" d="M100.53,52.8c.62,.5,1.65,.16,2.31-.75,.66-.91,.69-2.06,.07-2.56-.62-.5-1.65-.17-2.31,.74-.66,.91-.69,2.07-.07,2.57Z"/><path class="cls-4" d="M109.35,51.82c-.98,.3-1.44,1.71-.97,3.14,.45,1.43,1.61,2.33,2.57,2.02,.97-.31,1.39-1.71,.93-3.13-.47-1.41-1.56-2.33-2.54-2.03Z"/><path class="cls-4" d="M112.25,51.79c.69,.86,1.79,1.13,2.35,.61,.56-.52,.49-1.64-.22-2.49-.7-.86-1.75-1.14-2.34-.62-.59,.52-.5,1.65,.2,2.51Z"/><path class="cls-4" d="M103.36,54.14c-.27,1.47,.33,2.85,1.33,3.08,1,.23,2.03-.77,2.3-2.23,.25-1.46-.29-2.83-1.27-3.08-.99-.24-2.06,.75-2.36,2.22Z"/><path class="cls-4" d="M146.69,257.07c0-1.19-.91-3.28-2.61-4.61-1.7-1.33-3.66-1.61-4.32-.7-.66,.92,.37,3.06-.1,4.18-.46,1.12-1.94,2.34-1.79,3.86,.15,1.52,4.14,1.43,5.91,.76,1.77-.67,2.9-1.59,2.91-3.48Z"/><path class="cls-4" d="M146.44,264.77c.64-.47,.58-1.55-.13-2.42s-1.81-1.2-2.45-.73c-.64,.47-.59,1.55,.12,2.42,.71,.87,1.82,1.2,2.47,.73Z"/><path class="cls-4" d="M147.77,256c.04,1.03,1.28,1.83,2.78,1.74,1.5-.07,2.67-.95,2.62-1.97-.05-1.01-1.29-1.78-2.78-1.71-1.49,.09-2.66,.91-2.62,1.93Z"/><path class="cls-4" d="M148.48,253.19c1.01-.45,1.55-1.44,1.19-2.12-.36-.68-1.45-.9-2.47-.43-1.01,.46-1.55,1.4-1.2,2.1,.35,.7,1.46,.91,2.48,.45Z"/><path class="cls-4" d="M148.47,262.39c1.35,.64,2.84,.42,3.32-.49,.48-.91-.22-2.16-1.56-2.8-1.34-.62-2.81-.45-3.3,.44-.49,.89,.19,2.18,1.54,2.85Z"/><path class="cls-3" d="M60.87,205.68c-.74,.93-1.33,3.14-.83,5.23,.5,2.1,1.86,3.54,2.95,3.23,1.09-.31,1.62-2.62,2.67-3.21,1.06-.59,2.97-.62,3.8-1.9,.83-1.28-2.35-3.69-4.15-4.27-1.8-.58-3.27-.56-4.44,.92Z"/><path class="cls-3" d="M65.86,199.81c-.8-.03-1.42,.85-1.4,1.98,.02,1.13,.67,2.06,1.47,2.1,.8,.03,1.43-.85,1.41-1.97-.02-1.13-.68-2.07-1.48-2.11Z"/><path class="cls-3" d="M59.36,205.85c.61-.83,.14-2.23-1.09-3.1-1.22-.88-2.68-.92-3.27-.09-.59,.83-.09,2.2,1.11,3.07,1.22,.86,2.64,.94,3.25,.12Z"/><path class="cls-3" d="M57.06,207.6c-1.07-.28-2.11,.16-2.25,.92-.14,.75,.58,1.61,1.66,1.87,1.08,.27,2.09-.13,2.25-.9,.16-.77-.58-1.62-1.66-1.89Z"/><path class="cls-3" d="M62.79,200.41c-.66-1.34-1.96-2.09-2.91-1.68-.94,.41-1.17,1.83-.52,3.16,.67,1.32,1.92,2.1,2.86,1.71,.94-.39,1.2-1.83,.57-3.19Z"/><path class="cls-3" d="M96.03,256.87c1.19,.01,3.29-.88,4.64-2.57,1.34-1.69,1.65-3.64,.74-4.31-.91-.67-3.06,.34-4.18-.13-1.11-.47-2.32-1.96-3.84-1.83-1.52,.13-1.47,4.13-.81,5.9,.65,1.78,1.56,2.92,3.45,2.94Z"/><path class="cls-3" d="M88.33,256.55c.46,.65,1.55,.6,2.42-.11,.88-.71,1.21-1.8,.75-2.45-.46-.65-1.55-.61-2.42,.1-.88,.71-1.21,1.81-.75,2.46Z"/><path class="cls-3" d="M97.09,257.96c-1.03,.03-1.84,1.26-1.77,2.77,.06,1.5,.93,2.68,1.94,2.64,1.02-.04,1.79-1.28,1.73-2.76-.07-1.49-.88-2.66-1.9-2.64Z"/><path class="cls-3" d="M99.89,258.7c.44,1.02,1.42,1.56,2.11,1.21,.68-.35,.91-1.45,.46-2.46-.45-1.01-1.38-1.57-2.09-1.22-.71,.34-.92,1.45-.47,2.47Z"/><path class="cls-3" d="M90.7,258.6c-.65,1.34-.45,2.84,.46,3.33,.9,.49,2.16-.2,2.81-1.53,.63-1.34,.48-2.81-.41-3.31-.89-.5-2.18,.17-2.87,1.51Z"/><path class="cls-3" d="M195.47,260.32c.38,1.13,1.93,2.81,3.96,3.52,2.04,.71,3.98,.34,4.31-.74,.33-1.08-1.33-2.78-1.26-3.98,.07-1.21,1.08-2.84,.45-4.23-.63-1.39-4.38-.01-5.84,1.19-1.46,1.21-2.23,2.45-1.63,4.24Z"/><path class="cls-3" d="M193.21,252.96c-.46,.65-.05,1.66,.91,2.25s2.1,.55,2.56-.1c.46-.65,.06-1.66-.9-2.25-.96-.59-2.11-.54-2.57,.11Z"/><path class="cls-3" d="M194.79,261.69c-.37-.96-1.81-1.32-3.2-.75-1.39,.55-2.22,1.76-1.84,2.71,.38,.94,1.8,1.27,3.18,.72,1.38-.56,2.22-1.72,1.85-2.67Z"/><path class="cls-3" d="M195.02,264.57c-.81,.75-1,1.86-.44,2.39,.56,.53,1.67,.38,2.47-.39,.81-.76,1.02-1.83,.46-2.38-.56-.55-1.68-.38-2.49,.38Z"/><path class="cls-3" d="M192.06,255.87c-1.48-.17-2.82,.52-2.99,1.54-.16,1.02,.91,1.97,2.38,2.14,1.47,.15,2.81-.48,2.98-1.48,.17-1-.89-2-2.38-2.2Z"/><path class="cls-3" d="M206.89,51.17c1.05,.57,3.32,.77,5.3-.09,1.98-.86,3.16-2.44,2.67-3.46-.49-1.02-2.86-1.14-3.62-2.08-.76-.94-1.12-2.82-2.53-3.42-1.41-.6-3.23,2.96-3.49,4.83-.26,1.88,.01,3.31,1.67,4.22Z"/><path class="cls-3" d="M200.24,47.27c.1,.79,1.09,1.25,2.19,1.04s1.92-1.02,1.81-1.81c-.1-.79-1.08-1.26-2.19-1.05-1.11,.21-1.92,1.03-1.82,1.82Z"/><path class="cls-3" d="M207.31,52.63c-.92-.46-2.22,.25-2.86,1.61-.65,1.35-.44,2.8,.48,3.24,.92,.44,2.18-.29,2.83-1.63,.63-1.35,.47-2.77-.44-3.22Z"/><path class="cls-3" d="M209.44,54.59c-.09,1.11,.52,2.05,1.29,2.06,.77,.01,1.48-.85,1.56-1.96,.08-1.11-.49-2.03-1.28-2.06-.79-.03-1.49,.85-1.58,1.96Z"/><path class="cls-3" d="M201.37,50.19c-1.2,.88-1.72,2.3-1.16,3.15,.57,.86,2.01,.84,3.2-.03,1.18-.88,1.74-2.26,1.19-3.11-.55-.86-2.01-.87-3.24,0Z"/><path class="cls-3" d="M206.42,138.18c-.53-1.07-2.27-2.54-4.38-2.98-2.11-.44-3.99,.18-4.18,1.29-.19,1.11,1.68,2.58,1.77,3.79,.08,1.21-.71,2.95,.1,4.25,.81,1.3,4.34-.55,5.63-1.94,1.29-1.39,1.9-2.72,1.06-4.41Z"/><path class="cls-3" d="M209.62,145.2c.37-.7-.17-1.65-1.19-2.11-1.03-.46-2.15-.27-2.52,.44-.37,.7,.16,1.65,1.18,2.12,1.03,.46,2.16,.27,2.53-.44Z"/><path class="cls-3" d="M206.92,136.75c.49,.9,1.96,1.07,3.27,.33,1.31-.73,1.97-2.04,1.47-2.92-.5-.89-1.95-1.02-3.25-.3-1.29,.74-1.98,1.99-1.49,2.89Z"/><path class="cls-3" d="M206.31,133.91c.71-.85,.75-1.97,.13-2.43-.62-.45-1.7-.16-2.4,.7-.7,.86-.77,1.94-.14,2.42,.63,.48,1.71,.16,2.42-.7Z"/><path class="cls-3" d="M210.38,142.16c1.49-.03,2.73-.88,2.76-1.91,.03-1.03-1.16-1.84-2.64-1.82-1.48,.04-2.72,.84-2.77,1.86-.04,1.02,1.14,1.87,2.65,1.87Z"/><path class="cls-3" d="M8.68,88.01c.76-.92,1.39-3.11,.92-5.22-.46-2.11-1.8-3.57-2.89-3.28-1.09,.29-1.66,2.59-2.73,3.16-1.07,.57-2.98,.57-3.84,1.83-.85,1.27,2.29,3.74,4.08,4.34,1.79,.61,3.25,.62,4.46-.84Z"/><path class="cls-3" d="M3.59,93.79c.79,.05,1.44-.83,1.44-1.95s-.64-2.07-1.43-2.12c-.79-.05-1.44,.82-1.45,1.95,0,1.13,.64,2.08,1.44,2.13Z"/><path class="cls-3" d="M10.19,87.87c-.62,.82-.18,2.23,1.04,3.12,1.2,.9,2.66,.96,3.27,.15,.61-.82,.13-2.2-1.06-3.09-1.2-.88-2.63-.99-3.25-.18Z"/><path class="cls-3" d="M12.53,86.16c1.07,.3,2.11-.12,2.27-.88,.16-.75-.55-1.62-1.63-1.9-1.07-.29-2.09,.09-2.27,.86-.18,.77,.55,1.63,1.63,1.92Z"/><path class="cls-3" d="M6.67,93.24c.64,1.35,1.93,2.13,2.88,1.74,.95-.39,1.21-1.81,.58-3.15-.64-1.33-1.88-2.14-2.83-1.76-.94,.38-1.24,1.81-.63,3.18Z"/><path class="cls-3" d="M158.1,11.79c-.89,.8-1.82,2.88-1.66,5.03,.16,2.15,1.26,3.79,2.39,3.66,1.12-.13,2.02-2.33,3.16-2.74,1.14-.41,3.04-.13,4.06-1.26,1.03-1.13-1.72-4.03-3.41-4.88-1.69-.86-3.13-1.08-4.53,.19Z"/><path class="cls-3" d="M163.97,6.8c-.78-.16-1.54,.61-1.7,1.73-.16,1.11,.33,2.14,1.11,2.31,.78,.16,1.55-.6,1.71-1.72,.16-1.11-.34-2.15-1.12-2.32Z"/><path class="cls-3" d="M156.58,11.71c.73-.72,.49-2.18-.58-3.23-1.06-1.06-2.5-1.34-3.21-.62-.72,.72-.45,2.15,.6,3.21,1.06,1.04,2.46,1.36,3.19,.64Z"/><path class="cls-3" d="M154.02,13.07c-1.01-.45-2.1-.18-2.37,.54-.26,.72,.31,1.68,1.34,2.12,1.02,.44,2.08,.21,2.37-.52,.29-.73-.31-1.69-1.33-2.14Z"/><path class="cls-3" d="M160.84,6.9c-.43-1.43-1.6-2.39-2.6-2.13-1,.25-1.45,1.62-1.02,3.04,.44,1.41,1.55,2.39,2.54,2.15,.99-.24,1.48-1.61,1.08-3.06Z"/><path class="cls-3" d="M52.09,254.5c-.09-1.19-1.17-3.2-2.97-4.39-1.8-1.19-3.78-1.31-4.36-.34-.58,.97,.61,3.02,.24,4.17-.37,1.15-1.75,2.49-1.48,3.99,.27,1.5,4.24,1.09,5.95,.28,1.71-.81,2.77-1.82,2.62-3.71Z"/><path class="cls-3" d="M52.47,262.19c.6-.52,.45-1.59-.33-2.4s-1.9-1.05-2.51-.53c-.6,.52-.47,1.59,.32,2.4,.78,.81,1.91,1.05,2.52,.53Z"/><path class="cls-3" d="M53.09,253.35c.12,1.02,1.43,1.72,2.91,1.51,1.49-.19,2.58-1.16,2.45-2.17-.13-1.01-1.43-1.67-2.91-1.48-1.47,.21-2.57,1.12-2.45,2.13Z"/><path class="cls-3" d="M53.57,250.49c.97-.53,1.43-1.56,1.02-2.21-.41-.65-1.52-.78-2.49-.23-.97,.54-1.43,1.52-1.03,2.19,.41,.67,1.53,.78,2.5,.25Z"/><path class="cls-3" d="M54.3,259.65c1.4,.53,2.87,.19,3.27-.76,.41-.94-.4-2.14-1.78-2.66-1.39-.51-2.84-.22-3.26,.7-.42,.93,.37,2.16,1.77,2.72Z"/><path class="cls-3" d="M83.87,99.13c-.02,1.19,.87,3.3,2.55,4.65,1.68,1.35,3.64,1.66,4.31,.75,.67-.91-.32-3.06,.15-4.18,.48-1.11,1.97-2.31,1.85-3.83-.13-1.52-4.12-1.48-5.9-.84-1.78,.65-2.93,1.55-2.95,3.44Z"/><path class="cls-3" d="M84.22,91.43c-.65,.46-.6,1.55,.1,2.42s1.79,1.22,2.44,.76c.65-.46,.61-1.54-.09-2.42-.7-.88-1.81-1.22-2.46-.76Z"/><path class="cls-3" d="M82.78,100.18c-.02-1.03-1.26-1.85-2.76-1.78-1.5,.05-2.68,.92-2.64,1.93,.04,1.02,1.27,1.8,2.76,1.74,1.49-.07,2.67-.87,2.64-1.89Z"/><path class="cls-3" d="M82.03,102.98c-1.02,.44-1.57,1.42-1.22,2.1,.35,.68,1.44,.92,2.46,.47,1.02-.44,1.57-1.38,1.23-2.09-.34-.71-1.45-.93-2.47-.48Z"/><path class="cls-3" d="M82.16,93.79c-1.34-.66-2.84-.46-3.33,.45-.49,.9,.19,2.17,1.52,2.82,1.33,.64,2.81,.49,3.31-.39,.5-.88-.17-2.18-1.5-2.87Z"/><path class="cls-3" d="M219.2,224.62c.81-.88,1.54-3.04,1.18-5.17-.36-2.13-1.62-3.66-2.72-3.42-1.11,.23-1.79,2.51-2.88,3.02-1.09,.52-3.01,.42-3.92,1.64-.91,1.22,2.1,3.84,3.86,4.54,1.76,.7,3.22,.78,4.5-.62Z"/><path class="cls-3" d="M213.84,230.15c.79,.09,1.48-.76,1.53-1.88,.06-1.12-.53-2.1-1.32-2.19-.79-.09-1.48,.75-1.54,1.87-.06,1.12,.54,2.11,1.33,2.2Z"/><path class="cls-3" d="M220.72,224.56c-.66,.78-.29,2.22,.88,3.16,1.15,.96,2.61,1.09,3.26,.31,.65-.79,.24-2.19-.91-3.13-1.16-.94-2.57-1.12-3.23-.34Z"/><path class="cls-3" d="M223.14,222.96c1.05,.35,2.11-.02,2.31-.76,.19-.74-.47-1.64-1.53-1.98-1.06-.34-2.09-.01-2.31,.75-.22,.76,.47,1.65,1.53,2Z"/><path class="cls-3" d="M216.94,229.75c.57,1.38,1.82,2.22,2.79,1.87s1.29-1.75,.73-3.12c-.58-1.36-1.77-2.23-2.74-1.9-.96,.33-1.32,1.74-.78,3.15Z"/><path class="cls-2" d="M113.02,137.08c1.1,.46,3.38,.41,5.26-.65,1.88-1.06,2.89-2.76,2.29-3.72-.6-.96-2.97-.83-3.82-1.69-.86-.85-1.42-2.69-2.88-3.13-1.46-.44-2.9,3.28-2.96,5.17-.06,1.89,.36,3.29,2.11,4.02Z"/><path class="cls-2" d="M105.99,133.91c.19,.77,1.21,1.13,2.29,.8,1.08-.33,1.8-1.22,1.61-1.99-.19-.77-1.21-1.14-2.28-.81-1.08,.33-1.8,1.23-1.62,2Z"/><path class="cls-2" d="M113.59,138.49c-.96-.36-2.18,.48-2.68,1.9-.51,1.41-.14,2.83,.82,3.17,.96,.34,2.14-.52,2.64-1.92,.49-1.41,.18-2.8-.78-3.16Z"/><path class="cls-2" d="M115.91,140.22c.03,1.11,.74,1.98,1.5,1.91,.76-.07,1.39-1,1.34-2.11-.04-1.11-.7-1.97-1.48-1.91-.79,.05-1.4,1-1.36,2.12Z"/><path class="cls-2" d="M107.42,136.69c-1.11,1-1.47,2.47-.82,3.26,.66,.79,2.08,.62,3.18-.37,1.08-1,1.49-2.43,.86-3.22-.64-.79-2.09-.65-3.22,.33Z"/><path class="cls-2" d="M252.92,103.47c-1.19-.01-3.29,.88-4.63,2.57-1.34,1.69-1.64,3.64-.73,4.31,.91,.67,3.06-.34,4.18,.13,1.11,.47,2.32,1.96,3.84,1.83,1.52-.14,1.46-4.13,.81-5.9-.66-1.78-1.57-2.92-3.46-2.94Z"/><path class="cls-2" d="M260.62,103.78c-.46-.65-1.55-.59-2.42,.11-.88,.71-1.21,1.8-.75,2.45,.46,.65,1.55,.61,2.42-.1,.88-.71,1.21-1.81,.75-2.46Z"/><path class="cls-2" d="M251.86,102.38c1.03-.03,1.84-1.27,1.77-2.77-.06-1.5-.93-2.68-1.94-2.63-1.02,.04-1.79,1.28-1.73,2.77,.08,1.49,.88,2.66,1.91,2.63Z"/><path class="cls-2" d="M249.06,101.65c-.44-1.02-1.42-1.56-2.11-1.21-.68,.35-.91,1.45-.45,2.46,.45,1.01,1.39,1.56,2.09,1.22,.71-.34,.92-1.45,.47-2.47Z"/><path class="cls-2" d="M258.25,101.74c.65-1.34,.44-2.84-.46-3.33-.9-.49-2.16,.2-2.81,1.54-.63,1.34-.48,2.81,.41,3.31,.89,.5,2.18-.18,2.87-1.52Z"/><path class="cls-2" d="M251.74,256.79c-.14,1.19,.54,3.37,2.07,4.88,1.54,1.51,3.45,2.02,4.21,1.18,.76-.84-.02-3.08,.57-4.14,.58-1.06,2.19-2.1,2.22-3.63,.02-1.53-3.95-1.89-5.78-1.42-1.83,.47-3.07,1.25-3.28,3.13Z"/><path class="cls-2" d="M252.85,249.16c-.69,.39-.75,1.48-.14,2.42,.61,.95,1.66,1.39,2.36,1,.69-.39,.76-1.48,.15-2.42-.61-.95-1.68-1.39-2.37-1Z"/><path class="cls-2" d="M250.54,257.73c.08-1.02-1.07-1.96-2.57-2.05-1.5-.1-2.76,.64-2.82,1.66-.06,1.01,1.09,1.91,2.57,2.01,1.49,.08,2.74-.6,2.82-1.62Z"/><path class="cls-2" d="M249.52,260.44c-1.06,.33-1.7,1.25-1.42,1.97,.28,.71,1.34,1.06,2.4,.71,1.06-.34,1.7-1.22,1.43-1.96-.27-.74-1.35-1.06-2.41-.72Z"/><path class="cls-2" d="M250.57,251.3c-1.27-.79-2.78-.74-3.36,.11s-.02,2.17,1.24,2.96c1.26,.77,2.74,.77,3.33-.06,.59-.83,.05-2.19-1.21-3.01Z"/><path class="cls-2" d="M118.55,215.6c.77,.91,2.82,1.92,4.97,1.84,2.15-.08,3.83-1.13,3.75-2.26-.09-1.13-2.25-2.1-2.62-3.25-.37-1.15-.02-3.04-1.12-4.1-1.1-1.07-4.08,1.58-5,3.24-.92,1.65-1.19,3.09,.03,4.54Z"/><path class="cls-2" d="M113.77,209.56c-.19,.77,.56,1.56,1.67,1.76s2.15-.26,2.34-1.03c.19-.77-.55-1.57-1.66-1.77-1.11-.2-2.16,.26-2.35,1.04Z"/><path class="cls-2" d="M118.41,217.12c-.69-.76-2.16-.57-3.25,.46-1.1,1.02-1.42,2.45-.73,3.19,.69,.74,2.14,.52,3.23-.49,1.08-1.03,1.44-2.41,.75-3.16Z"/><path class="cls-2" d="M119.68,219.72c-.48,1-.25,2.1,.46,2.39,.71,.29,1.69-.25,2.16-1.26,.48-1,.28-2.07-.44-2.38-.72-.31-1.7,.25-2.18,1.26Z"/><path class="cls-2" d="M113.76,212.69c-1.44,.38-2.44,1.51-2.22,2.52,.22,1.01,1.57,1.51,3,1.13,1.42-.39,2.44-1.47,2.24-2.47-.2-1-1.56-1.54-3.02-1.18Z"/><path class="cls-2" d="M11.19,47.78c1.13,.38,3.4,.18,5.2-1.01,1.8-1.19,2.69-2.95,2.03-3.87-.66-.92-3.02-.63-3.93-1.42-.91-.79-1.6-2.58-3.09-2.93-1.49-.34-2.67,3.47-2.6,5.36,.07,1.89,.59,3.26,2.38,3.86Z"/><path class="cls-2" d="M3.97,45.1c.24,.76,1.29,1.04,2.34,.64s1.71-1.34,1.47-2.1c-.24-.76-1.28-1.06-2.34-.65-1.05,.4-1.71,1.35-1.48,2.11Z"/><path class="cls-2" d="M11.86,49.15c-.99-.29-2.14,.63-2.54,2.08-.41,1.44,.05,2.83,1.03,3.11,.98,.27,2.1-.66,2.5-2.09,.39-1.44-.01-2.81-1-3.1Z"/><path class="cls-2" d="M14.3,50.71c.1,1.1,.87,1.92,1.63,1.8,.76-.12,1.31-1.09,1.2-2.2-.11-1.1-.83-1.92-1.61-1.81-.78,.11-1.32,1.1-1.21,2.21Z"/><path class="cls-2" d="M5.59,47.78c-1.03,1.08-1.3,2.56-.59,3.31,.71,.75,2.12,.48,3.15-.59,1.01-1.08,1.32-2.52,.63-3.27-.69-.75-2.13-.51-3.19,.55Z"/><path class="cls-2" d="M56.17,57.03c-.43,1.11-.33,3.39,.77,5.24,1.11,1.85,2.83,2.82,3.78,2.2,.95-.62,.76-2.98,1.59-3.86,.83-.88,2.65-1.48,3.06-2.95,.41-1.47-3.35-2.82-5.24-2.84-1.89-.01-3.28,.44-3.97,2.2Z"/><path class="cls-2" d="M59.17,49.93c-.77,.2-1.1,1.24-.75,2.31,.35,1.07,1.26,1.77,2.03,1.56,.77-.2,1.11-1.23,.76-2.3-.35-1.07-1.27-1.77-2.04-1.57Z"/><path class="cls-2" d="M54.78,57.64c.33-.97-.54-2.17-1.97-2.63-1.42-.47-2.83-.07-3.15,.89-.32,.97,.57,2.13,1.98,2.59,1.42,.45,2.8,.11,3.14-.86Z"/><path class="cls-2" d="M53.1,60c-1.11,.05-1.96,.78-1.88,1.55,.09,.76,1.03,1.36,2.14,1.29,1.11-.06,1.95-.75,1.88-1.53-.07-.78-1.04-1.37-2.15-1.31Z"/><path class="cls-2" d="M56.43,51.43c-1.03-1.08-2.5-1.41-3.28-.74-.78,.67-.57,2.1,.45,3.17,1.03,1.06,2.46,1.44,3.24,.78,.78-.66,.6-2.1-.41-3.22Z"/><path class="cls-2" d="M256.53,201.21c-1.11,.45-2.7,2.08-3.29,4.16-.59,2.07-.12,4,.98,4.26,1.1,.27,2.7-1.49,3.9-1.49,1.21,0,2.9,.92,4.25,.21,1.35-.71-.24-4.37-1.52-5.76-1.29-1.39-2.57-2.09-4.32-1.38Z"/><path class="cls-2" d="M263.76,198.54c-.68-.42-1.66,.05-2.19,1.04s-.43,2.13,.25,2.55c.68,.42,1.66-.04,2.2-1.03,.54-.99,.42-2.14-.25-2.56Z"/><path class="cls-2" d="M255.13,200.61c.94-.42,1.21-1.88,.57-3.23-.63-1.36-1.89-2.11-2.81-1.68-.92,.43-1.16,1.87-.53,3.22,.64,1.34,1.84,2.12,2.77,1.7Z"/><path class="cls-2" d="M252.26,201.01c-.8-.77-1.91-.89-2.41-.31-.49,.59-.28,1.69,.53,2.45,.8,.76,1.88,.91,2.4,.32,.52-.59,.29-1.7-.52-2.46Z"/><path class="cls-2" d="M260.78,197.56c.08-1.49-.68-2.79-1.71-2.89-1.02-.1-1.92,1.02-2,2.5-.07,1.48,.64,2.78,1.65,2.89,1.01,.12,1.95-1,2.06-2.5Z"/><path class="cls-2" d="M10.41,7.06c-.72,.95-1.26,3.17-.72,5.25,.55,2.09,1.93,3.5,3.01,3.17,1.08-.33,1.56-2.65,2.61-3.27,1.04-.61,2.96-.68,3.76-1.98,.8-1.3-2.43-3.64-4.24-4.18-1.81-.54-3.28-.49-4.42,1.01Z"/><path class="cls-2" d="M15.26,1.07c-.8-.02-1.4,.88-1.36,2.01s.72,2.05,1.51,2.07c.8,.02,1.41-.88,1.37-2-.04-1.12-.73-2.06-1.52-2.07Z"/><path class="cls-2" d="M8.9,7.25c.59-.84,.09-2.23-1.16-3.07-1.23-.85-2.7-.86-3.27-.02-.57,.84-.05,2.2,1.18,3.04,1.24,.83,2.66,.89,3.25,.05Z"/><path class="cls-2" d="M6.63,9.05c-1.08-.26-2.1,.21-2.23,.96-.13,.76,.61,1.6,1.7,1.84,1.08,.25,2.08-.17,2.23-.95,.15-.77-.62-1.61-1.7-1.86Z"/><path class="cls-2" d="M12.21,1.75C11.52,.42,10.2-.31,9.27,.12c-.93,.43-1.13,1.85-.45,3.17,.69,1.3,1.96,2.06,2.89,1.65,.93-.41,1.17-1.85,.5-3.2Z"/><path class="cls-2" d="M129.19,89.69c-.7-.97-2.66-2.13-4.81-2.22-2.15-.09-3.91,.83-3.91,1.96,0,1.13,2.08,2.27,2.36,3.44,.28,1.18-.21,3.03,.8,4.18,1.01,1.15,4.19-1.26,5.24-2.84,1.04-1.58,1.43-2.99,.32-4.53Z"/><path class="cls-2" d="M133.5,96.09c.25-.76-.44-1.6-1.53-1.89-1.09-.29-2.17,.09-2.42,.84-.25,.76,.43,1.61,1.51,1.89,1.09,.29,2.18-.09,2.43-.85Z"/><path class="cls-2" d="M129.45,88.19c.63,.81,2.11,.74,3.28-.21,1.17-.93,1.61-2.33,.97-3.12-.64-.79-2.09-.69-3.25,.24-1.15,.94-1.63,2.29-1,3.1Z"/><path class="cls-2" d="M128.39,85.5c.56-.96,.42-2.07-.27-2.42-.69-.34-1.7,.12-2.25,1.09-.55,.96-.44,2.04,.25,2.41,.7,.37,1.72-.12,2.27-1.08Z"/><path class="cls-2" d="M133.75,92.97c1.47-.27,2.55-1.32,2.41-2.34-.14-1.02-1.44-1.63-2.9-1.36-1.45,.28-2.55,1.28-2.42,2.29,.12,1.01,1.43,1.66,2.92,1.41Z"/><path class="cls-2" d="M161.02,59.69c-.96,.71-2.09,2.69-2.15,4.85-.05,2.16,.89,3.9,2.02,3.88,1.13-.02,2.24-2.12,3.41-2.41,1.17-.3,3.03,.17,4.17-.86,1.13-1.03-1.32-4.18-2.91-5.19-1.59-1.02-3.01-1.38-4.53-.26Z"/><path class="cls-2" d="M167.35,55.29c-.76-.24-1.59,.46-1.87,1.55-.27,1.09,.12,2.17,.88,2.4,.76,.24,1.6-.45,1.87-1.54,.27-1.09-.13-2.18-.89-2.41Z"/><path class="cls-2" d="M159.52,59.46c.8-.64,.71-2.12-.26-3.27-.95-1.16-2.35-1.57-3.14-.93-.78,.65-.66,2.1,.29,3.25,.96,1.14,2.31,1.59,3.11,.95Z"/><path class="cls-2" d="M156.84,60.56c-.96-.55-2.08-.39-2.41,.31-.33,.69,.15,1.7,1.12,2.24,.97,.54,2.05,.41,2.41-.29,.36-.7-.14-1.71-1.12-2.25Z"/><path class="cls-2" d="M164.23,55.09c-.29-1.46-1.36-2.53-2.38-2.38s-1.6,1.47-1.32,2.92c.3,1.45,1.31,2.53,2.32,2.39,1.01-.14,1.63-1.46,1.37-2.94Z"/></g></g></svg>