<?xml version="1.0" encoding="utf-8"?>
<!-- Generator: Adobe Illustrator 27.0.1, SVG Export Plug-In . SVG Version: 6.00 Build 0)  -->
<svg version="1.1" id="Layer_1" xmlns="http://www.w3.org/2000/svg" xmlns:xlink="http://www.w3.org/1999/xlink" x="0px" y="0px"
	 viewBox="0 0 333.5 319.5" style="enable-background:new 0 0 333.5 319.5;" xml:space="preserve">
<style type="text/css">
	.st0{fill:#F26722;}
</style>
<g>
	<path class="st0" d="M149.4,110.9c15.6-2.1,31.3-2.8,47-1.5c8.1,0.8,16.4,2,24,5.3c2.9,1.3,5.8,2.9,8.1,5.2
		c6.6,8.1,2.8,19.7-2.7,27.2c-5.1,6.8-12.3,11.8-19.8,15.5c-9.8,4.8-20.2,7.6-30.8,9.5c-5.3,1-10.5,1.5-15.8,2
		c-3.2,0.2-6.5-0.1-9.7-0.9C121.1,165.2,113.5,113.2,149.4,110.9L149.4,110.9z M150.6,122.9c-8.6,0.5-12.5,6.1-12.6,14.5
		c0.1,9.8,5.4,21.1,15.1,24.5c1.8,0.5,3.6,0.8,5.6,0.8c4.9-0.3,10-0.6,14.9-1.3c4.9-0.6,9.8-1.5,14.5-2.7
		c13.1-3.5,27.8-9.5,33.6-22.6c1.2-3.2,2-7.2,0.1-10c-1.4-1.2-3.2-2.1-4.9-2.9c-2.1-0.8-4.3-1.5-6.6-2c-9.6-2.1-19.6-2.1-29.4-1.6
		C170.7,120.1,160.6,121.2,150.6,122.9L150.6,122.9z"/>
</g>
<path class="st0" d="M215.7,131.9l-3.3-2.2c-2.6-1.8-3.6-4.9-2.2-7l0,0c1.4-2.1,4.7-2.3,7.3-0.5l3.3,2.2c2.6,1.8,3.6,4.9,2.2,7l0,0
	C221.6,133.5,218.3,133.7,215.7,131.9z"/>
<path class="st0" d="M159.8,138.3l-3.1,0.2c-2.5,0.1-4.6-1.8-4.8-4.3l0,0c-0.1-2.5,1.8-4.6,4.3-4.8l3.1-0.2c2.5-0.1,4.6,1.8,4.8,4.3
	l0,0C164.2,136,162.3,138.1,159.8,138.3z"/>
<path class="st0" d="M111.1,119.7c1.5-0.4,1.5-1.9,1.4-3.4c-0.4-4.8,1.2-7.8,2.7-9.7c1.7-2,5.3-3.8,11.6-4.8c1.5-0.2,2.7-0.6,2.7-2
	c0.1-1.5-1.1-2.8-2.6-2.8c-10.2-0.4-15.9,0.1-19,3.8c-2.9,3.5-2.3,9.1-0.2,16.9c0.3,1.1,1.2,1.9,2.4,2
	C110.4,119.8,110.8,119.8,111.1,119.7z"/>
<path class="st0" d="M125.2,113.7c-0.7,0.7-1.1,1.6-1,2.6c5.2,96.1-2.7,106,3.9,114.7c1.3,1.7,2.7,3.3,4.7,3.4
	c3.7,0.2,6.5,1,9.4-0.4c5.2-2.4-1.7-95.5-4-120c-0.1-1.2-0.8-2.3-1.9-2.9C132.7,109.2,129,110.1,125.2,113.7z"/>
</svg>
