<?xml version="1.0" encoding="utf-8"?>
<!-- Generator: Adobe Illustrator 27.0.1, SVG Export Plug-In . SVG Version: 6.00 Build 0)  -->
<svg version="1.1" id="Layer_1" xmlns="http://www.w3.org/2000/svg" xmlns:xlink="http://www.w3.org/1999/xlink" x="0px" y="0px"
	 viewBox="0 0 304 255" style="enable-background:new 0 0 304 255;" xml:space="preserve">
<style type="text/css">
	.st0{fill:#F8312F;}
	.st1{fill:#D3883E;}
	.st2{fill:#F3AD61;}
	.st3{fill:#FFDEA7;}
	.st4{fill:#212121;}
</style>
<g>
	<path class="st0" d="M66.7,117.1c-2.9,0-5.2-2.4-5.2-5.2v-1.6c0-3.2,2.6-5.7,5.7-5.7h4.7v7.3C71.9,114.7,69.5,117.1,66.7,117.1z"/>
	<path class="st1" d="M148.8,151.9h-20.9l10.2,60.9c0.2,1,1.1,1.8,2.2,1.8h17c1,0,1.9-1,1.7-2L148.8,151.9z M179.5,151.9h20.9
		l-13.7,61c-0.2,1-1,1.7-2.1,1.7h-17c-0.3,0-0.5,0-0.8-0.2c-0.2-0.1-0.4-0.3-0.6-0.5c-0.2-0.2-0.3-0.4-0.3-0.7c-0.1-0.3,0-0.5,0-0.8
		L179.5,151.9z"/>
	<path class="st2" d="M173.2,73.3c1.3-9.3,6-17.7,13.2-23.8c7.1-6.1,16.3-9.3,25.6-9.1c20.3,0.4,36.9,16.9,37.5,37.2
		c0.2,7.3-1.7,14.6-5.5,20.9s-9.3,11.4-15.9,14.6c0.3,1.8,0.5,3.6,0.5,5.5v36.8c0,0.8,0.4,1.5,1,1.8l8.2,5.4c3,2,4.8,5.4,4.9,9.1
		v40.7c0,1.2-1,2.2-2.2,2.2h-16.6c-1.2,0-2.2-1-2.2-2.2v-24.2c0-0.9-0.6-1.7-1.4-2l-17.1-6.8c-4.8-1.9-8.9-5.2-11.8-9.4
		c-2.9-4.2-4.5-9.2-4.6-14.4l-29-3.6l-33.7,7v8.1c0,10.9-8.8,19.7-19.7,19.7h-8.2v2.6c0,2.4-2,4.3-4.3,4.3H79.8
		c-2.4,0-4.4-2-4.4-4.3v-4.7c0-10.4,8.4-18.9,18.8-18.9h9.1v-7.2c-8.9-8.8-13.9-20.8-13.9-33.3v-13.1c0-1.2-1-2.2-2.2-2.2H75.4
		c-11.6,0-20.9-9.3-20.9-20.9v-1.7c0-2.9,2.4-5.3,5.3-5.3h10.5c3,0,5.6-2,6.3-4.9l0.6-2.5c1.5-5.8,4.8-11,9.6-14.7
		c4.7-3.7,10.6-5.7,16.6-5.7h13.5c4,0,7.7,2.5,9.2,6.3l8.7,21.7l0.5,1.2c1.7,4.6,4.9,12.8,14.2,11.5l47.5-5.9
		c4.8-0.4,9.7,0.4,14.1,2.4c4.4,1.9,8.3,5,11.3,8.8c4.2-2.2,7.7-5.5,10-9.6c2.3-4.1,3.5-8.8,3.2-13.5c-0.7-12.5-10.8-22.5-23.2-23.1
		c-10-0.5-18.7,5-22.8,13.2c-2.4,4.7-7.5,7.7-12.7,7.7H175c-0.2,0-0.5,0-0.7-0.1c-0.2-0.1-0.4-0.2-0.6-0.4c-0.2-0.2-0.3-0.4-0.4-0.6
		C173.2,73.8,173.2,73.6,173.2,73.3z"/>
	<path class="st3" d="M124.1,158.8V145l52-0.1c5.9,0,10.7,4.8,10.7,10.6c-4.7,2.2-9.8,3.3-15,3.3H124.1z"/>
	<path class="st4" d="M89.3,84.6c0,1.9,1.5,3.5,3.5,3.5s3.5-1.6,3.5-3.5v-4c0-2-1.5-3.5-3.5-3.5s-3.5,1.5-3.5,3.5V84.6z M59.7,92.7
		h3.5c2.9,0,5.2-2.4,5.2-5.2c0-2.9-2.4-5.2-5.2-5.2h-3.5c-2.9,0-5.2,2.4-5.2,5.2C54.5,90.3,56.8,92.7,59.7,92.7z"/>
	<path class="st1" d="M103.2,54.4H128c5.1,0,8.8,4.8,7.6,9.8l-4.2,16.6c-1.2,4.9-5.6,8.4-10.8,8.4c-5.1,0-9.5-3.5-10.8-8.4
		L103.2,54.4z"/>
</g>
</svg>
