<?xml version="1.0" encoding="UTF-8"?><svg id="corgi-normal-1" xmlns="http://www.w3.org/2000/svg" viewBox="0 0 1105 748"><defs><style>.cls-1,.cls-2{fill:none;}.cls-1,.cls-2,.cls-3,.cls-4,.cls-5{stroke-miterlimit:10;stroke-width:3px;}.cls-1,.cls-3{stroke-linecap:round;}.cls-1,.cls-3,.cls-4,.cls-5{stroke:#b17033;}.cls-2{stroke:#2f2f2f;}.cls-6{fill:#fbc1a1;}.cls-7{fill:#fff;}.cls-8{fill:#d66971;}.cls-9{fill:#2f2f2f;}.cls-3,.cls-4{fill:#ffefe6;}.cls-5{fill:#e8a553;}</style></defs><g id="corgi-normal-1-2"><g><path class="cls-4" d="M662.86,585.01c33.02,7.77,48.91,13,61.6,7.39,11.53-5.1,18.88-15.78,18.45-19,1.83-2.63,18.28-22.91,6.22-34.07,1.09-12.5-11.1-28.25-24.24-18.76-5.93,5.72-4.51,11.51-19.27,9.84-14.76-1.68-31.93-6.26-43.3-12.83l-29.25,62.29,29.78,5.15Z"/><path class="cls-1" d="M727.25,568.75c4.28-1.41,13.68-3.18,15.59,5.37"/><path class="cls-1" d="M730.59,537.01s13.59-5.24,20.93,5.17"/></g><g><path class="cls-4" d="M442.14,585.01c-33.02,7.77-48.91,13-61.6,7.39-11.53-5.1-18.88-15.78-18.45-19-1.83-2.63-18.28-22.91-6.22-34.07-1.09-12.5,11.1-28.25,24.24-18.76,5.93,5.72,4.51,11.51,19.27,9.84,14.76-1.68,31.93-6.26,43.3-12.83l29.25,62.29-29.78,5.15Z"/><path class="cls-1" d="M377.75,568.75c-4.28-1.41-13.68-3.18-15.59,5.37"/><path class="cls-1" d="M374.41,537.01s-13.59-5.24-20.93,5.17"/></g><path id="right_ear_area" class="cls-5" d="M726.83,82.27c-74.02,29.45-93.95,91.96-81.98,117.01-20-12.14-39.02-19.99-58.65-23.22-54.2,133.45,37.17,216.25,126.88,171.92,17.08-32.14,5.67-57.55-8.53-101.73,66.86-54.12,38.72-138.4,22.29-163.97Z"/><g id="left_ear_area_and_body"><path class="cls-4" d="M423.31,226.29s0,0,0,.01c0,0,0,0,0-.01h0Z"/><path class="cls-4" d="M391.48,161.85s0-.03,0-.04c0,.01,0,.03,0,.04Z"/><g><path class="cls-4" d="M680.12,460.97c9.37-9.25-12.23-41.55-19.01-54.67,27.06-23.31,42.74-41.22,51.56-57.62-89.43,43.45-179.54-39.46-125.58-172.46-14.07-2.38-28.45-2.37-43.71,.14,0,0,0,0,0,0,26.42,115.7-24.63,204.62-144.78,138.82-4.3,34.57,13.62,65.54,46.01,98.28-8.84,8.96-21.24,21.55-25.72,33.02-3.23,8.25-3.77,11.82-1.07,19.16,.68,1.85,15.28-15.31,14.44-12.84-11,32.46-19.21,103.35,13.03,126.82,6.99,5.46,37.88,5.49,77.33,4.5,1.25-.03,2.5-5.97,3.76-6.01,19.36-.51,32.31,.33,52.25-.2,1.71-.05,1.04,4.64,2.73,4.59,25.22-.63,49.36-.84,64.1,.55,12.86,.23,34.92-5.42,21.35-63.4,3.85,3.41,9.16,8.34,16.98,8.25,3.95-30.81-8.32-57.42-15.92-74.19-.89-1.97,6.41,7.22,12.25,7.24Z"/><path class="cls-4" d="M543.27,176.38c-.48,.08-.96,.15-1.44,.24,0,.01,0,.02,0,.04,.41-.08,.82-.16,1.23-.24,.07-.01,.14-.03,.2-.04Z"/><path class="cls-5" d="M543.39,176.37s0,0,0,0c0,0,0,0,0,0-.04,0-.08,.01-.12,.02-.07,.01-.14,.03-.2,.04-.41,.07-.82,.16-1.23,.24-.71,.14-1.43,.27-2.14,.41-.59,.12-1.18,.23-1.77,.36-1.1,.23-2.21,.48-3.33,.74-.64,.15-1.29,.3-1.94,.46-1.07,.26-2.15,.54-3.24,.82-.72,.19-1.44,.38-2.16,.58-1.03,.28-2.07,.58-3.11,.88-.81,.24-1.63,.49-2.45,.74-.97,.3-1.95,.6-2.93,.92-.94,.3-1.89,.63-2.83,.95-.88,.3-1.77,.59-2.66,.91-1.16,.41-2.33,.84-3.5,1.28-.71,.26-1.41,.51-2.12,.78-1.9,.73-3.82,1.48-5.76,2.27,.9-8.73,.53-16.91-.86-24.55-.31-1.7-.67-3.37-1.07-5.01-1.02-4.11-2.34-8.06-3.91-11.84-.63-1.51-1.3-3-2.02-4.46-.71-1.46-1.46-2.89-2.25-4.3-1.97-3.52-4.16-6.88-6.55-10.08-1.91-2.56-3.93-5.01-6.06-7.37-.53-.59-1.07-1.17-1.61-1.75-1.63-1.73-3.31-3.4-5.04-5.01-1.15-1.08-2.32-2.13-3.51-3.15-1.19-1.03-2.39-2.03-3.62-3-3.66-2.93-7.45-5.63-11.31-8.11-3.21-2.07-6.47-3.98-9.72-5.74-2.61-1.41-5.21-2.72-7.8-3.93-1.94-.91-3.87-1.77-5.78-2.57-.64-.27-1.27-.53-1.9-.79-1.9-.77-3.77-1.48-5.62-2.14-1.23-.44-2.44-.86-3.64-1.25-1.8-.59-3.56-1.13-5.28-1.61-.88,1.64-1.76,3.39-2.64,5.22-1.09,2.27-2.17,4.68-3.23,7.21-.37,.89-.74,1.78-1.11,2.7-.57,1.41-1.13,2.86-1.68,4.33-.28,.74-.55,1.48-.82,2.24-.54,1.51-1.07,3.04-1.59,4.6-.52,1.56-1.03,3.15-1.52,4.76-.49,1.61-.97,3.24-1.43,4.89-1.61,5.78-3.01,11.8-4.11,17.93-.18,1.01-.35,2.03-.52,3.04-.24,1.5-.46,3-.67,4.51-.03,.23-.06,.47-.09,.7-.79,6.08-1.24,12.2-1.27,18.25,0,.01,0,.03,0,.04-.11,26.43,7.95,51.38,31.83,64.44,0,0,0,0,0,.01-.72,2.12-1.43,4.21-2.14,6.27-.07,.19-.13,.39-.2,.58-.67,1.93-1.34,3.82-2,5.7-.12,.33-.24,.67-.35,1-.62,1.73-1.23,3.44-1.84,5.13-.2,.55-.39,1.09-.59,1.63-.49,1.34-.97,2.67-1.45,3.99-8.88,24.41-16.47,44.46-18.29,63.91,120.15,65.81,171.21-23.11,144.78-138.82Z"/></g></g><ellipse id="right_eye" class="cls-9" cx="607.34" cy="271.99" rx="8.84" ry="24.23" transform="translate(-50.55 171.88) rotate(-15.47)"/><ellipse id="left_eye" class="cls-9" cx="510.41" cy="271.99" rx="24.23" ry="8.84" transform="translate(112.11 691.34) rotate(-74.53)"/><path id="nosed" class="cls-9" d="M567.83,317.26c-11.33-2.78-22.18-3.8-32.5-1.66-.62,11.62,.42,22.46,10.83,26.23,13.31,1,23.09-17.95,21.67-24.57Z"/><g id="mouth"><path class="cls-9" d="M563.56,371.14c-2.19,11.02-31.06,11.23-34.02-1.44l14.49-4.39,19.53,5.83Z"/><path class="cls-8" d="M533.77,368.17c-.11,.13-.21,.24-.32,.38-1.7,25.4,28.37,29.82,26.92,2.61-.05-.06-.1-.11-.15-.17-5.33-.73-10.65-2.62-14.62-6.68,0,0-5.17,2.24-11.84,3.87Z"/><path class="cls-2" d="M581.66,368.5s-24.03,7.24-35.9-4.92c0,0-26.63,11.58-37.05,1.16"/></g><path class="cls-6" d="M429.37,134.87c-11.87,25.53-.59,64.11,21.97,66.49,8.9-21.97-2.97-49.27-21.97-66.49Z"/><path class="cls-6" d="M702.16,144.31c8.74,25.21-6.84,58.13-21.97,66.49-8.9-21.97,2.97-49.27,21.97-66.49Z"/><ellipse id="left_eye-2" class="cls-7" cx="514.27" cy="258.04" rx="9.76" ry="5.95" transform="translate(128.38 684.83) rotate(-74.53)"/><ellipse id="left_eye-3" class="cls-7" cx="603.48" cy="258.04" rx="5.95" ry="9.76" transform="translate(-46.97 170.35) rotate(-15.47)"/><g><path class="cls-3" d="M575.09,560.73l4.83,29.83c3.41,33.75,4.81,50.48,14.26,60.65,8.58,9.24,21.06,12.71,23.97,11.26,3.08,.87,27.61,9.83,34.24-5.21,12.17-3.04,21.91-19.69,8.67-29.02-7.34-3.74-11.17-.52-14.39-15.02-3.22-14.5-3.29-32.23-.79-45.12"/><path class="cls-1" d="M617.45,646.15c2.73,3.59,7.46,11.9,0,16.49"/><path class="cls-1" d="M648.53,638.97s9.38,11.14,1.92,21.47"/></g><g><path class="cls-3" d="M530.3,559.71l-4.83,29.83c-3.41,33.75-4.81,50.48-14.26,60.65-8.58,9.24-21.06,12.71-23.97,11.26-3.08,.87-27.61,9.83-34.24-5.21-12.17-3.04-21.91-19.69-8.67-29.02,7.34-3.74,11.17-.52,14.39-15.02,3.22-14.5,2.11-32.23-.39-45.12"/><path class="cls-1" d="M487.94,645.13c-2.73,3.59-7.46,11.9,0,16.49"/><path class="cls-1" d="M456.85,637.95s-9.38,11.14-1.92,21.47"/></g></g></svg>