<?xml version="1.0" encoding="utf-8"?>
<!-- Generator: Adobe Illustrator 27.0.1, SVG Export Plug-In . SVG Version: 6.00 Build 0)  -->
<svg version="1.1" xmlns="http://www.w3.org/2000/svg" xmlns:xlink="http://www.w3.org/1999/xlink" x="0px" y="0px"
	 viewBox="0 0 1105 748" style="enable-background:new 0 0 1105 748;" xml:space="preserve">
<style type="text/css">
	.st0{fill:#80C6E4;}
	.st1{fill:#8ED8F8;}
	.st2{fill:#FFDD00;}
	.st3{fill:#FFEB00;}
	.st4{fill:#6C88B3;}
	.st5{fill:#7BC1E0;}
	.st6{opacity:0.2;}
	.st7{fill:#FFFFFF;}
	.st8{fill:#435369;}
	.st9{fill:#FFF45C;}
	.st10{fill:#D2C5AB;}
	.st11{fill:#A49C8E;}
	.st12{fill:#7AA47A;}
	.st13{fill:#58825F;}
	.st14{fill:#53473C;}
	.st15{fill:#7F7F79;}
	.st16{fill:#B34A1A;}
	.st17{fill:#E36525;}
	.st18{fill:none;}
	.st19{fill:#E6F2F1;}
	.st20{fill:#DBEDE8;}
	.st21{fill:#ED1F25;}
	.st22{fill:#6A2014;}
	.st23{fill:#A8D2CD;}
	.st24{fill:#F26722;}
	.st25{fill:#EE2834;}
	.st26{fill:#D72126;}
	.st27{fill:#E12126;}
	.st28{fill:#FAA51B;}
	.st29{fill:#F39A20;}
	.st30{fill:#DF2926;}
	.st31{fill:#D95226;}
	.st32{fill:#A65325;stroke:#774225;stroke-width:2.6891;stroke-miterlimit:10;}
	.st33{fill:#B5632C;}
	.st34{fill:#B5632C;stroke:#C67D54;stroke-width:6.7227;stroke-miterlimit:10;}
	.st35{fill:#B5632C;stroke:#A65325;stroke-width:6.7227;stroke-miterlimit:10;}
	.st36{fill:none;stroke:#949993;stroke-width:2.6891;stroke-miterlimit:10;}
	.st37{fill:#949993;}
	.st38{fill:#EDD7C5;}
</style>
<g id="sunny">
	<g>
		<polygon class="st0" points="955.6,0.2 782.2,250.4 768.1,240.7 934.7,0.2 920.2,0.2 746.8,250.4 732.7,240.7 899.3,0.2 
			531.8,0.2 531.8,403.3 1105,403.3 1105,0.2 		"/>
		<polygon class="st1" points="746.8,250.4 920.2,0.2 899.3,0.2 732.7,240.7 		"/>
		<polygon class="st1" points="782.2,250.4 955.6,0.2 934.7,0.2 768.1,240.7 		"/>
	</g>
	<g id="ray_2_00000158729180097927276530000009917888334251147923_">
		<polygon class="st2" points="662.3,65.7 689.3,27.6 689.5,73.9 		"/>
		<polygon class="st2" points="665.8,65.6 638.5,28.3 639,74.9 		"/>
		<polygon class="st2" points="641.8,72.8 597.7,58.7 625.6,96.1 		"/>
		<polygon class="st2" points="627.2,121.2 582.6,107.2 626.6,92.8 		"/>
		<polygon class="st2" points="643.2,140.5 599,155.4 626,117.9 		"/>
		<polygon class="st2" points="667.5,146.7 640.5,184.8 640.3,138.5 		"/>
		<polygon class="st2" points="690.8,137.4 691.3,184.1 664,146.8 		"/>
		<polygon class="st2" points="704.3,116.2 732.1,153.7 688,139.6 		"/>
		<polygon class="st2" points="702.7,91.2 747.2,105.1 703.2,119.6 		"/>
		<polygon class="st2" points="686.6,71.9 730.9,57 703.8,94.5 		"/>
	</g>
	<g id="ray_1_00000121976816091036891370000010009566524774518406_">
		<polygon class="st2" points="676.4,61 719.5,29 703.3,79.6 		"/>
		<polygon class="st2" points="680.3,62.1 663.7,11.7 647.7,62.8 		"/>
		<polygon class="st2" points="651.5,61.5 608.4,30.4 625.5,81.2 		"/>
		<polygon class="st2" points="618.4,109.2 574.7,78.1 627.8,77.9 		"/>
		<polygon class="st2" points="629,136 575.4,136.5 618.3,105.1 		"/>
		<polygon class="st2" points="653.4,151.4 610.3,183.3 626.6,132.8 		"/>
		<polygon class="st2" points="682.2,149.5 666.1,200.7 649.5,150.2 		"/>
		<polygon class="st2" points="704.3,131.1 721.4,181.9 678.3,150.9 		"/>
		<polygon class="st2" points="711.5,103.2 755.2,134.3 702,134.5 		"/>
		<polygon class="st2" points="700.8,76.4 754.4,75.8 711.6,107.2 		"/>
	</g>
	<circle class="st3" cx="664.9" cy="106.2" r="47.5"/>
</g>
<g id="Layer_5">
</g>
<g id="living_room">
	<rect y="0.2" class="st10" width="557.1" height="509.9"/>
	<rect y="460" class="st11" width="1105" height="288"/>
	<rect x="982.4" y="0.2" class="st12" width="123.4" height="460.1"/>
	<rect x="1002.1" y="0.2" class="st13" width="17.1" height="460.1"/>
	<rect x="1034.9" y="0.2" class="st13" width="17.1" height="460.1"/>
	<rect x="1067.7" y="0.2" class="st13" width="17.1" height="460.1"/>
	<rect x="437.4" y="0.2" class="st12" width="123.4" height="463.3"/>
	<rect x="457.1" y="0.2" class="st13" width="17.1" height="463.3"/>
	<rect x="489.9" y="0.2" class="st13" width="17.1" height="463.3"/>
	<rect x="522.7" y="0.2" class="st13" width="17.1" height="463.3"/>
	<rect x="779.2" class="st14" width="10.3" height="437.5"/>
	<g id="couch_00000052090153605225544660000012373536018389930159_">
		<ellipse class="st15" cx="749.4" cy="502.5" rx="268" ry="12.2"/>
		<path class="st16" d="M956.8,219.7H762.3c-8.1,0-15,5-18.3,12.2c-3.3-7.2-10.2-12.2-18.3-12.2H531.1c-11.3,0-20.4,9.7-20.4,21.6
			V380c0,11.9,9.1,21.6,20.4,21.6h194.6c8.1,0,15-5,18.3-12.2c3.3,7.2,10.2,12.2,18.3,12.2h194.6c11.3,0,20.4-9.7,20.4-21.6V241.3
			C977.2,229.4,968.1,219.7,956.8,219.7z"/>
		<path class="st17" d="M721.4,400.7H529.8c-11.2,0-20.2-9.1-20.2-20.2v-131c0-11.2,9.1-20.2,20.2-20.2h191.6
			c11.2,0,20.2,9.1,20.2,20.2v131C741.7,391.7,732.6,400.7,721.4,400.7z"/>
		<path class="st17" d="M956.8,400.7H767.2c-11.1,0-20.1-9-20.1-20.1V249.4c0-11.1,9-20.1,20.1-20.1h189.6c11.1,0,20.1,9,20.1,20.1
			v131.2C976.9,391.7,967.9,400.7,956.8,400.7z"/>
		<path class="st18" d="M636,353.4c-0.1-3.5-1-7-2.4-10.3c-1.3-6.4-2.5-12.9-3.8-19.3c1.3,6.4,2.5,12.8,3.8,19.3
			C635,346.5,635.9,349.9,636,353.4z"/>
		<path class="st18" d="M628.6,368.7c-0.2,0-0.3-0.1-0.5-0.1C628.3,368.6,628.5,368.7,628.6,368.7z"/>
		<path class="st18" d="M523.5,363.9c0.6,1,1.6,1.5,2.9,1.3C525.1,365.5,524.1,364.9,523.5,363.9z"/>
		<path class="st18" d="M630,369c-0.2,0-0.4-0.1-0.7-0.1C629.5,368.9,629.8,369,630,369z"/>
		<path class="st18" d="M458.2,261.6c0,0.6,0.1,1.2,0.4,1.8c0,0,0,0,0,0C458.4,262.8,458.2,262.2,458.2,261.6z"/>
		<path class="st18" d="M458.1,417.8c-0.1,0.9-0.2,1.8-0.3,2.6l0,0C457.9,419.6,457.9,418.7,458.1,417.8z"/>
		<path class="st18" d="M511.4,257.4c-1.2-1.5-2.3-3-3.5-4.5C509.1,254.5,510.3,255.9,511.4,257.4
			C511.4,257.4,511.4,257.4,511.4,257.4z"/>
		<path class="st18" d="M465.7,249.9c-2.6,1.4-4.8,3.6-6.5,6.6c-1,0.4-1.5,1-1.8,1.7c0.3-0.7,0.8-1.2,1.8-1.7
			C461,253.4,463.1,251.3,465.7,249.9z"/>
		<path class="st18" d="M528.1,364.7L528.1,364.7c2.2,9.1,6,13.7,12.9,14C534.1,378.3,530.3,373.7,528.1,364.7z"/>
		<path class="st18" d="M458.7,459.9c0.4,0.5,0.8,1.1,1.2,1.6C459.5,461,459.1,460.4,458.7,459.9
			C458.7,459.9,458.7,459.9,458.7,459.9z"/>
		<path class="st18" d="M458.4,268.4c0.1-1.4,0.2-2.7,0.2-4.1C458.5,265.7,458.4,267.1,458.4,268.4z"/>
		<path class="st18" d="M466.4,249.5c0.9-0.5,1.9-0.8,2.9-1.1C468.3,248.7,467.4,249,466.4,249.5z"/>
		<path class="st18" d="M511.5,265.4c-3.3-4.3-7-7.7-11.6-9.1C504.5,257.7,508.1,261.1,511.5,265.4
			C511.5,265.4,511.5,265.4,511.5,265.4L511.5,265.4z"/>
		<polygon class="st19" points="661.4,206.9 661.4,206.9 661.4,206.9 		"/>
		<path class="st20" d="M457.4,258.1c-0.2,0.5-0.3,1.1-0.3,1.7C457.1,259.2,457.2,258.6,457.4,258.1z"/>
		<path class="st21" d="M458.7,459.9l0.1,0.2C458.8,460.1,458.7,459.9,458.7,459.9C458.7,459.9,458.7,459.9,458.7,459.9z"/>
		<path class="st21" d="M459,455.3c0,1.1,0,2.3-1.4,2.8c0,0,0,0,0,0C459,457.6,459,456.5,459,455.3z"/>
		<path class="st21" d="M459,454.9c0,0.2,0,0.3,0,0.5C459,455.2,459,455,459,454.9z"/>
		<path class="st21" d="M458.6,263.4c0,0.3,0,0.6-0.1,1C458.6,264,458.6,263.7,458.6,263.4L458.6,263.4z"/>
		<path class="st21" d="M458.1,275.1c0-2.2,0.1-4.4,0.2-6.7C458.2,270.7,458.1,272.9,458.1,275.1z"/>
		<path class="st22" d="M530,493.3c2.1,2.4-0.5,6.6,2.4,8.1c3.4,1.8,7.6,0.8,11.5,0.6c3.2-0.2,1.6-3.7,2.9-5.3
			c1.2-13.4,2.4-26.7,3.5-40.1c0,0,0,0,0,0c-5.8-0.5-11.5-0.9-17.3-0.5c-1.9,0.1-3.8,0.4-5.8,0.7c0.1,3,0.3,6.1,0.6,9.1
			c0.3,3,0.7,6.1,1,9.1c0.6,5.3,1.1,10.6,1.2,15.9C530,491.8,530,492.5,530,493.3z"/>
		<polygon class="st20" points="458.7,459.9 458.7,459.9 458.7,459.9 		"/>
		<path class="st20" d="M458.8,460.1c0,0-0.1-0.2-0.1-0.2c0,0,0,0,0,0C458.7,459.9,458.8,460.1,458.8,460.1z"/>
		<polygon class="st23" points="661.4,206.9 661.4,206.9 661.4,206.9 		"/>
		<path class="st24" d="M478.7,256.3c3.8,0.6,8,0.8,11.7-0.1c3.6-0.8,6.7-0.7,9.4,0.1c4.6,1.4,8.3,4.7,11.6,9.1l0,0
			c0-0.7,0-1.5,0-2.2c0.1-1.8,0.2-3.5,0.3-5.3c-0.1-0.2-0.2-0.4-0.4-0.5c-1.2-1.5-2.3-3-3.5-4.5l-1.6-2.1c-4.1-2.5-8.6-3.4-13.4-3.2
			c-5.8,0.2-11.6,0.2-17.4,0c-2.2-0.1-4.3,0.2-6.2,0.7c-1,0.3-2,0.7-2.9,1.1c-0.2,0.1-0.5,0.2-0.7,0.4c-2.6,1.4-4.8,3.6-6.5,6.6
			c-0.1,0.6-0.2,1.1-0.4,1.7c-0.3,1.1-0.7,2.3-0.6,3.4c0,0.6,0.1,1.2,0.4,1.8C464.4,258.3,470.6,255.1,478.7,256.3z"/>
		<path class="st25" d="M465.7,249.9c0.2-0.1,0.5-0.3,0.7-0.4C466.2,249.6,466,249.7,465.7,249.9z"/>
		<path class="st25" d="M506.4,250.9C506.4,250.9,506.4,250.9,506.4,250.9l1.6,2.1C507.4,252.3,506.9,251.6,506.4,250.9z"/>
		<path class="st25" d="M458.2,261.6c0-1.2,0.3-2.3,0.6-3.4C458.5,259.3,458.2,260.4,458.2,261.6z"/>
		<path class="st26" d="M511.7,255.2c-0.1,0.7-0.2,1.5-0.3,2.2c0,0,0,0,0,0C511.5,256.7,511.6,256,511.7,255.2z"/>
		<path class="st26" d="M513,248.9c0,0.4,0,0.7,0,1.1C513,249.6,513,249.2,513,248.9z"/>
		<path class="st26" d="M511.5,263.2C511.5,263.2,511.5,263.2,511.5,263.2c0,0.7,0,1.5,0,2.2C511.5,264.7,511.5,263.9,511.5,263.2
			L511.5,263.2z"/>
		<path class="st27" d="M626.2,367.9c0.6,0.2,1.3,0.4,1.9,0.6C627.5,368.3,626.9,368.1,626.2,367.9L626.2,367.9z"/>
		<path class="st27" d="M629.3,368.9c-0.2-0.1-0.5-0.1-0.7-0.2C628.8,368.8,629.1,368.8,629.3,368.9z"/>
		<path class="st28" d="M581,337.5c17.2,4.4,34.8,6.4,52.6,5.7c-1.3-6.4-2.5-12.9-3.8-19.3c-3.4-16.6-3.9-33.4-5.6-50.2
			c-0.8-8.5-6.9-13.3-15.5-12.7c-2.6,0.2-5.2,0.9-7.7,1.5c-16.4,3.9-33,6.5-49.9,7.8c-8.9,0.7-18-0.4-26.8,2.2
			c-7.5,5.3-8.8,12.2-6.3,20.7c2,7.1,3.4,14.5,5,21.7c6.5,0.3,11.2,4.9,16.5,7.6C552.8,329.4,566.8,333.8,581,337.5z"/>
		<path class="st29" d="M626.2,367.9c5.4-2.7,9.6-6.5,9.8-13c0-0.5,0-1,0-1.5c-0.1-3.5-1-7-2.4-10.3c-17.8,0.7-35.3-1.2-52.6-5.7
			c-14.2-3.7-28.2-8.1-41.4-14.9c-5.3-2.8-10-7.4-16.5-7.6c0.3,3,0.6,6,0.9,9c3,13.4,3.7,27,4,40.7c2.2,9.1,6,13.7,12.9,14
			c2.3,0.1,4.9-0.2,8-1c7.9-2.1,15.9-3.7,23.9-5C590.5,369.9,608.3,368.8,626.2,367.9C626.2,367.9,626.2,367.9,626.2,367.9z"/>
		<path class="st29" d="M626.2,367.9c-17.9,0.9-35.7,2-53.3,4.8C590.5,369.9,608.3,368.8,626.2,367.9L626.2,367.9
			C626.2,367.9,626.2,367.9,626.2,367.9z"/>
		<path class="st30" d="M526.5,365.3c0.5-0.1,1.1-0.3,1.7-0.6c0,0,0,0,0,0C527.5,365,527,365.2,526.5,365.3z"/>
		<path class="st18" d="M458.7,459.9C458.7,459.9,458.7,459.9,458.7,459.9l0.1,0.2C458.8,460.1,458.7,459.9,458.7,459.9
			c0.4,0.5,0.8,1.1,1.2,1.6C459.5,461,459.1,460.4,458.7,459.9C458.7,459.9,458.7,459.9,458.7,459.9z"/>
		<path class="st18" d="M523,361.8c0,0.8,0.2,1.5,0.6,2.1c0.6,1,1.6,1.5,2.9,1.3c0.5-0.1,1.1-0.3,1.7-0.6c2.2,9.1,6,13.7,12.9,14
			c2.3,0.1,4.9-0.2,8-1c7.9-2.1,15.9-3.7,23.9-5c17.6-2.8,35.5-4,53.3-4.8c0.6,0.2,1.3,0.4,1.9,0.6c-0.6-0.2-1.3-0.5-1.9-0.6
			c5.4-2.7,9.6-6.5,9.8-13c0-0.5,0-1,0-1.5c-0.1-3.5-1-7-2.4-10.3c-1.3-6.4-2.5-12.9-3.8-19.3c-3.4-16.6-3.9-33.4-5.6-50.2
			c-0.8-8.5-6.9-13.3-15.5-12.7c-2.6,0.2-5.2,0.9-7.7,1.5c-16.4,3.9-33,6.5-49.9,7.8c-8.9,0.7-18-0.4-26.8,2.2
			c-7.5,5.3-8.8,12.2-6.3,20.7c2,7.1,3.4,14.5,5,21.7c0.3,3,0.6,6,0.9,9c-2.8,1.4-2.8,3.8-2.1,6.3c0.5,1.7,0.5,3.2,0.3,4.9"/>
		<path class="st31" d="M519.4,433.3c-1.5,0-3,0-4.5,0c-2,0-3.4,0.7-3.3,2.9c0.1,4-0.5,8,0.7,13.5c5.4-8.7,12.7-8.6,20.5-8.6
			c72.2,0,144.4,0,216.6,0v-7.9C672.7,433.3,596,433.3,519.4,433.3z"/>
		<path class="st18" d="M852.4,353.8c0.1-3.5,1-7,2.4-10.3c1.3-6.4,2.5-12.9,3.8-19.3c-1.3,6.4-2.5,12.8-3.8,19.3
			C853.5,346.8,852.5,350.3,852.4,353.8z"/>
		<path class="st18" d="M859.8,369c0.2,0,0.3-0.1,0.5-0.1C860.1,369,860,369,859.8,369z"/>
		<path class="st18" d="M964.9,364.3c-0.6,1-1.6,1.5-2.9,1.3C963.3,365.8,964.3,365.2,964.9,364.3z"/>
		<path class="st18" d="M858.4,369.4c0.2,0,0.4-0.1,0.7-0.1C858.9,369.3,858.7,369.3,858.4,369.4z"/>
		<path class="st18" d="M1030.2,261.9c0,0.6-0.1,1.2-0.4,1.8c0,0,0,0,0,0C1030.1,263.1,1030.2,262.5,1030.2,261.9z"/>
		<path class="st18" d="M1030.4,418.2c0.1,0.9,0.2,1.8,0.3,2.6l0,0C1030.6,419.9,1030.5,419,1030.4,418.2z"/>
		<path class="st18" d="M977,257.8c1.2-1.5,2.3-3,3.5-4.5C979.3,254.8,978.1,256.3,977,257.8C977,257.8,977,257.8,977,257.8z"/>
		<path class="st18" d="M960.3,365L960.3,365c-2.2,9.1-6,13.7-12.9,14C954.3,378.7,958.2,374.1,960.3,365z"/>
		<path class="st18" d="M1029.8,460.2c-0.4,0.5-0.8,1.1-1.2,1.6C1029,461.3,1029.4,460.8,1029.8,460.2
			C1029.8,460.2,1029.8,460.2,1029.8,460.2z"/>
		<path class="st18" d="M1030.1,268.8c-0.1-1.4-0.2-2.7-0.2-4.1C1029.9,266,1030,267.4,1030.1,268.8z"/>
		<path class="st18" d="M1022,249.8c-0.9-0.5-1.9-0.8-2.9-1.1C1020.1,249,1021.1,249.4,1022,249.8z"/>
		<path class="st18" d="M977,265.8c3.3-4.3,7-7.7,11.6-9.1C983.9,258.1,980.3,261.5,977,265.8C977,265.8,977,265.8,977,265.8
			L977,265.8z"/>
		<polygon class="st19" points="827,207.3 827,207.3 827,207.3 		"/>
		<path class="st21" d="M1029.8,460.2l-0.1,0.2C1029.7,460.4,1029.8,460.3,1029.8,460.2C1029.8,460.2,1029.8,460.2,1029.8,460.2z"/>
		<path class="st21" d="M1029.5,455.7c0,1.1,0,2.3,1.4,2.8c0,0,0,0,0,0C1029.5,458,1029.4,456.8,1029.5,455.7z"/>
		<path class="st21" d="M1029.5,455.2c0,0.2,0,0.3,0,0.5C1029.5,455.5,1029.5,455.4,1029.5,455.2z"/>
		<path class="st21" d="M1029.8,263.7c0,0.3,0,0.6,0.1,1C1029.8,264.4,1029.8,264,1029.8,263.7L1029.8,263.7z"/>
		<path class="st21" d="M1030.3,275.5c0-2.2-0.1-4.4-0.2-6.7C1030.2,271,1030.3,273.2,1030.3,275.5z"/>
		<path class="st22" d="M958.4,493.6c-2.1,2.4,0.5,6.6-2.4,8.1c-3.4,1.8-7.6,0.8-11.5,0.6c-3.2-0.2-1.6-3.7-2.9-5.3
			c-1.2-13.4-2.4-26.7-3.5-40.1c0,0,0,0,0,0c5.8-0.5,11.5-0.9,17.3-0.5c1.9,0.1,3.8,0.4,5.8,0.7c-0.1,3-0.3,6.1-0.6,9.1
			c-0.3,3-0.7,6.1-1,9.1c-0.6,5.3-1.1,10.6-1.2,15.9C958.4,492.1,958.4,492.9,958.4,493.6z"/>
		<polygon class="st20" points="1029.8,460.2 1029.8,460.2 1029.8,460.2 		"/>
		<path class="st20" d="M1029.7,460.4c0,0,0.1-0.2,0.1-0.2c0,0,0,0,0,0C1029.8,460.3,1029.7,460.4,1029.7,460.4z"/>
		<polygon class="st23" points="827,207.3 827,207.3 827,207.3 		"/>
		<path class="st24" d="M1009.7,256.7c-3.8,0.6-8,0.8-11.7-0.1c-3.6-0.8-6.7-0.7-9.4,0.1c-4.6,1.4-8.3,4.7-11.6,9.1l0,0
			c0-0.7,0-1.5,0-2.2c-0.1-1.8-0.2-3.5-0.3-5.3c0.1-0.2,0.2-0.4,0.4-0.5c1.2-1.5,2.3-3,3.5-4.5l1.6-2.1c4.1-2.5,8.6-3.4,13.4-3.2
			c5.8,0.2,11.6,0.2,17.4,0c2.2-0.1,4.3,0.2,6.2,0.7c1,0.3,2,0.7,2.9,1.1c0.2,0.1,0.5,0.2,0.7,0.4c2.6,1.4,4.8,3.6,6.5,6.6
			c0.1,0.6,0.2,1.1,0.4,1.7c0.3,1.1,0.7,2.3,0.6,3.4c0,0.6-0.1,1.2-0.4,1.8C1024.1,258.6,1017.8,255.4,1009.7,256.7z"/>
		<path class="st25" d="M1022.7,250.2c-0.2-0.1-0.5-0.3-0.7-0.4C1022.2,249.9,1022.5,250.1,1022.7,250.2z"/>
		<path class="st25" d="M982.1,251.3C982.1,251.3,982.1,251.3,982.1,251.3l-1.6,2.1C981,252.6,981.5,251.9,982.1,251.3z"/>
		<path class="st25" d="M1030.2,261.9c0-1.2-0.3-2.3-0.6-3.4C1029.9,259.6,1030.3,260.8,1030.2,261.9z"/>
		<path class="st26" d="M976.7,255.6c0.1,0.7,0.2,1.5,0.3,2.2c0,0,0,0,0,0C976.9,257,976.8,256.3,976.7,255.6z"/>
		<path class="st26" d="M975.5,249.2c0,0.4,0,0.7,0,1.1C975.4,249.9,975.4,249.6,975.5,249.2z"/>
		<path class="st26" d="M976.9,263.6C976.9,263.6,976.9,263.6,976.9,263.6c0,0.7,0,1.5,0,2.2C977,265,976.9,264.3,976.9,263.6
			L976.9,263.6z"/>
		<path class="st27" d="M862.2,368.3c-0.6,0.2-1.3,0.4-1.9,0.6C860.9,368.7,861.6,368.4,862.2,368.3L862.2,368.3z"/>
		<path class="st27" d="M859.1,369.2c0.2-0.1,0.5-0.1,0.7-0.2C859.6,369.1,859.3,369.2,859.1,369.2z"/>
		<path class="st21" d="M976.6,258.3c0.1,1.8,0.2,3.5,0.3,5.3c0,0,0,0,0,0C976.8,261.8,976.7,260,976.6,258.3z"/>
		<path class="st28" d="M907.4,337.8c-17.2,4.4-34.8,6.4-52.6,5.7c1.3-6.4,2.5-12.9,3.8-19.3c3.4-16.6,3.9-33.4,5.6-50.2
			c0.8-8.5,6.9-13.3,15.5-12.7c2.6,0.2,5.2,0.9,7.7,1.5c16.4,3.9,33,6.5,49.9,7.8c8.9,0.7,18-0.4,26.8,2.2
			c7.5,5.3,8.8,12.2,6.3,20.7c-2,7.1-3.4,14.5-5,21.7c-6.5,0.3-11.2,4.9-16.5,7.6C935.6,329.7,921.6,334.2,907.4,337.8z"/>
		<path class="st29" d="M862.2,368.3c-5.4-2.7-9.6-6.5-9.8-13c0-0.5,0-1,0-1.5c0.1-3.5,1-7,2.4-10.3c17.8,0.7,35.3-1.2,52.6-5.7
			c14.2-3.7,28.2-8.1,41.4-14.9c5.3-2.8,10-7.4,16.5-7.6c-0.3,3-0.6,6-0.9,9c-3,13.4-3.7,27-4,40.7c-2.2,9.1-6,13.7-12.9,14
			c-2.3,0.1-4.9-0.2-8-1c-7.9-2.1-15.9-3.7-23.9-5C897.9,370.3,880.1,369.1,862.2,368.3C862.2,368.3,862.2,368.3,862.2,368.3z"/>
		<path class="st29" d="M862.2,368.3c17.9,0.9,35.7,2,53.3,4.8C897.9,370.3,880.1,369.1,862.2,368.3L862.2,368.3
			C862.2,368.3,862.2,368.3,862.2,368.3z"/>
		<path class="st30" d="M962,365.6c-0.5-0.1-1.1-0.3-1.7-0.6c0,0,0,0,0,0C960.9,365.3,961.5,365.5,962,365.6z"/>
		<path class="st18" d="M852.4,355.3c0-0.5,0-1,0-1.5c0.1-3.5,1-7,2.4-10.3c1.3-6.4,2.5-12.9,3.8-19.3c3.4-16.6,3.9-33.4,5.6-50.2
			c0.8-8.5,6.9-13.3,15.5-12.7c2.6,0.2,5.2,0.9,7.7,1.5c16.4,3.9,33,6.5,49.9,7.8c8.9,0.7,18-0.4,26.8,2.2
			c7.5,5.3,8.8,12.2,6.3,20.7c-2,7.1-3.4,14.5-5,21.7c-0.3,3-0.6,6-0.9,9c2.8,1.4,2.8,3.8,2.1,6.3c-0.5,1.7-0.5,3.2-0.3,4.9
			c0.9,8.9-0.5,17.8-0.7,26.6c0,0.8-0.2,1.5-0.6,2.1c-0.6,1-1.6,1.5-2.9,1.3c-0.5-0.1-1.1-0.3-1.7-0.6c-2.2,9.1-6,13.7-12.9,14
			c-2.3,0.1-4.9-0.2-8-1c-7.9-2.1-15.9-3.7-23.9-5c-17.6-2.8-35.5-4-53.3-4.8c-0.6,0.2-1.3,0.4-1.9,0.6c0.6-0.2,1.3-0.5,1.9-0.6
			C856.8,365.6,852.6,361.7,852.4,355.3z"/>
		<path class="st18" d="M1029.8,460.2C1029.8,460.2,1029.8,460.2,1029.8,460.2l-0.1,0.2C1029.7,460.4,1029.8,460.3,1029.8,460.2
			c-0.4,0.5-0.8,1.1-1.2,1.6C1029,461.3,1029.4,460.8,1029.8,460.2C1029.8,460.2,1029.8,460.2,1029.8,460.2z"/>
		<path class="st18" d="M965.5,362.1c0,0.8-0.2,1.5-0.6,2.1c-0.6,1-1.6,1.5-2.9,1.3c-0.5-0.1-1.1-0.3-1.7-0.6
			c-2.2,9.1-6,13.7-12.9,14c-2.3,0.1-4.9-0.2-8-1c-7.9-2.1-15.9-3.7-23.9-5c-17.6-2.8-35.5-4-53.3-4.8c-0.6,0.2-1.3,0.4-1.9,0.6
			c0.6-0.2,1.3-0.5,1.9-0.6c-5.4-2.7-9.6-6.5-9.8-13c0-0.5,0-1,0-1.5c0.1-3.5,1-7,2.4-10.3c1.3-6.4,2.5-12.9,3.8-19.3
			c3.4-16.6,3.9-33.4,5.6-50.2c0.8-8.5,6.9-13.3,15.5-12.7c2.6,0.2,5.2,0.9,7.7,1.5c16.4,3.9,33,6.5,49.9,7.8
			c8.9,0.7,18-0.4,26.8,2.2c7.5,5.3,8.8,12.2,6.3,20.7c-2,7.1-3.4,14.5-5,21.7c-0.3,3-0.6,6-0.9,9c2.8,1.4,2.8,3.8,2.1,6.3
			c-0.5,1.7-0.5,3.2-0.3,4.9"/>
		<path class="st24" d="M1030.6,420.8c-0.1-0.9-0.2-1.8-0.3-2.6c-0.2-1.7-0.1-3.4-0.1-5.1c0-45.9,0-91.8,0-137.6
			c0-2.2-0.1-4.4-0.2-6.7c-0.1-1.4-0.2-2.7-0.2-4.1c0-0.3,0-0.6-0.1-1v0c-5.7-5.1-12-8.3-20.1-7c-3.8,0.6-8,0.8-11.7-0.1
			c-3.6-0.8-6.7-0.7-9.4,0.1c-4.6,1.4-8.3,4.7-11.6,9.1c-1.4,1.3-1.4,3.1-1.1,4.7c1.4,7.3,0.2,14.6,0.8,22
			c0.6,7.4-0.8,14.9-0.8,22.3c-0.1,21.7,0,43.4-0.1,65.2c0,2.2,0.7,4.5-1.1,6.4c1,6.4,1.8,12.7,0.6,20.2c-6.1-6.2-13.1-5.7-20.1-5.7
			c-66.5,0-132.9,0.1-199.4-0.1c-4.2,0-8.1,0.3-11.3,2.1c-3.3-2-7.4-2.4-11.9-2.4c-66.5,0.1-132.9,0.1-199.4,0.1
			c-7,0-14-0.5-20.1,5.7c-1.1-7.5-0.4-13.9,0.6-20.2c-1.8-1.9-1.1-4.2-1.1-6.4c0-21.7,0.1-43.4-0.1-65.2c0-7.5-1.5-15-0.8-22.3
			c0.6-7.3-0.5-14.7,0.8-22c0.3-1.6,0.4-3.4-1.1-4.7c-3.3-4.3-7-7.7-11.6-9.1c-2.8-0.8-5.9-0.9-9.4-0.1c-3.7,0.9-7.9,0.7-11.7,0.1
			c-8.1-1.3-14.3,1.9-20.1,7v0c0,0.3,0,0.6-0.1,1c-0.1,1.4-0.2,2.7-0.2,4.1c-0.1,2.2-0.2,4.4-0.2,6.7c0,45.9,0,91.8,0,137.6
			c0,1.7,0.1,3.4-0.1,5.1c-0.1,0.9-0.2,1.8-0.3,2.6c-1.2,12.5-0.5,25.1-0.3,37.7c0,0,0,0,0,0c0,0,0,0,0,0c0.4,0.7,0.8,1.3,1.2,2
			l-0.1-0.2c0,0,0,0,0,0c0,0,0,0,0,0c0.4,0.5,0.8,1.1,1.2,1.6c2.5,0.8,5.1,1.2,7.7,1.1c15.2-0.1,30.4,0.1,45.6-0.1
			c75.3-0.8,150.6-1.1,225.9-1.2v0.3c78.7,0.1,157.4,0.4,236.1,1.2c15.2,0.2,30.4,0,45.6,0.1c2.7,0,5.2-0.4,7.7-1.1
			c0.4-0.5,0.8-1.1,1.2-1.6c0,0,0,0,0,0c0,0,0,0,0,0l-0.1,0.2c0.4-0.6,0.8-1.3,1.2-2c0,0,0,0,0,0c0,0,0,0,0,0
			C1031.2,445.9,1031.9,433.3,1030.6,420.8z M976.2,450.1c-5.4-8.7-12.7-8.6-20.5-8.6c-68.8,0-137.6,0-206.4,0v-0.3
			c-72.2,0-144.4,0-216.6,0c-7.7,0-15.1-0.1-20.5,8.6c-1.2-5.5-0.6-9.5-0.7-13.5c0-2.2,1.4-2.9,3.3-2.9c1.5,0,3,0,4.5,0
			c73.2,0,146.5,0,219.7,0v0.3c76.7,0,153.3,0,230,0c1.5,0,3,0,4.5,0c2,0,3.4,0.7,3.3,2.9C976.8,440.5,977.4,444.6,976.2,450.1z"/>
		<path class="st31" d="M974.7,386.4c-6.5-3.7-13.6-3.5-20.7-3.5c-66.6,0.1-133.3,0.1-199.9,0c-3.7,0-6.9,0.6-9.6,2.2
			c-2.8-1.9-6.2-2.6-10.1-2.6c-66.6,0.1-133.3,0.1-199.9,0c-7.1,0-14.2-0.2-20.7,3.5c-1,6.4-1.8,12.7-0.6,20.2
			c6.1-6.2,13.1-5.7,20.1-5.7c66.5,0,132.9,0.1,199.4-0.1c2.3,0,4.4,0.1,6.5,0.5c3.3,1.6,5,3.4,5.1,5.4c0.4-2.1,2.2-3.8,5.1-5.1
			c2-0.4,4.2-0.5,6.5-0.5c66.5,0.1,132.9,0.1,199.4,0.1c7,0,14-0.5,20.1,5.7C976.4,399.1,975.7,392.8,974.7,386.4z"/>
		<path class="st31" d="M969.1,433.7c1.5,0,3,0,4.5,0c2,0,3.4,0.7,3.3,2.9c-0.1,4,0.5,8-0.7,13.5c-5.4-8.7-12.7-8.6-20.5-8.6
			c-72.2,0-144.4,0-216.6,0v-7.9C815.7,433.7,892.4,433.7,969.1,433.7z"/>
	</g>
</g>
<g id="door_00000052071511299511589070000002868416161778254512_">
	<g id="door_00000045587497902171130900000009878506817756259492_">
		<path class="st32" d="M311.1,459.2H67.6V26c0-3.7,3-6.7,6.7-6.7h230.1c3.7,0,6.7,3,6.7,6.7V459.2z"/>
		<path class="st33" d="M296.8,450.1H81.9v-415c0-3.7,3-6.7,6.7-6.7h201.5c3.7,0,6.7,3,6.7,6.7V450.1z"/>
		<g>
			<path class="st34" d="M126.1,322.4h126.6c2.2,0,4,1.8,4,4v97.2c0,2.2-1.8,4-4,4H126.1c-2.2,0-4-1.8-4-4v-97.2
				C122,324.2,123.8,322.4,126.1,322.4z"/>
			<path class="st35" d="M122,423.6v-97.2c0-2.2,1.8-4,4-4h126.6c2.2,0,4,1.8,4,4"/>
		</g>
		<g>
			<path class="st34" d="M126.1,127.9h126.6c2.2,0,4,1.8,4,4v97.2c0,2.2-1.8,4-4,4H126.1c-2.2,0-4-1.8-4-4V132
				C122,129.7,123.8,127.9,126.1,127.9z"/>
			<path class="st35" d="M122,229.1V132c0-2.2,1.8-4,4-4h126.6c2.2,0,4,1.8,4,4"/>
		</g>
		<g>
			<path class="st34" d="M124.5,254.3h129.7c1.4,0,2.5,1.1,2.5,2.5v35.3c0,1.4-1.1,2.5-2.5,2.5H124.5c-1.4,0-2.5-1.1-2.5-2.5v-35.3
				C122,255.4,123.1,254.3,124.5,254.3z"/>
			<path class="st35" d="M122,293v-37.2c0-0.9,1.8-1.5,4-1.5h126.6c2.2,0,4,0.7,4,1.5"/>
		</g>
		<g>
			<path class="st0" d="M257.8,111.7c-0.1-40.7-30.7-64.1-68.4-64.1S121,71,121,111.7H257.8z"/>
			<polygon class="st1" points="167.5,112.4 155.2,111.5 200,47.7 211.2,49.8 			"/>
			<path class="st36" d="M257.8,111.7c-0.1-40.7-30.7-64.1-68.4-64.1S121,71,121,111.7H257.8z"/>
			<path class="st36" d="M222.1,111.5c0-19.5-14.7-30.6-32.7-30.6s-32.7,11.2-32.7,30.6H222.1z"/>
			<rect x="187.9" y="47.2" class="st37" width="2.3" height="65.2"/>
			
				<rect x="166.2" y="51.9" transform="matrix(0.766 -0.6428 0.6428 0.766 -16.0833 127.8196)" class="st37" width="2.6" height="68.1"/>
			
				<rect x="209.9" y="51.9" transform="matrix(-0.766 -0.6428 0.6428 -0.766 317.7542 287.6612)" class="st37" width="2.6" height="68.1"/>
		</g>
		<circle class="st38" cx="99.5" cy="263.6" r="11.4"/>
	</g>
</g>
<g id="Layer_2">
</g>
</svg>
