<?xml version="1.0" encoding="UTF-8"?><svg xmlns="http://www.w3.org/2000/svg" xmlns:xlink="http://www.w3.org/1999/xlink" viewBox="0 0 1105 748"><defs><style>.cls-1,.cls-2{fill:none;}.cls-3{stroke:#c67d54;}.cls-3,.cls-4{stroke-width:6.72px;}.cls-3,.cls-4,.cls-5{fill:#b5632c;}.cls-3,.cls-4,.cls-6,.cls-2{stroke-miterlimit:10;}.cls-4{stroke:#a65325;}.cls-7{fill:#faa51b;}.cls-8{fill:#6a2014;}.cls-9{fill:#68361a;}.cls-10{fill:#ee2834;}.cls-11{fill:#f26722;}.cls-12{fill:#ed1f25;}.cls-13{fill:#f69580;}.cls-14{fill:#e6f2f1;}.cls-15{fill:#edd7c5;}.cls-16{fill:#fff;}.cls-17{fill:#fd0;}.cls-18{fill:#ffeb00;}.cls-19{fill:#ffdc00;}.cls-20{fill:#f39a20;}.cls-21{fill:#fcb616;}.cls-22{fill:#fcb716;}.cls-23{fill:#fbb618;}.cls-24{fill:#7f7f79;}.cls-25{fill:#80c6e4;}.cls-26{fill:#7bc1e0;}.cls-27{fill:#8ed8f8;}.cls-28{fill:#8f4d2a;}.cls-29{fill:#a8d2cd;}.cls-30{fill:#b34a1a;}.cls-31{fill:#d95226;}.cls-32{fill:#a49c8e;}.cls-33{fill:#c1665a;}.cls-34{fill:#c9ebfc;}.cls-35{fill:#df2926;}.cls-36{fill:#d2c5ab;}.cls-37{fill:#d72126;}.cls-38{fill:#dbede8;}.cls-39{fill:#e36525;}.cls-40{fill:#ca591f;}.cls-41{fill:#e12126;}.cls-42{fill:#412600;}.cls-43{fill:#949993;}.cls-44{fill:#6c88b3;}.cls-45{fill:#58825f;}.cls-46{fill:#53473c;}.cls-47{fill:#7aa47a;}.cls-6{fill:#a65325;stroke:#774225;}.cls-6,.cls-2{stroke-width:2.69px;}.cls-2{stroke:#949993;}.cls-48{font-size:22.54px;}.cls-48,.cls-49,.cls-50,.cls-51{font-family:Dekko, Dekko;}.cls-48,.cls-51{fill:#693200;}.cls-49{fill:#6b001e;font-size:23.36px;}.cls-50{fill:#435369;}.cls-50,.cls-51{font-size:23.84px;}.cls-52{filter:url(#outer-glow-3);}.cls-53{filter:url(#outer-glow-1);}</style><filter id="outer-glow-1" filterUnits="userSpaceOnUse"><feOffset dx="0" dy="0"/><feGaussianBlur result="blur" stdDeviation="43"/><feFlood flood-color="#ef3835" flood-opacity="1"/><feComposite in2="blur" operator="in"/><feComposite in="SourceGraphic"/></filter><filter id="outer-glow-3" filterUnits="userSpaceOnUse"><feOffset dx="0" dy="0"/><feGaussianBlur result="blur-2" stdDeviation="20"/><feFlood flood-color="#ef4b7c" flood-opacity="1"/><feComposite in2="blur-2" operator="in"/><feComposite in="SourceGraphic"/></filter></defs><g id="living_room"><rect class="cls-36" x="0" y=".19" width="557.12" height="509.92"/><g><rect class="cls-47" x="982.38" y=".19" width="123.39" height="460.14"/><rect class="cls-45" x="1002.07" y=".19" width="17.07" height="460.14"/><rect class="cls-45" x="1034.89" y=".19" width="17.07" height="460.14"/><rect class="cls-45" x="1067.7" y=".19" width="17.07" height="460.14"/></g><g><rect class="cls-47" x="437.38" y=".19" width="123.39" height="463.34"/><rect class="cls-45" x="457.07" y=".19" width="17.07" height="463.34"/><rect class="cls-45" x="489.89" y=".19" width="17.07" height="463.34"/><rect class="cls-45" x="522.71" y=".19" width="17.07" height="463.34"/></g><rect class="cls-32" x="0" y="459.97" width="1104.96" height="288.03"/><g class="cls-53"><g><polygon class="cls-25" points="955.56 .19 782.18 250.44 768.11 240.69 934.75 .19 920.16 .19 746.78 250.44 732.71 240.69 899.35 .19 560.6 .19 560.6 403.32 981.84 403.32 981.84 .19 955.56 .19"/><polygon class="cls-27" points="746.78 250.44 920.16 .19 899.35 .19 732.71 240.69 746.78 250.44"/><polygon class="cls-27" points="782.18 250.44 955.56 .19 934.75 .19 768.11 240.69 782.18 250.44"/></g><g id="ray_2"><polygon class="cls-17" points="662.3 65.66 689.35 27.62 689.52 73.88 662.3 65.66"/><polygon class="cls-17" points="665.83 65.58 638.5 28.26 638.98 74.93 665.83 65.58"/><polygon class="cls-17" points="641.79 72.8 597.74 58.67 625.56 96.14 641.79 72.8"/><polygon class="cls-17" points="627.17 121.19 582.64 107.23 626.58 92.77 627.17 121.19"/><polygon class="cls-17" points="643.2 140.51 598.97 155.38 626.01 117.86 643.2 140.51"/><polygon class="cls-17" points="667.52 146.72 640.48 184.75 640.3 138.5 667.52 146.72"/><polygon class="cls-17" points="690.85 137.44 691.32 184.11 664 146.79 690.85 137.44"/><polygon class="cls-17" points="704.27 116.23 732.08 153.7 688.04 139.57 704.27 116.23"/><polygon class="cls-17" points="702.65 91.18 747.18 105.15 703.25 119.61 702.65 91.18"/><polygon class="cls-17" points="686.62 71.86 730.86 56.99 703.81 94.51 686.62 71.86"/></g><g id="ray_1"><polygon class="cls-17" points="676.45 60.98 719.5 29.02 703.27 79.62 676.45 60.98"/><polygon class="cls-17" points="680.33 62.15 663.72 11.67 647.67 62.83 680.33 62.15"/><polygon class="cls-17" points="651.5 61.5 608.39 30.43 625.48 81.24 651.5 61.5"/><polygon class="cls-17" points="618.35 109.18 574.66 78.12 627.8 77.92 618.35 109.18"/><polygon class="cls-17" points="629.01 135.98 575.4 136.53 618.27 105.13 629.01 135.98"/><polygon class="cls-17" points="653.38 151.39 610.33 183.35 626.56 132.75 653.38 151.39"/><polygon class="cls-17" points="682.15 149.54 666.11 200.7 649.5 150.22 682.15 149.54"/><polygon class="cls-17" points="704.34 131.13 721.43 181.95 678.32 150.87 704.34 131.13"/><polygon class="cls-17" points="711.47 103.19 755.17 134.26 702.03 134.46 711.47 103.19"/><polygon class="cls-17" points="700.82 76.39 754.43 75.84 711.56 107.24 700.82 76.39"/></g><circle class="cls-18" cx="664.91" cy="106.19" r="47.53"/><rect class="cls-46" x="779.18" width="10.28" height="437.54"/></g><g id="couch"><ellipse class="cls-24" cx="749.35" cy="502.51" rx="268.04" ry="12.22"/><path class="cls-30" d="M956.83,219.68h-194.56c-8.06,0-15.01,4.98-18.31,12.19-3.3-7.21-10.25-12.19-18.31-12.19h-194.56c-11.25,0-20.37,9.68-20.37,21.61v138.73c0,11.94,9.12,21.61,20.37,21.61h194.56c8.06,0,15.01-4.98,18.31-12.19,3.3,7.21,10.25,12.19,18.31,12.19h194.56c11.25,0,20.37-9.68,20.37-21.61V241.3c0-11.94-9.12-21.61-20.37-21.61Z"/><rect class="cls-39" x="509.59" y="229.24" width="232.08" height="171.49" rx="20.23" ry="20.23"/><rect class="cls-39" x="747.06" y="229.24" width="229.82" height="171.49" rx="20.13" ry="20.13"/><path class="cls-1" d="M636.02,353.44c-.12-3.52-1.05-6.98-2.42-10.29-1.26-6.43-2.49-12.86-3.79-19.27,1.3,6.42,2.53,12.85,3.79,19.27,1.38,3.31,2.31,6.77,2.42,10.29Z"/><path class="cls-1" d="M628.62,368.7c-.16-.05-.31-.1-.47-.15,.16,.05,.31,.1,.47,.15Z"/><path class="cls-1" d="M523.54,363.92c.57,.96,1.56,1.55,2.91,1.34-1.35,.21-2.34-.38-2.91-1.34Z"/><path class="cls-1" d="M629.98,369.01c-.22-.03-.45-.07-.67-.12,.22,.05,.45,.09,.67,.12Z"/><path class="cls-1" d="M458.21,261.58c.02,.58,.15,1.18,.44,1.78h0c-.29-.61-.41-1.2-.44-1.78Z"/><path class="cls-1" d="M458.05,417.82c-.11,.88-.18,1.75-.27,2.63h0c.09-.88,.16-1.75,.27-2.63Z"/><path class="cls-1" d="M511.44,257.42c-1.16-1.48-2.32-2.97-3.47-4.45,1.16,1.48,2.32,2.97,3.47,4.46,0,0,0,0,0,0Z"/><path class="cls-1" d="M465.73,249.85c-2.58,1.43-4.76,3.59-6.52,6.57-.97,.45-1.51,1.03-1.79,1.69,.28-.66,.82-1.24,1.79-1.69,1.76-2.98,3.95-5.13,6.52-6.57Z"/><path class="cls-1" d="M528.12,364.66h0c2.16,9.08,5.98,13.65,12.88,14.03-6.9-.38-10.73-4.95-12.88-14.03Z"/><path class="cls-1" d="M458.66,459.9c.4,.54,.8,1.07,1.2,1.61-.4-.54-.8-1.07-1.2-1.61,0,0,0,0,0,0Z"/><path class="cls-1" d="M458.36,268.45c.08-1.37,.16-2.75,.23-4.12-.07,1.37-.15,2.75-.23,4.12Z"/><path class="cls-1" d="M466.43,249.48c.93-.46,1.9-.83,2.93-1.11-1.03,.28-2,.65-2.93,1.11Z"/><path class="cls-1" d="M511.46,265.44c-3.31-4.33-6.97-7.71-11.57-9.08,4.6,1.37,8.25,4.75,11.57,9.08,0-.01,0-.02,0-.04v.04Z"/><polygon class="cls-14" points="661.4 206.94 661.4 206.94 661.4 206.94 661.4 206.94"/><path class="cls-38" d="M457.41,258.11c-.23,.53-.29,1.1-.28,1.69-.01-.59,.05-1.16,.28-1.69Z"/><path class="cls-12" d="M458.66,459.9l.11,.19s-.11-.19-.11-.19c0,0,0,0,0,0Z"/><path class="cls-12" d="M458.97,455.34c.01,1.13-.02,2.27-1.44,2.78,0,0,0,.01,0,.02,1.42-.52,1.45-1.67,1.44-2.8Z"/><path class="cls-12" d="M458.97,454.86c0,.16,0,.32,0,.48,0-.16,0-.32,0-.48Z"/><path class="cls-12" d="M458.65,263.37c-.02,.32-.04,.64-.05,.96,.02-.32,.04-.64,.05-.96h0Z"/><path class="cls-12" d="M458.12,275.12c0-2.22,.11-4.45,.24-6.67-.13,2.22-.24,4.45-.24,6.67Z"/><path class="cls-8" d="M530.01,493.3c2.14,2.38-.46,6.6,2.38,8.12,3.45,1.85,7.63,.84,11.46,.59,3.19-.2,1.64-3.65,2.85-5.31,1.18-13.35,2.36-26.71,3.54-40.06,0,0,0,0,0,0-5.76-.55-11.52-.87-17.28-.45-1.92,.14-3.84,.36-5.75,.68,.11,3.05,.35,6.08,.65,9.11s.66,6.06,1,9.09c.59,5.3,1.12,10.6,1.17,15.94,0,.76,0,1.53-.01,2.29Z"/><polygon class="cls-38" points="458.66 459.9 458.66 459.9 458.66 459.9 458.66 459.9"/><path class="cls-38" d="M458.77,460.09s-.11-.19-.11-.19h0s.11,.19,.11,.19Z"/><polygon class="cls-29" points="661.4 206.94 661.4 206.94 661.4 206.94 661.4 206.94"/><path class="cls-11" d="M478.71,256.35c3.83,.61,8.02,.82,11.74-.06,3.58-.85,6.68-.75,9.44,.07,4.6,1.37,8.25,4.75,11.57,9.08v-.04c.01-.73,.02-1.46,.04-2.19,.11-1.76,.22-3.53,.32-5.29-.08-.2-.21-.37-.38-.5-1.16-1.49-2.32-2.97-3.47-4.46l-1.61-2.06c-4.13-2.45-8.56-3.41-13.38-3.24-5.79,.2-11.59,.18-17.38,.02-2.24-.06-4.33,.16-6.24,.68-1.03,.28-2,.65-2.93,1.11-.24,.12-.47,.24-.7,.37-2.58,1.43-4.76,3.59-6.52,6.57-.06,.58-.2,1.15-.35,1.72-.31,1.14-.68,2.28-.64,3.45,.02,.58,.15,1.18,.44,1.78,5.72-5.09,11.97-8.3,20.06-7.02Z"/><path class="cls-10" d="M465.73,249.85c.23-.13,.46-.25,.7-.37-.24,.12-.47,.24-.7,.37Z"/><path class="cls-10" d="M506.36,250.91h0s1.61,2.06,1.61,2.06c-.53-.69-1.07-1.37-1.6-2.06Z"/><path class="cls-10" d="M458.21,261.58c-.04-1.17,.33-2.31,.64-3.45-.31,1.14-.68,2.28-.64,3.45Z"/><path class="cls-37" d="M511.71,255.21c-.09,.74-.18,1.47-.28,2.21h0c.09-.74,.18-1.47,.28-2.21Z"/><path class="cls-37" d="M512.96,248.85c.02,.37,.02,.73,.01,1.1,0-.36,0-.73-.01-1.1Z"/><path class="cls-37" d="M511.49,263.22s0,0,0,0c-.01,.73-.02,1.46-.04,2.19,.01-.73,.02-1.46,.04-2.19h0Z"/><path class="cls-41" d="M626.22,367.92c.64,.18,1.29,.42,1.93,.63-.64-.22-1.29-.46-1.93-.63h0Z"/><path class="cls-41" d="M629.31,368.89c-.23-.05-.46-.12-.69-.19,.23,.07,.46,.13,.69,.19Z"/><path class="cls-7" d="M581.03,337.48c17.22,4.44,34.76,6.4,52.57,5.68-1.26-6.42-2.49-12.86-3.79-19.27-3.35-16.55-3.93-33.41-5.56-50.16-.82-8.49-6.94-13.33-15.48-12.66-2.59,.2-5.16,.86-7.71,1.46-16.42,3.9-32.98,6.55-49.85,7.81-8.92,.66-18.02-.42-26.78,2.21-7.51,5.26-8.75,12.25-6.33,20.7,2.05,7.14,3.39,14.49,5.05,21.75,6.53,.26,11.16,4.87,16.51,7.62,13.19,6.78,27.14,11.2,41.37,14.86Z"/><path class="cls-20" d="M626.22,367.92c5.42-2.7,9.58-6.52,9.8-12.97,.02-.5,.02-1.01,0-1.51-.12-3.52-1.05-6.98-2.42-10.29-17.81,.72-35.35-1.24-52.57-5.68-14.23-3.67-28.18-8.08-41.37-14.86-5.35-2.75-9.98-7.36-16.51-7.62,.31,2.98,.62,5.97,.93,8.95,3.05,13.4,3.75,27.04,4.04,40.72,2.16,9.08,5.98,13.65,12.88,14.03,2.3,.13,4.94-.21,7.98-1.01,7.92-2.07,15.9-3.68,23.91-4.95,17.63-2.8,35.45-3.96,53.32-4.81,0,0,0,0,0,0Z"/><path class="cls-20" d="M626.22,367.92c-17.87,.85-35.69,2.02-53.32,4.81,17.63-2.8,35.45-3.96,53.33-4.81h0s0,0,0,0Z"/><path class="cls-35" d="M526.45,365.25c.51-.08,1.06-.27,1.67-.59h0c-.61,.32-1.16,.51-1.67,.59Z"/><path class="cls-1" d="M458.66,459.9s0,0,0,0l.11,.19s-.11-.19-.11-.19c.4,.54,.8,1.07,1.2,1.61-.4-.54-.8-1.07-1.2-1.61,0,0,0,0,0,0Z"/><path class="cls-1" d="M522.97,361.78c.02,.79,.21,1.54,.57,2.14,.57,.96,1.56,1.55,2.91,1.34,.51-.08,1.06-.27,1.67-.59,2.16,9.08,5.98,13.65,12.88,14.03,2.3,.13,4.94-.21,7.98-1.01,7.92-2.07,15.9-3.68,23.91-4.95,17.63-2.8,35.45-3.96,53.33-4.81,.64,.18,1.29,.42,1.93,.63-.64-.22-1.29-.46-1.93-.63,5.42-2.7,9.58-6.52,9.8-12.97,.02-.5,.02-1.01,0-1.51-.12-3.52-1.05-6.98-2.42-10.29-1.26-6.43-2.49-12.86-3.79-19.27-3.35-16.55-3.93-33.41-5.56-50.16-.82-8.49-6.94-13.33-15.48-12.66-2.59,.2-5.16,.86-7.71,1.46-16.42,3.9-32.98,6.55-49.85,7.81-8.92,.66-18.02-.42-26.78,2.21-7.51,5.26-8.75,12.25-6.33,20.7,2.05,7.14,3.39,14.49,5.05,21.75,.31,2.98,.62,5.97,.93,8.95-2.81,1.38-2.8,3.77-2.09,6.26,.48,1.66,.49,3.21,.31,4.94"/><path class="cls-31" d="M519.35,433.32c-1.5,0-3,.03-4.51,.02-1.95,0-3.35,.69-3.32,2.88,.06,3.97-.54,8,.7,13.49,5.35-8.71,12.74-8.58,20.49-8.58,72.21,.03,144.43,.03,216.64,.04v-7.86c-76.67,0-153.33,0-230,0Z"/><path class="cls-1" d="M852.4,353.79c.12-3.52,1.05-6.98,2.42-10.29,1.26-6.43,2.49-12.86,3.79-19.27-1.3,6.42-2.53,12.85-3.79,19.27-1.38,3.31-2.31,6.77-2.42,10.29Z"/><path class="cls-1" d="M859.81,369.05c.16-.05,.31-.1,.47-.15-.16,.05-.31,.1-.47,.15Z"/><path class="cls-1" d="M964.88,364.26c-.57,.96-1.56,1.55-2.91,1.34,1.35,.21,2.34-.38,2.91-1.34Z"/><path class="cls-1" d="M858.45,369.36c.22-.03,.45-.07,.67-.12-.22,.05-.45,.09-.67,.12Z"/><path class="cls-1" d="M1030.21,261.93c-.02,.58-.15,1.18-.44,1.78h0c.29-.61,.41-1.2,.44-1.78Z"/><path class="cls-1" d="M1030.37,418.16c.11,.88,.18,1.75,.27,2.63h0c-.09-.88-.16-1.75-.27-2.63Z"/><path class="cls-1" d="M976.99,257.77c1.16-1.48,2.32-2.97,3.47-4.45-1.16,1.48-2.32,2.97-3.47,4.46,0,0,0,0,0,0Z"/><path class="cls-1" d="M960.31,365.01h0c-2.16,9.08-5.98,13.65-12.88,14.03,6.9-.38,10.73-4.95,12.88-14.03Z"/><path class="cls-1" d="M1029.76,460.25c-.4,.54-.8,1.07-1.2,1.61,.4-.54,.8-1.07,1.2-1.61,0,0,0,0,0,0Z"/><path class="cls-1" d="M1030.06,268.79c-.08-1.37-.16-2.75-.23-4.12,.07,1.37,.15,2.75,.23,4.12Z"/><path class="cls-1" d="M1022,249.83c-.93-.46-1.9-.83-2.93-1.11,1.03,.28,2,.65,2.93,1.11Z"/><path class="cls-1" d="M976.97,265.79c3.31-4.33,6.97-7.71,11.57-9.08-4.6,1.37-8.25,4.75-11.57,9.08,0-.01,0-.02,0-.04v.04Z"/><polygon class="cls-14" points="827.03 207.29 827.03 207.29 827.03 207.29 827.03 207.29"/><path class="cls-12" d="M1029.76,460.24l-.11,.19s.11-.19,.11-.19c0,0,0,0,0,0Z"/><path class="cls-12" d="M1029.45,455.69c-.01,1.13,.02,2.27,1.44,2.78,0,0,0,.01,0,.02-1.42-.52-1.45-1.67-1.44-2.8Z"/><path class="cls-12" d="M1029.46,455.2c0,.16,0,.32,0,.48,0-.16,0-.32,0-.48Z"/><path class="cls-12" d="M1029.78,263.71c.02,.32,.04,.64,.05,.96-.02-.32-.04-.64-.05-.96h0Z"/><path class="cls-12" d="M1030.3,275.47c0-2.22-.11-4.45-.24-6.67,.13,2.22,.24,4.45,.24,6.67Z"/><path class="cls-8" d="M958.42,493.65c-2.14,2.38,.46,6.6-2.38,8.12-3.45,1.85-7.63,.84-11.46,.59-3.19-.2-1.64-3.65-2.85-5.31-1.18-13.35-2.36-26.71-3.54-40.06,0,0,0,0,0,0,5.76-.55,11.52-.87,17.28-.45,1.92,.14,3.84,.36,5.75,.68-.11,3.05-.35,6.08-.65,9.11s-.66,6.06-1,9.09c-.59,5.3-1.12,10.6-1.17,15.94,0,.76,0,1.53,.01,2.29Z"/><polygon class="cls-38" points="1029.76 460.25 1029.76 460.25 1029.76 460.24 1029.76 460.25"/><path class="cls-38" d="M1029.65,460.44s.11-.19,.11-.19h0s-.11,.19-.11,.19Z"/><polygon class="cls-29" points="827.03 207.29 827.03 207.29 827.03 207.29 827.03 207.29"/><path class="cls-11" d="M1009.72,256.69c-3.83,.61-8.02,.82-11.74-.06-3.58-.85-6.68-.75-9.44,.07-4.6,1.37-8.25,4.75-11.57,9.08v-.04c-.01-.73-.02-1.46-.04-2.19-.11-1.76-.22-3.53-.32-5.29,.08-.2,.21-.37,.38-.5,1.16-1.49,2.32-2.97,3.47-4.46l1.61-2.06c4.13-2.45,8.56-3.41,13.38-3.24,5.79,.2,11.59,.18,17.38,.02,2.24-.06,4.33,.16,6.24,.68,1.03,.28,2,.65,2.93,1.11,.24,.12,.47,.24,.7,.37,2.58,1.43,4.76,3.59,6.52,6.57,.06,.58,.2,1.15,.35,1.72,.31,1.14,.68,2.28,.64,3.45-.02,.58-.15,1.18-.44,1.78-5.72-5.09-11.97-8.3-20.06-7.02Z"/><path class="cls-10" d="M1022.7,250.2c-.23-.13-.46-.25-.7-.37,.24,.12,.47,.24,.7,.37Z"/><path class="cls-10" d="M982.07,251.26h0s-1.61,2.06-1.61,2.06c.53-.69,1.07-1.37,1.6-2.06Z"/><path class="cls-10" d="M1030.21,261.93c.04-1.17-.33-2.31-.64-3.45,.31,1.14,.68,2.28,.64,3.45Z"/><path class="cls-37" d="M976.71,255.56c.09,.74,.18,1.47,.28,2.21h0c-.09-.74-.18-1.47-.28-2.21Z"/><path class="cls-37" d="M975.46,249.2c-.02,.37-.02,.73-.01,1.1,0-.36,0-.73,.01-1.1Z"/><path class="cls-37" d="M976.93,263.56s0,0,0,0c.01,.73,.02,1.46,.04,2.19-.01-.73-.02-1.46-.04-2.19h0Z"/><path class="cls-41" d="M862.21,368.27c-.64,.18-1.29,.42-1.93,.63,.64-.22,1.29-.46,1.93-.63h0Z"/><path class="cls-41" d="M859.12,369.23c.23-.05,.46-.12,.69-.19-.23,.07-.46,.13-.69,.19Z"/><path class="cls-12" d="M976.61,258.27c.11,1.76,.22,3.53,.32,5.29,0,0,0,0,0,0-.11-1.76-.22-3.53-.32-5.29Z"/><path class="cls-7" d="M907.4,337.82c-17.22,4.44-34.76,6.4-52.57,5.68,1.26-6.42,2.49-12.86,3.79-19.27,3.35-16.55,3.93-33.41,5.56-50.16,.82-8.49,6.94-13.33,15.48-12.66,2.59,.2,5.16,.86,7.71,1.46,16.42,3.9,32.98,6.55,49.85,7.81,8.92,.66,18.02-.42,26.78,2.21,7.51,5.26,8.75,12.25,6.33,20.7-2.05,7.14-3.39,14.49-5.05,21.75-6.53,.26-11.16,4.87-16.51,7.62-13.19,6.78-27.14,11.2-41.37,14.86Z"/><path class="cls-20" d="M862.21,368.27c-5.42-2.7-9.58-6.52-9.8-12.97-.02-.5-.02-1.01,0-1.51,.12-3.52,1.05-6.98,2.42-10.29,17.81,.72,35.35-1.24,52.57-5.68,14.23-3.67,28.18-8.08,41.37-14.86,5.35-2.75,9.98-7.36,16.51-7.62-.31,2.98-.62,5.97-.93,8.95-3.05,13.4-3.75,27.04-4.04,40.72-2.16,9.08-5.98,13.65-12.88,14.03-2.3,.13-4.94-.21-7.98-1.01-7.92-2.07-15.9-3.68-23.91-4.95-17.63-2.8-35.45-3.96-53.32-4.81,0,0,0,0,0,0Z"/><path class="cls-20" d="M862.21,368.27c17.87,.85,35.69,2.02,53.32,4.81-17.63-2.8-35.45-3.96-53.33-4.81h0s0,0,0,0Z"/><path class="cls-35" d="M961.98,365.6c-.51-.08-1.06-.27-1.67-.59h0c.61,.32,1.16,.51,1.67,.59Z"/><path class="cls-1" d="M852.41,355.3c-.02-.5-.02-1.01,0-1.51,.12-3.52,1.05-6.98,2.42-10.29,1.26-6.43,2.49-12.86,3.79-19.27,3.35-16.55,3.93-33.41,5.56-50.16,.82-8.49,6.94-13.33,15.48-12.66,2.59,.2,5.16,.86,7.71,1.46,16.42,3.9,32.98,6.55,49.85,7.81,8.92,.66,18.02-.42,26.78,2.21,7.51,5.26,8.75,12.25,6.33,20.7-2.05,7.14-3.39,14.49-5.05,21.75-.31,2.98-.62,5.97-.93,8.95,2.81,1.38,2.8,3.77,2.09,6.26-.48,1.66-.49,3.21-.31,4.94,.91,8.89-.46,17.76-.67,26.64-.02,.79-.21,1.54-.57,2.14-.57,.96-1.56,1.55-2.91,1.34-.51-.08-1.06-.27-1.67-.59-2.16,9.08-5.98,13.65-12.88,14.03-2.3,.13-4.94-.21-7.98-1.01-7.92-2.07-15.9-3.68-23.91-4.95-17.63-2.8-35.45-3.96-53.33-4.81-.64,.18-1.29,.42-1.93,.63,.64-.22,1.29-.46,1.93-.63-5.42-2.7-9.58-6.52-9.8-12.97Z"/><path class="cls-1" d="M1029.76,460.25s0,0,0,0l-.11,.19s.11-.19,.11-.19c-.4,.54-.8,1.07-1.2,1.61,.4-.54,.8-1.07,1.2-1.61,0,0,0,0,0,0Z"/><path class="cls-1" d="M965.45,362.12c-.02,.79-.21,1.54-.57,2.14-.57,.96-1.56,1.55-2.91,1.34-.51-.08-1.06-.27-1.67-.59-2.16,9.08-5.98,13.65-12.88,14.03-2.3,.13-4.94-.21-7.98-1.01-7.92-2.07-15.9-3.68-23.91-4.95-17.63-2.8-35.45-3.96-53.33-4.81-.64,.18-1.29,.42-1.93,.63,.64-.22,1.29-.46,1.93-.63-5.42-2.7-9.58-6.52-9.8-12.97-.02-.5-.02-1.01,0-1.51,.12-3.52,1.05-6.98,2.42-10.29,1.26-6.43,2.49-12.86,3.79-19.27,3.35-16.55,3.93-33.41,5.56-50.16,.82-8.49,6.94-13.33,15.48-12.66,2.59,.2,5.16,.86,7.71,1.46,16.42,3.9,32.98,6.55,49.85,7.81,8.92,.66,18.02-.42,26.78,2.21,7.51,5.26,8.75,12.25,6.33,20.7-2.05,7.14-3.39,14.49-5.05,21.75-.31,2.98-.62,5.97-.93,8.95,2.81,1.38,2.8,3.77,2.09,6.26-.48,1.66-.49,3.21-.31,4.94"/><path class="cls-11" d="M1030.64,420.79c-.09-.88-.16-1.75-.27-2.63-.2-1.66-.06-3.37-.06-5.05,0-45.88,.02-91.76-.01-137.65,0-2.22-.11-4.45-.24-6.67-.08-1.37-.16-2.75-.23-4.12-.02-.32-.04-.64-.05-.96h0c-5.72-5.09-11.97-8.3-20.06-7.02-3.83,.61-8.02,.82-11.74-.06-3.58-.85-6.68-.75-9.44,.07-4.6,1.37-8.25,4.75-11.57,9.08-1.44,1.33-1.36,3.15-1.06,4.73,1.36,7.28,.2,14.63,.82,21.97,.63,7.36-.79,14.88-.83,22.33-.14,21.72-.03,43.45-.08,65.17,0,2.17,.71,4.54-1.13,6.42,1.03,6.36,1.75,12.73,.62,20.24-6.1-6.18-13.1-5.68-20.07-5.67-66.47,.04-132.94,.09-199.41-.06-4.22,0-8.09,.34-11.31,2.07-3.34-2.03-7.44-2.42-11.92-2.41-66.47,.15-132.94,.1-199.41,.06-6.97,0-13.97-.51-20.07,5.67-1.13-7.51-.41-13.88,.62-20.24-1.84-1.88-1.13-4.25-1.13-6.42-.05-21.72,.06-43.45-.08-65.17-.05-7.45-1.46-14.97-.83-22.33,.63-7.34-.53-14.69,.82-21.97,.3-1.59,.38-3.4-1.06-4.73-3.31-4.33-6.97-7.71-11.57-9.08-2.76-.82-5.86-.92-9.44-.07-3.72,.88-7.91,.66-11.74,.06-8.09-1.28-14.34,1.93-20.06,7.02h0c-.02,.32-.04,.64-.05,.96-.07,1.37-.15,2.75-.23,4.12-.13,2.22-.24,4.45-.24,6.67-.03,45.88-.02,91.76-.01,137.65,0,1.69,.15,3.39-.06,5.05-.11,.88-.18,1.75-.27,2.63-1.25,12.55-.54,25.11-.26,37.67,0,0,0,0,0,0,0,0,0,.01,0,.02,.42,.66,.83,1.31,1.24,1.95l-.11-.19s0,0,0,0c0,0,0,0,0,0,.4,.54,.8,1.07,1.2,1.61,2.52,.76,5.06,1.15,7.73,1.14,15.21-.08,30.42,.09,45.62-.06,75.28-.77,150.57-1.09,225.85-1.19v.33c78.71,.08,157.42,.4,236.14,1.21,15.21,.16,30.42-.02,45.62,.06,2.67,.01,5.21-.38,7.73-1.14,.4-.54,.8-1.07,1.2-1.61,0,0,0,0,0,0,0,0,0,0,0,0l-.11,.19c.41-.65,.82-1.29,1.24-1.95,0,0,0-.01,0-.02,0,0,0,0,0,0,.28-12.56,.99-25.13-.26-37.67Zm-54.44,29.26c-5.35-8.71-12.74-8.58-20.49-8.58-68.79,.03-137.57,.03-206.36,.04v-.34c-72.21-.01-144.43-.01-216.64-.04-7.74,0-15.13-.13-20.49,8.58-1.24-5.49-.64-9.52-.7-13.49-.04-2.19,1.37-2.88,3.32-2.88,1.5,0,3-.02,4.51-.02,73.24,0,146.48,0,219.72,0v.35c76.67,0,153.33,0,230,0,1.5,0,3,.03,4.51,.02,1.95,0,3.35,.69,3.32,2.88-.06,3.97,.54,8-.7,13.49Z"/><path class="cls-31" d="M974.69,386.41c-6.47-3.74-13.56-3.5-20.71-3.5-66.63,.07-133.26,.1-199.89-.04-3.73,0-6.94,.55-9.62,2.23-2.77-1.95-6.16-2.59-10.13-2.58-66.63,.14-133.26,.1-199.89,.04-7.14,0-14.24-.24-20.71,3.5-1.03,6.36-1.75,12.73-.62,20.24,6.1-6.18,13.1-5.68,20.07-5.67,66.47,.04,132.94,.09,199.41-.06,2.27,0,4.45,.1,6.48,.46,3.34,1.6,4.95,3.43,5.14,5.44,.44-2.08,2.23-3.75,5.14-5.09,2.03-.36,4.2-.46,6.48-.46,66.47,.15,132.94,.1,199.41,.06,6.97,0,13.97-.51,20.07,5.67,1.13-7.51,.41-13.88-.62-20.24Z"/><path class="cls-31" d="M969.07,433.66c1.5,0,3,.03,4.51,.02,1.95,0,3.35,.69,3.32,2.88-.06,3.97,.54,8-.7,13.49-5.35-8.71-12.74-8.58-20.49-8.58-72.21,.03-144.43,.03-216.64,.04v-7.86c76.67,0,153.33,0,230,0Z"/></g><g id="half_food_bowl"><ellipse class="cls-24" cx="793.78" cy="693.58" rx="74.28" ry="18.07"/><path class="cls-40" d="M793.55,642.07c18.41,0,35.93,1.08,49.33,3.04,6.4,.94,11.51,2.02,15.18,3.22,4.35,1.42,5.14,2.54,5.25,2.75-.11,.21-.91,1.33-5.25,2.75-3.67,1.2-8.78,2.28-15.18,3.22-13.4,1.96-30.91,3.04-49.33,3.04s-35.93-1.08-49.33-3.04c-6.4-.94-11.51-2.02-15.18-3.22-4.35-1.42-5.14-2.54-5.25-2.75,.11-.21,.91-1.33,5.25-2.75,3.67-1.2,8.78-2.28,15.18-3.22,13.4-1.96,30.91-3.04,49.33-3.04"/><path class="cls-30" d="M729.41,648.41c3.66-1.2,8.75-2.28,15.14-3.22,13.36-1.96,30.83-3.04,49.2-3.04s35.83,1.08,49.2,3.04c6.39,.94,11.48,2.02,15.14,3.22,3.29,1.08,4.54,1.98,5,2.45,.52-.29,1.01-.64,1.47-1.05-4.46-5.23-34.46-9.44-70.8-9.44s-66.44,4.22-70.82,9.47c.58,.2,1.1,.54,1.64,.89,.56-.49,1.86-1.33,4.85-2.31Z"/><path class="cls-9" d="M863.66,666.4c0-2.98-2.42-5.4-5.4-5.4-1.06,0-2.04,.31-2.88,.84-.02-2.96-2.43-5.36-5.39-5.36-1.85,0-3.49,.94-4.46,2.36-.27-2.73-2.57-4.86-5.37-4.86-2.5,0-4.59,1.7-5.21,4-.84-1.89-2.73-3.22-4.94-3.22-1.62,0-3.07,.72-4.06,1.85-.39-2.59-2.63-4.58-5.33-4.58-2.26,0-4.19,1.39-4.99,3.35-.81-1.97-2.74-3.35-4.99-3.35s-4.21,1.4-5.01,3.39c-.89-1.77-2.71-2.99-4.82-2.99-2.35,0-4.34,1.5-5.08,3.6-.84-1.89-2.73-3.21-4.93-3.21-2.06,0-3.85,1.15-4.76,2.85-.73-2.12-2.73-3.64-5.1-3.64-1.94,0-3.64,1.03-4.59,2.57-.99-1.09-2.41-1.77-3.99-1.77-2.32,0-4.29,1.46-5.05,3.52-.9-1.72-2.7-2.89-4.78-2.89-2.64,0-4.83,1.9-5.3,4.4-.98-1.36-2.57-2.24-4.37-2.24s-3.54,.97-4.51,2.43c-.93-1.64-2.68-2.75-4.7-2.75-2.5,0-4.59,1.7-5.21,4-.97-.91-2.26-1.46-3.69-1.46-2.08,0-3.88,1.17-4.78,2.89-2.71,.28-4.83,2.58-4.83,5.37,0,2.98,2.42,5.4,5.4,5.4,.73,0,1.42-.15,2.06-.41,.94,1.61,2.67,2.69,4.66,2.69,1.32,0,2.53-.47,3.46-1.26,.98,1.05,2.38,1.72,3.94,1.72,1.15,0,2.22-.36,3.09-.98,.2,.09,.4,.18,.6,.24,6.47,5.17,27.52,8.96,52.49,8.96s44.01-3.44,51.47-8.23c.45,.12,.93,.19,1.42,.19,1.96,0,3.67-1.05,4.62-2.62,2.94-.05,5.3-2.44,5.3-5.39Zm-105.19-4.01c-.15,.04-.29,.08-.44,.12,.05-.17,.09-.34,.12-.52,.1,.14,.2,.27,.31,.39Z"/><circle class="cls-9" cx="851.15" cy="654.8" r="5.4"/><circle class="cls-28" cx="733.02" cy="654.67" r="5.4"/><circle class="cls-42" cx="767.09" cy="656.25" r="5.4"/><circle class="cls-9" cx="741.79" cy="657.25" r="5.4"/><circle class="cls-42" cx="824.36" cy="656.25" r="5.4"/><circle class="cls-42" cx="795.92" cy="657.25" r="5.4"/><circle class="cls-9" cx="810.83" cy="658.22" r="5.4"/><g><path class="cls-11" d="M865.07,650.64c.42,7.48,2.98,26.67,3.19,35.92,0,7.66-33.21,14.22-74.25,14.22s-74.51-7.09-74.51-14.74c.35-9.12,2.77-28.19,3.18-35.4,0,5.84,32.2,10.57,71.33,10.57s71.06-4.73,71.06-10.57Z"/><text class="cls-51" transform="translate(766.96 688.79) rotate(4.12)"><tspan x="0" y="0">F</tspan></text><text class="cls-51" transform="translate(778.79 689.67) rotate(.85)"><tspan x="0" y="0">O</tspan></text><text class="cls-51" transform="translate(793.87 689.87) rotate(-2.52)"><tspan x="0" y="0">O</tspan></text><text class="cls-51" transform="translate(809 689.18) rotate(-6.13)"><tspan x="0" y="0">D</tspan></text></g><path class="cls-30" d="M864.56,649.41c-.46,.4-.95,.76-1.47,1.05,.14,.15,.21,.25,.24,.3-.11,.21-.9,1.33-5.23,2.75-3.65,1.2-8.74,2.28-15.11,3.22-13.34,1.96-30.78,3.04-49.11,3.04s-35.77-1.08-49.11-3.04c-6.38-.94-11.46-2.02-15.11-3.22-4.33-1.42-5.11-2.54-5.23-2.75,.03-.06,.13-.22,.38-.44-.53-.35-1.05-.68-1.63-.89-.36,.43-.55,.88-.55,1.32,0,5.84,31.9,10.79,71.25,10.79s71.25-4.95,71.25-10.79c0-.45-.19-.9-.57-1.35Z"/></g><g id="half_water_bowl"><ellipse class="cls-24" cx="988.44" cy="693.58" rx="74.28" ry="18.07"/><path class="cls-44" d="M988.21,642.07c18.41,0,35.93,1.08,49.33,3.04,6.4,.94,11.51,2.02,15.18,3.22,4.35,1.42,5.14,2.54,5.25,2.75-.11,.21-.91,1.33-5.25,2.75-3.67,1.2-8.78,2.28-15.18,3.22-13.4,1.96-30.91,3.04-49.33,3.04s-35.93-1.08-49.33-3.04c-6.4-.94-11.51-2.02-15.18-3.22-4.35-1.42-5.14-2.54-5.25-2.75,.11-.21,.91-1.33,5.25-2.75,3.67-1.2,8.78-2.28,15.18-3.22,13.4-1.96,30.91-3.04,49.33-3.04"/><path class="cls-44" d="M924.07,648.41c3.66-1.2,8.75-2.28,15.14-3.22,13.36-1.96,30.83-3.04,49.2-3.04s35.83,1.08,49.2,3.04c6.39,.94,11.48,2.02,15.14,3.22,3.29,1.08,4.54,1.98,5,2.45,.52-.29,1.01-.64,1.47-1.05-4.46-5.23-34.46-9.44-70.8-9.44s-66.44,4.22-70.82,9.47c.58,.2,1.1,.54,1.64,.89,.56-.49,1.86-1.33,4.85-2.31Z"/><g><path class="cls-27" d="M988.21,648.78c18.41,0,35.93,1.08,49.33,3.04,6.4,.94,11.51,2.02,15.18,3.22,4.35,1.42,5.14,2.54,5.25,2.75-.11,.21-.91,1.33-5.25,2.75-3.67,1.2-8.78,2.28-15.18,3.22-13.4,1.96-30.91,3.04-49.33,3.04s-35.93-1.08-49.33-3.04c-6.4-.94-11.51-2.02-15.18-3.22-4.35-1.42-5.14-2.54-5.25-2.75,.11-.21,.91-1.33,5.25-2.75,3.67-1.2,8.78-2.28,15.18-3.22,13.4-1.96,30.91-3.04,49.33-3.04"/><path class="cls-34" d="M938.92,660.14c0-2.06,2.71-4.03,7.64-5.53,2.35-.72,5.08-1.29,8.1-1.7,1.88-.26,3.55-.4,4.78-.48-1.51-.07-3.06-.1-4.62-.1-6.64,0-12.96,.63-17.79,1.77-2.31,.54-4.15,1.18-5.47,1.87-1.57,.83-1.85,1.48-1.89,1.6,.04,.12,.33,.77,1.89,1.6,1.32,.7,3.16,1.33,5.47,1.87,.74,.17,1.51,.33,2.31,.48-.27-.45-.42-.91-.42-1.38Z"/></g><g><path class="cls-26" d="M1059.72,650.64c.42,7.48,2.98,26.67,3.19,35.92,0,7.66-33.21,14.22-74.25,14.22s-74.51-7.09-74.51-14.74c.35-9.12,2.77-28.19,3.18-35.4,0,5.84,32.2,10.57,71.33,10.57s71.06-4.73,71.06-10.57Z"/><text class="cls-50" transform="translate(955.1 687.07) rotate(7.46)"><tspan x="0" y="0">W</tspan></text><text class="cls-50" transform="translate(970.21 688.99) rotate(3.36)"><tspan x="0" y="0">A</tspan></text><text class="cls-50" transform="translate(984.51 689.76) rotate(.38)"><tspan x="0" y="0">T</tspan></text><text class="cls-50" transform="translate(995.06 689.84) rotate(-2.1)"><tspan x="0" y="0">E</tspan></text><text class="cls-50" transform="translate(1007.09 689.4) rotate(-5.1)"><tspan x="0" y="0">R</tspan></text></g><path class="cls-44" d="M1059.21,649.41c-.46,.4-.95,.76-1.47,1.05,.14,.15,.21,.25,.24,.3-.11,.21-.9,1.33-5.23,2.75-3.65,1.2-8.74,2.28-15.11,3.22-13.34,1.96-30.78,3.04-49.11,3.04s-35.77-1.08-49.11-3.04c-6.38-.94-11.46-2.02-15.11-3.22-4.33-1.42-5.11-2.54-5.23-2.75,.03-.06,.13-.22,.38-.44-.53-.35-1.05-.68-1.63-.89-.36,.43-.55,.88-.55,1.32,0,5.84,31.9,10.79,71.25,10.79s71.25-4.95,71.25-10.79c0-.45-.19-.9-.57-1.35Z"/></g><g id="sponge"><ellipse class="cls-24" cx="618.71" cy="695.1" rx="45.43" ry="17.76"/><path class="cls-19" d="M572.02,671.3c0-2.36,0-4.73,0-7.09,0-.56,.23-.95,.58-1.39,2.24-2.78,2.34-4.85,.28-7.64-.52-.7-.47-1.32-.35-2.01,.53-3.14,1.57-6.08,3.33-8.75,.39-.6,.62-1.3,1.55-1.24,.42,.03,.7-.3,.78-.75,.65-3.57,4.04-4.3,6.36-6.14,.53-.42,.96,.14,1.42,.33,2.23,.95,4.25,.4,5.35-1.76,.49-.95,1.07-1.15,1.95-1.24,2.84-.29,5.77-.34,8.36,.78,4.01,1.74,8.33,2.04,12.41,3.29,4.15,1.27,8.16-.01,12.23-.12,4.01-.1,7.53-2.11,11.38-2.8,1.36-.24,2.49-.34,3.77,.72,1.91,1.58,4.23,1.65,6.43,.31,.47-.29,.86-.61,1.42-.37,2.32,.99,4.9,1.56,6.45,3.84,.74,1.1,2.26,.88,3.08,1.96,1.68,2.22,3.1,4.51,4.36,7.05,1.54,3.09,2.02,6.13,2.28,9.38,.08,.98-.21,1.72-.85,2.49-1.63,1.97-1.56,4.01,.1,6.04,.34,.41,.87,.84,.61,1.34-.93,1.79-.23,3.59-.17,5.39-.24,.36-.25,.72,0,1.08,0,0,0,.01,0,.01-.2,.28-.3,.57-.06,.88,0,0,0-.09,0-.09-.75,.96-.91,2.17-1.32,3.27-1.92,5.09-5.11,9.1-9.81,11.91-6.9,4.14-14.07,4.17-21.42,1.51-9.47-3.43-18.98-3.57-28.57-.51-3.39,1.08-6.87,1.82-10.47,1.45-7.08-.74-12.8-3.83-17.09-9.65-2.17-2.94-2.94-6.41-4.35-9.64,0,0,0,.09,0,.09,.25-.31,.15-.6-.03-.89,0,0,0,0,0,0,.25-.35,.26-.72,.04-1.09Zm35.6,.69c1.8-1.7,1.89-4.38,.21-6.17-1.53-1.63-4.43-1.73-6.08-.22-1.75,1.6-1.85,4.48-.21,6.2,1.85,1.94,4.16,2.01,6.09,.2Zm15.15-22.25c1-.91,1.21-1.94,.13-2.99-1.06-1.03-2.21-1-3.29-.01-1.08,.99-.67,2.01,.1,2.93,.93,1.11,1.97,1.13,3.06,.07Z"/><path class="cls-23" d="M572.01,673.2c1.42,3.22,2.19,6.7,4.35,9.64,4.29,5.81,10,8.91,17.09,9.65,3.6,.37,7.08-.37,10.47-1.45,9.59-3.06,19.1-2.92,28.57,.51,7.35,2.66,14.51,2.63,21.42-1.51,4.7-2.82,7.89-6.82,9.81-11.91,.42-1.1,.57-2.31,1.32-3.27,.25,3.73-.07,7.44-.42,11.15-.91,1.13-1.61,2.2-1.51,3.87,.09,1.54-1.16,2.85-1.99,4.18-4.64,7.39-14.19,11.67-22.76,10.24-.88-.15-1.51-.41-2.09-1.2-1.01-1.39-2.56-1.9-4.2-1.37-1.08,.35-1.99,.24-3.02-.07-8.79-2.62-17.51-2.05-26.15,.73-3.1,1-6.24,1.52-9.49,1.27-1.29-.1-2.63-.11-3.7-1.04-.9-.79-2.06-.13-3.03-.52-6.23-2.47-10.6-6.84-13.2-13-.18-.43-.15-.86-.06-1.33,.36-1.74-.11-3.25-1.46-4.44-.15-3.37-.33-6.74,.05-10.11Z"/><path class="cls-23" d="M665.11,674.05c-.24-.36-.24-.72,0-1.08,0,.36,0,.72,0,1.08Z"/><path class="cls-23" d="M572.02,671.3c.23,.37,.22,.73-.04,1.09,.01-.36,.02-.73,.04-1.09Z"/><path class="cls-23" d="M665.05,674.94c-.24-.31-.14-.6,.06-.88-.02,.29-.04,.59-.06,.88Z"/><path class="cls-23" d="M571.98,672.4c.19,.29,.28,.58,.03,.89-.01-.3-.02-.59-.03-.89Z"/><path class="cls-22" d="M607.62,672c-1.93,1.81-4.24,1.74-6.09-.2-1.64-1.72-1.54-4.6,.21-6.2,1.66-1.51,4.55-1.4,6.08,.22,1.69,1.79,1.6,4.47-.21,6.17Z"/><path class="cls-21" d="M622.77,649.74c-1.09,1.06-2.13,1.04-3.06-.07-.77-.92-1.18-1.94-.1-2.93,1.08-.98,2.22-1.02,3.29,.01,1.08,1.04,.86,2.07-.13,2.99Z"/><path class="cls-19" d="M600.18,651.96c1.8-1.7,1.89-4.38,.21-6.17-1.53-1.63-4.43-1.73-6.08-.22-1.75,1.6-1.85,4.48-.21,6.2,1.85,1.94,4.16,2.01,6.09,.2Z"/><path class="cls-22" d="M600.18,651.96c-1.93,1.81-4.24,1.74-6.09-.2-1.64-1.72-1.54-4.6,.21-6.2,1.66-1.51,4.55-1.4,6.08,.22,1.69,1.79,1.6,4.47-.21,6.17Z"/><path class="cls-22" d="M588.48,662.86c-1.93,1.81-4.24,1.74-6.09-.2-1.64-1.72-1.54-4.6,.21-6.2,1.66-1.51,4.55-1.4,6.08,.22,1.69,1.79,1.6,4.47-.21,6.17Z"/><path class="cls-19" d="M642.56,681.59c2.35-2.21,2.47-5.71,.27-8.04-2-2.12-5.77-2.26-7.92-.29-2.28,2.08-2.41,5.83-.27,8.07,2.4,2.52,5.42,2.62,7.93,.26Z"/><path class="cls-22" d="M651.93,681.59c-2.51,2.36-5.52,2.26-7.93-.26-2.14-2.24-2.01-5.99,.27-8.07,2.16-1.96,5.92-1.83,7.92,.29,2.2,2.33,2.08,5.82-.27,8.04Z"/><path class="cls-22" d="M623.41,683.56c-1.65,1.55-3.64,1.49-5.22-.17-1.41-1.47-1.32-3.94,.18-5.31,1.42-1.29,3.9-1.2,5.21,.19,1.45,1.53,1.37,3.83-.18,5.29Z"/><path class="cls-22" d="M585.83,675.45c-1.38,1.3-3.04,1.25-4.37-.14-1.18-1.24-1.11-3.3,.15-4.45,1.19-1.08,3.27-1.01,4.37,.16,1.21,1.28,1.15,3.21-.15,4.43Z"/><path class="cls-19" d="M649.26,655.71c2.35-2.21,2.47-5.71,.27-8.04-2-2.12-5.77-2.26-7.92-.29-2.28,2.08-2.41,5.83-.27,8.07,2.4,2.52,5.42,2.62,7.93,.26Z"/><path class="cls-22" d="M640.47,662.46c-2.51,2.36-5.52,2.26-7.93-.26-2.14-2.24-2.01-5.99,.27-8.07,2.16-1.96,5.92-1.83,7.92,.29,2.2,2.33,2.08,5.82-.27,8.04Z"/><path class="cls-22" d="M650.64,648.19c-1.38,1.3-3.03,1.24-4.35-.14-1.17-1.23-1.1-3.29,.15-4.43,1.18-1.08,3.25-1,4.35,.16,1.21,1.28,1.14,3.2-.15,4.41Z"/></g><text class="cls-48" transform="translate(588.46 685.18) rotate(6.6)"><tspan x="0" y="0">C</tspan></text><text class="cls-48" transform="translate(600.75 686.54) rotate(3.37)"><tspan x="0" y="0">L</tspan></text><text class="cls-48" transform="translate(610.97 687.15) rotate(.65)"><tspan x="0" y="0">E</tspan></text><text class="cls-48" transform="translate(622.34 687.29) rotate(-2.28)"><tspan x="0" y="0">A</tspan></text><text class="cls-48" transform="translate(635.95 686.72) rotate(-5.67)"><tspan x="0" y="0">N</tspan></text><g class="cls-52"><g><ellipse class="cls-24" cx="441.91" cy="694.42" rx="71.21" ry="20.48"/><g><path class="cls-13" d="M514.84,678.81h0c-3.38-5.66-10.96-10.45-24.12-10.28-27.74,.35-52.25-43.29-65.11-32.22-27.96,31.62-46.43,1.84-51.08,4.01-5.12,2.13-7.04,29.63-6.76,39.29-.05,.52-.11,4.56-.17,5.09,50.27,5.07,118.11,9.53,143.82-1.67,1.76-.77,3.03-2.34,3.43-4.22Z"/><path class="cls-33" d="M373.09,700.21c35.22-2.73,114.11,9.39,140.03-5.43,4.17-3.12,5.27-10.02,1.72-15.97h0c-.4,1.87-1.67,3.45-3.43,4.22-25.7,11.19-93.54,6.74-143.82,1.67-1,9.08-2.29,16.12,5.49,15.52Z"/></g><rect class="cls-16" x="441.58" y="632.63" width="5.47" height="21.12" rx="2.01" ry="2.01" transform="translate(661.6 -107.74) rotate(50.77)"/><rect class="cls-16" x="449.47" y="640.49" width="5.47" height="21.12" rx="2.01" ry="2.01" transform="translate(670.58 -110.96) rotate(50.77)"/><rect class="cls-16" x="458.24" y="646.25" width="5.47" height="21.12" rx="2.01" ry="2.01" transform="translate(678.27 -115.64) rotate(50.77)"/><circle class="cls-33" cx="390.55" cy="665.94" r="9.32"/></g><text class="cls-49" transform="translate(413.25 684.17) rotate(6.3)"><tspan x="0" y="0">W</tspan></text><text class="cls-49" transform="translate(428.03 685.76) rotate(2.43)"><tspan x="0" y="0">A</tspan></text><text class="cls-49" transform="translate(441.98 686.29) rotate(-.47)"><tspan x="0" y="0">L</tspan></text><text class="cls-49" transform="translate(452.55 686.21) rotate(-3.03)"><tspan x="0" y="0">K</tspan></text></g></g><g id="door"><g id="door-2"><path class="cls-6" d="M74.36,19.24h230.06c3.71,0,6.72,3.01,6.72,6.72V459.18H67.64V25.96c0-3.71,3.01-6.72,6.72-6.72Z"/><path class="cls-5" d="M88.65,28.33h201.48c3.71,0,6.72,3.01,6.72,6.72V450.08H81.93V35.06c0-3.71,3.01-6.72,6.72-6.72Z"/><g><rect class="cls-3" x="122.03" y="322.42" width="134.71" height="105.23" rx="4.03" ry="4.03"/><path class="cls-4" d="M122.03,423.61v-97.16c0-2.23,1.81-4.03,4.03-4.03h126.65c2.23,0,4.03,1.81,4.03,4.03"/></g><g><rect class="cls-3" x="122.03" y="127.92" width="134.71" height="105.23" rx="4.03" ry="4.03"/><path class="cls-4" d="M122.03,229.11v-97.16c0-2.23,1.81-4.03,4.03-4.03h126.65c2.23,0,4.03,1.81,4.03,4.03"/></g><g><rect class="cls-3" x="122.03" y="254.29" width="134.71" height="40.29" rx="2.5" ry="2.5"/><path class="cls-4" d="M122.03,293.04v-37.2c0-.85,1.81-1.54,4.03-1.54h126.65c2.23,0,4.03,.69,4.03,1.54"/></g><g><path class="cls-25" d="M257.82,111.73c-.05-40.74-30.67-64.06-68.43-64.06s-68.38,23.33-68.43,64.06h136.87Z"/><polygon class="cls-27" points="167.55 112.45 155.24 111.54 200.04 47.66 211.23 49.79 167.55 112.45"/><path class="cls-2" d="M257.82,111.73c-.05-40.74-30.67-64.06-68.43-64.06s-68.38,23.33-68.43,64.06h136.87Z"/><path class="cls-2" d="M222.13,111.54c-.02-19.49-14.67-30.65-32.74-30.65s-32.72,11.16-32.74,30.65h65.48Z"/><rect class="cls-43" x="187.9" y="47.2" width="2.3" height="65.25"/><rect class="cls-43" x="166.22" y="51.93" width="2.65" height="68.15" transform="translate(-16.08 127.82) rotate(-40)"/><rect class="cls-43" x="209.9" y="51.93" width="2.65" height="68.15" transform="translate(317.75 287.66) rotate(-140)"/></g><circle class="cls-15" cx="99.46" cy="263.57" r="11.37"/></g></g></svg>