<?xml version="1.0" encoding="utf-8"?>
<!-- Generator: Adobe Illustrator 27.0.1, SVG Export Plug-In . SVG Version: 6.00 Build 0)  -->
<svg version="1.1" id="Layer_1" xmlns="http://www.w3.org/2000/svg" xmlns:xlink="http://www.w3.org/1999/xlink" x="0px" y="0px"
	 viewBox="0 0 728.5 421.9" style="enable-background:new 0 0 728.5 421.9;" xml:space="preserve">
<style type="text/css">
	.st0{fill:#F26722;}
</style>
<g>
	<path class="st0" d="M81.6,143.7c15.6-2.1,31.3-2.8,47-1.5c8.1,0.8,16.4,2,24,5.3c2.9,1.3,5.8,2.9,8.1,5.2
		c6.6,8.1,2.8,19.7-2.7,27.2c-5.1,6.8-12.3,11.8-19.8,15.5c-9.8,4.8-20.2,7.6-30.8,9.5c-5.3,1-10.5,1.5-15.8,2
		c-3.2,0.2-6.5-0.1-9.7-0.9C53.3,198,45.7,146,81.6,143.7L81.6,143.7z M82.9,155.7c-8.6,0.5-12.5,6.1-12.6,14.5
		c0.1,9.8,5.4,21.1,15.1,24.5c1.8,0.5,3.6,0.8,5.6,0.8c4.9-0.3,10-0.6,14.9-1.3c9.7-1.2,19.4-3.5,28.3-7.5
		c9.7-4.5,20.4-12.3,21.1-23.7c0-1.4-0.4-3.2-1.2-4.2c-1.4-1.2-3.2-2.1-4.9-2.9c-2.1-0.8-4.3-1.5-6.6-2c-9.6-2.1-19.6-2.1-29.4-1.6
		C103,152.8,92.8,154,82.9,155.7L82.9,155.7z"/>
</g>
<path class="st0" d="M147.9,164.7l-3.3-2.2c-2.6-1.8-3.6-4.9-2.2-7l0,0c1.4-2.1,4.7-2.3,7.3-0.5l3.3,2.2c2.6,1.8,3.6,4.9,2.2,7l0,0
	C153.9,166.3,150.6,166.5,147.9,164.7z"/>
<path class="st0" d="M92,171.1l-3.1,0.2c-2.5,0.1-4.6-1.8-4.8-4.3l0,0c-0.1-2.5,1.8-4.6,4.3-4.8l3.1-0.2c2.5-0.1,4.6,1.8,4.8,4.3
	l0,0C96.4,168.8,94.5,170.9,92,171.1z"/>
<path class="st0" d="M43.3,152.5c1.5-0.4,1.5-1.9,1.4-3.4c-0.4-4.8,1.2-7.8,2.7-9.7c1.7-2,5.3-3.8,11.6-4.8c1.5-0.2,2.7-0.6,2.7-2
	c0.1-1.5-1.1-2.8-2.6-2.8c-10.2-0.4-15.9,0.1-19,3.8c-2.9,3.5-2.3,9.1-0.2,16.9c0.3,1.1,1.2,1.9,2.4,2
	C42.7,152.6,43,152.6,43.3,152.5z"/>
<path class="st0" d="M57.4,146.5c-0.7,0.7-1.1,1.6-1,2.6c5.2,96.1-2.7,106,3.9,114.7c1.3,1.7,2.7,3.3,4.7,3.4c3.7,0.2,6.5,1,9.4-0.4
	c5.2-2.4-1.7-95.5-4-120c-0.1-1.2-0.8-2.3-1.9-2.9C65,141.9,61.3,142.9,57.4,146.5z"/>
<g>
	<path class="st0" d="M188.1,198.9c4.1,2.9,7.2,7,9.3,12.4c2.1,5.4,3.1,11.9,3.1,19.4c0,6.9-1.3,13.1-4,18.6
		c-2.7,5.5-6.3,9.8-10.8,12.8c-4.5,3.1-9.3,4.6-14.5,4.6c-5.1,0-10-1.8-14.5-5.4c-4.5-3.6-8.1-8.1-10.8-13.7c-2.7-5.5-4-11.1-4-16.6
		c0.1-8.4,1.6-15.4,4.5-20.9c2.9-5.5,6.7-9.5,11.3-12c4.6-2.5,9.7-3.8,15.3-3.8C179,194.5,184,196,188.1,198.9z M182,252.8
		c3.5-1.9,6.3-4.7,8.4-8.4c2.1-3.7,3.2-8.1,3.2-13.3c0-5.1-0.8-9.7-2.5-13.5c-1.7-3.9-4-6.9-6.9-8.9s-6.3-3.1-10.1-3.1
		c-4.3,0-8.3,0.9-12,2.7c-3.8,1.8-6.8,4.5-9.1,8.1c-2.3,3.6-3.5,8-3.5,13.2c0,4.1,1,8.2,3,12.3c2,4.1,4.7,7.4,8,10
		c3.3,2.6,6.7,3.9,10.3,3.9C174.8,255.6,178.5,254.7,182,252.8z"/>
	<path class="st0" d="M224,206c2.4-3.3,5.2-6.1,8.4-8.4c3.2-2.3,6.5-3.4,9.9-3.4c3.3,0,6.4,0.8,9.4,2.3c3,1.5,5.4,3.8,7.3,6.8
		c1.9,3,2.8,6.6,2.8,10.7c0,1.1-0.2,2.3-0.6,3.6c-0.4,1.3-0.9,2.4-1.7,3.4c-0.8,0.9-1.7,1.4-2.8,1.4c-0.9,0-1.5-0.3-2-0.8
		c-0.4-0.5-0.7-1.1-0.8-1.9c-0.1-0.8-0.3-1.9-0.4-3.3c-0.2-2.3-0.5-4.2-0.9-5.8c-0.4-1.5-1.5-2.8-3-3.9c-1.6-1.1-4-1.7-7.2-1.7
		c-4.4,0-8.1,2-11.2,6.1c-3.1,4.1-5.5,8.8-7.1,14.1c-1.6,5.4-2.4,9.8-2.4,13.3c0,3.4,0.9,6.4,2.7,8.9c1.8,2.5,4.2,4.4,7.1,5.7
		c2.9,1.3,5.9,2,9,2c2.8,0,5.9-0.2,9.2-0.7c3.4-0.4,6.1-1.1,8.2-2.1c1.4-1.3,2.4-2.2,3.1-2.8c0.7-0.5,1.2-0.8,1.5-0.8
		c1.2,0,2.2,0.6,3,1.7c0.8,1.1,1.1,2.5,1.1,4.2c0,2.7-1.3,4.9-4,6.6c-2.7,1.7-6,3-9.8,3.7c-3.9,0.7-7.6,1.1-11.3,1.1
		c-7.9,0-14.5-2-19.7-6c-5.2-4-7.9-11.2-7.9-21.4c0-3.6,0.4-7.3,1.3-10.9c0.9-3.6,2.1-7.7,3.6-12.2C219.9,212.6,221.6,209.4,224,206
		z"/>
	<path class="st0" d="M318.9,247.9c1.9,3.9,3.3,7.3,4.4,10c1.1,2.7,1.6,4.9,1.6,6.5c0,4.7-1.6,7.1-4.8,7.1c-1,0-2-1.1-3-3.2
		c-1-2.1-2.1-5.1-3.4-8.9c-0.7-2-2.1-5.4-4.1-10.2c-2-4.8-4-9.3-6.1-13.7c-2.1-4.4-3.6-7.3-4.6-8.9c-1.6,1.6-3.4,3.7-5.6,6.4
		c-2.1,2.7-3.9,5.1-5.2,7.1v2.1c0,1.8,0.1,4.7,0.3,8.7l0.2,3.3l0.3,7.4c0,1-0.2,2-0.6,2.8c-0.4,0.8-1,1.4-1.7,1.9
		c-0.7,0.4-1.4,0.6-2,0.6c-2.2,0-3.6-1.1-4.3-3.2c-0.7-2.1-1-5.3-1-9.4l0.5-18.9c0.3-15,0.6-26.5,0.9-34.5c0.1-1.6,0.4-3.1,1.1-4.4
		c0.7-1.3,1.7-1.9,3.1-1.9c0.9,0,1.8,0.5,2.5,1.4c0.7,0.9,1.1,2.3,1.1,4.1l-0.7,19.4v3.7c0,1.9,0,2.9,0.1,3.1c0.8-1.3,2-2.8,3.4-4.6
		c1.8-2.2,3-3.8,3.7-4.9c0.9-1.8,1.7-3.1,2.4-3.9c0.7-0.8,1.6-1.2,2.8-1.4l3.1-4.3c1.4-2,2.5-3.5,3.4-4.6c0.5-0.5,1.2-1.5,2.1-3
		c1.1-1.6,2.1-2.8,2.9-3.6c0.9-0.8,2.1-1.2,3.6-1.2c0.4,0,0.8,0.2,1.3,0.6c0.5,0.4,0.9,0.9,1.3,1.7c0.4,0.8,0.6,1.8,0.6,2.9
		c0,1.7-0.3,3.3-0.8,4.5c-0.5,1.3-1.2,2.4-1.9,3.3c-0.8,0.9-1.9,2.1-3.5,3.6c-0.2,0.2-0.8,0.8-1.8,1.8c-1,1-1.9,2-2.8,3
		c-0.9,1-1.7,2.1-2.4,3.2c1.6,2.7,3.4,6.3,5.5,10.7l0.5,1l6.2,13.4L318.9,247.9z"/>
	<path class="st0" d="M382,197.4c0.9,0.2,1.5,0.6,1.9,1.4c0.4,0.7,0.6,1.9,0.6,3.5c0,1.4-0.4,2.8-1.2,4.2c-0.8,1.4-1.7,2.1-2.8,2.1
		c-17.6-0.1-29.3-0.2-35-0.4c0,1.2,0,3.6-0.1,7.1c-0.1,3.6-0.1,6.2-0.1,7.6l21.8-0.2c1.3,0,2.4,0.5,3.2,1.4c0.8,0.9,1.2,2.4,1.2,4.4
		c0,0.5-0.1,1.3-0.4,2.2c-0.3,0.9-0.7,1.7-1.3,2.4c-0.6,0.7-1.2,1-2.1,1c-7.3,0-13,0-17.2-0.1c-0.9,0-1.9-0.1-3-0.1
		c-1,0-1.7,0.1-2,0.2L346,253c2.6,0,5.4,0.1,8.6,0.2c3.2,0.1,5.3,0.2,6.4,0.2c7.1,0.3,12.7,0.5,16.6,0.5c2.6,0,3.8,2.2,3.8,6.7
		c0,2.2-0.6,3.8-1.7,4.8c-1.1,1-2.6,1.5-4.4,1.5c-1.6,0-4-0.2-7.1-0.5c-2.2-0.2-4.3-0.4-6.4-0.6c-2-0.1-4.7-0.2-7.9-0.2
		c-1.5,0-3.2,0.1-5.2,0.3c-3.2,0.2-5.2,0.3-6,0.3c-1.5,0-2.7-0.7-3.7-2.1c-0.9-1.4-1.4-3.2-1.3-5.4l0.3-25.8c0-0.5-0.1-1.2-0.3-1.9
		c0-0.2-0.1-0.5-0.2-1c-0.1-0.5-0.1-1-0.1-1.4c0-1,0.2-2.1,0.7-3.3c-0.2-5.9-0.3-12.2-0.3-18.8c0-2,0.1-3.7,0.2-5.1
		c0.2-1.4,0.6-2.6,1.2-3.6c0.7-1,1.7-1.5,3.2-1.5c0.7,0,1.3,0.1,2.1,0.2c0.7,0.1,1.2,0.2,1.4,0.2c1.6,0.3,2.9,0.5,3.9,0.5l13.9-0.1
		c6.8-0.1,11.5-0.1,13.9-0.1C379.7,197.2,381.2,197.2,382,197.4z"/>
	<path class="st0" d="M417.9,264.1c-0.2,0.7-0.6,1.2-1.1,1.6c-0.6,0.3-1.5,0.5-2.7,0.5c-1.5,0-2.6-0.3-3.4-1s-1.3-1.6-1.5-2.8
		c-0.3-1.2-0.4-2.8-0.4-4.7l0.1-1.7c0-0.4,0.1-0.9,0.1-1.7l-1.6-46.8c-0.9,0.1-2,0.2-3.4,0.5c-4.1,0.6-7.2,0.9-9.2,0.9
		c-1.8,0-3.2-0.4-4.1-1.1c-0.9-0.7-1.3-1.9-1.3-3.5c0-3,0.7-5.1,2-6.2c1.3-1.2,3-1.8,5-1.8l24.4-0.2l9.2-0.6c1.4,0,2.6,0.6,3.5,1.7
		c0.9,1.2,1.3,2.6,1.3,4.3c0,0.8-0.2,1.8-0.7,3c-0.5,1.2-1.1,2.2-1.9,3c-0.8,0.9-1.5,1.3-2.3,1.3c-0.6,0-1.5-0.4-2.7-1.2
		c-0.6-0.4-1.1-0.7-1.5-1c-0.4-0.2-0.9-0.3-1.3-0.3c-4,0-6.9,0.1-8.8,0.4l1.7,47.3c0.5,3.2,0.9,5.4,1,6.8
		C418.2,262.3,418.1,263.4,417.9,264.1z"/>
	<path class="st0" d="M470.3,221.8c0-4.6,0.1-8.5,0.3-11.5c0.2-3.1,0.8-5.6,1.6-7.6s2-3,3.6-3.1c0.4,0,1,0.4,1.6,1.3
		c0.1,0.1,0.3,0.3,0.7,0.7c0.3,0.3,0.6,0.5,0.9,0.5c1-1,2.4-2,4.1-3c1.7-1,3.6-1.8,5.5-2.4c2-0.6,3.9-0.9,5.7-0.8
		c7.1,0,12.1,1.6,15,4.7s4.4,7.8,4.4,14c0,6.5-1.4,11.8-4.2,16.1c-2.8,4.3-6.7,7.5-11.8,9.6s-11,3.1-17.9,3.1c-0.6,0-1.3-0.1-2-0.3
		c0,0.4,0,1.1-0.1,2.1c-0.1,1.8-0.2,3.8-0.1,6c0,2.2,0.2,5.7,0.5,10.5c0,1.7-0.4,2.8-1.2,3.4c-0.8,0.6-1.7,0.8-2.6,0.8
		c-1.4,0-2.5-0.2-3.2-0.5s-1.4-1.4-1.8-3.2c-0.5-1.8-0.5-4.7-0.1-8.7l1.2-12.2c-0.2-0.4-0.5-1-0.7-1.9c-0.2-0.8-0.3-1.5-0.3-1.9
		c0-1.1,0.2-2.6,0.5-4.4c0.3-1.8,0.5-3.5,0.5-4.9V221.8z M494.8,230c3.5-1.1,6.4-2.7,8.5-4.8c2.1-2.1,3.2-4.6,3.2-7.5
		c0-3.4-1.2-6.1-3.6-8.2c-2.4-2-6-3-10.9-3c-2.1,0-4.7,0.4-7.8,1.2c-3,0.8-4.9,1.6-5.6,2.5c0,0.1-0.1,1.1-0.3,3s-0.4,7.7-0.7,17.5
		c1.2,0.3,2.2,0.6,3,0.8c0.8,0.2,1.8,0.3,2.9,0.3C487.5,231.7,491.3,231.1,494.8,230z"/>
	<path class="st0" d="M538.5,242.2c-0.4,0.2-0.7,0.7-1.1,1.3c-0.3,0.7-0.8,1.9-1.4,3.6l-3.9,11.2c-0.1,2-0.5,3.5-1.1,4.7
		c-0.6,1.2-1.3,2-2.1,2.4c-0.7,0.4-1.3,0.7-1.7,0.7c-1.4,0-2.4-0.3-3.1-1c-0.7-0.7-1-1.9-1-3.6c0-2.8,0.7-5.4,2-7.7l1.3-3.9
		c1.4-4.3,2.7-7.8,3.7-10.5c-0.1-0.4-0.2-0.9-0.2-1.6c0-1.8,0.2-3.3,0.7-4.4c0.4-1.1,1.3-2,2.5-2.8l11-26c0.1-0.2,0.2-0.3,0.3-0.6
		c0.1-0.2,0.2-0.5,0.3-0.7c1.4-2.9,2.7-5.2,3.9-6.9c1.2-1.7,2.4-2.5,3.7-2.5c2.9,0,5.5,2,7.9,6.1c2.4,4.1,4.5,8.8,6.2,14.3
		c1.7,5.5,3.7,12.4,5.8,20.7c1.5,5.9,2.7,10.2,3.5,13.1c0.9,2.8,1.7,4.7,2.5,5.7c0.2,0.2,0.3,0.4,0.5,0.6c0.2,0.2,0.4,0.4,0.6,0.6
		c0.7,0.8,1.1,1.4,1.4,1.8c0.3,0.4,0.5,1,0.6,1.6c0.1,0.6,0.2,1.5,0.2,2.7c0,3.8-1.8,5.6-5.3,5.6c-1.5,0-3-1.4-4.2-4.2
		c-1.3-2.8-2.3-5.8-3-9l-0.5-1.6c-0.9-3.2-1.6-5.4-2-6.6c-0.5-1.2-1-2.1-1.7-2.6c-0.7-0.5-1.7-0.8-3.1-0.8h-21.3
		C539.5,241.9,538.9,242,538.5,242.2z M546.5,230.3c2.8,0.1,5.6,0.2,8.3,0.2c2.9,0,5.1-0.1,6.7-0.2c-1.2-3.4-2.9-7.6-5.2-12.6
		l-4.6-10c-0.7,0.4-2.2,3.2-4.3,8.4c-2.1,5.2-3.9,9.9-5.3,14.1L546.5,230.3z"/>
	<path class="st0" d="M610.2,265.7c-0.3,0-1,0.1-2,0.2c-1,0.1-1.9,0.1-2.8,0.1c-1.2,0-3.8-0.2-7.9-0.6c-0.5,0-0.8-0.1-1.1-0.2
		c-0.3-0.2-0.5-0.5-0.7-1c-0.2-0.5-0.2-1.4-0.2-2.6c0-1.7,0.1-3.4,0.2-5.3c0.1-1.9,0.3-4,0.6-6.3l0.3-3.7c0-3.1-0.1-6.6-0.2-10.4
		c-0.1-3.8-0.2-6.3-0.2-7.5c-0.3-7.9-0.5-13.8-0.5-17.8c0-4.3,0.1-7.5,0.3-9.6c0.2-2.1,0.5-3.7,1.1-4.7c0.6-1,1.4-1.5,2.6-1.5
		c0.7,0,1.4,0.3,2.1,1c0.7,0.6,1.3,1.5,1.8,2.5c0.5,1,0.7,2.1,0.7,3.2c0,1.8-0.1,3.8-0.3,6l-0.2,2.7c0,7.4,0,13,0.1,16.7l0.7,26.2
		c1.4,0,3.5,0.1,6.2,0.3c6.6,0.3,11.7,0.5,15.3,0.5c0.3,0,1-0.1,2.2-0.2c0.4-0.1,2-0.3,4.6-0.6c1.1,0,2,0.7,2.8,2.1
		c0.8,1.3,1.2,2.9,1.2,4.6c0,0.9-0.3,1.8-0.8,2.9c-0.5,1-1.1,1.9-1.9,2.6c-0.7,0.7-1.4,1-2.1,1c-2.2,0-4.9-0.1-8-0.3
		c-0.7,0-2.1-0.1-4.1-0.2c-2.1-0.1-4-0.1-5.8-0.1C612.9,265.5,611.7,265.5,610.2,265.7z"/>
	<path class="st0" d="M652.6,263.6c-3.2-1.7-4.8-5-4.8-10c0-0.8,0.2-1.8,0.6-3c0.4-1.3,0.8-2.4,1.4-3.3s1.2-1.4,1.9-1.4
		c0.1,0,0.3,0.2,0.6,0.6c0.3,0.4,0.6,0.9,0.9,1.4c1.2,2.3,2.2,3.9,3.2,4.9c0.9,1,2,1.6,3,1.8c1.1,0.2,2.7,0.3,5,0.3
		c2.3,0,4.7-0.5,7.3-1.4c2.6-0.9,4.8-2.1,6.5-3.5c1.8-1.4,2.6-2.7,2.6-3.9c0-1.2-0.6-2.2-1.7-3.1c-1.1-0.9-2.6-1.6-4.3-2.3
		c-1.7-0.6-4.1-1.4-7.1-2.2c-4.6-1.3-8.5-2.6-11.4-3.8c-3-1.2-5.5-2.9-7.7-5.2c-2.1-2.2-3.2-5.1-3.2-8.6c0-5.3,1.2-9.9,3.7-13.9
		c2.5-4,5.7-7,9.6-9.1c3.9-2.1,7.9-3.2,12-3.2c2.6,0,4.8,0.6,6.9,1.8c2,1.2,3.6,2.8,4.7,4.8c1.1,2,1.7,4.2,1.7,6.5
		c0,2.9-0.3,5.4-0.8,7.4c-0.5,2-1.6,3-3.2,3c-1.1,0-1.8-0.5-2.1-1.4c-0.3-0.9-0.4-2.3-0.4-4c0-2.6-0.7-4.4-2.1-5.4
		c-1.4-1-3.5-1.6-6.2-1.6c-1.9,0-4.2,0.7-6.9,2c-2.7,1.4-4.9,3.1-6.8,5.3c-1.9,2.1-2.8,4.3-2.8,6.6c0,1.5,0.6,2.7,1.8,3.7
		c1.2,1,2.7,1.8,4.4,2.4c1.8,0.6,4.3,1.3,7.5,2.1c4.6,1.2,8.4,2.3,11.2,3.4c2.9,1.1,5.4,2.8,7.5,5.1c2.1,2.3,3.1,5.3,3.1,9
		c0,4.6-1.5,8.5-4.5,11.6c-3,3.1-6.4,5.4-10.4,6.9c-3.9,1.5-7.3,2.2-10,2.2C659.3,266.1,655.8,265.3,652.6,263.6z"/>
</g>
</svg>
