<?xml version="1.0" encoding="utf-8"?>
<!-- Generator: Adobe Illustrator 27.0.1, SVG Export Plug-In . SVG Version: 6.00 Build 0)  -->
<svg version="1.1" id="Layer_1" xmlns="http://www.w3.org/2000/svg" xmlns:xlink="http://www.w3.org/1999/xlink" x="0px" y="0px"
	 viewBox="0 0 1105 748" style="enable-background:new 0 0 1105 748;" xml:space="preserve">
<style type="text/css">
	.st0{fill:#FFEDDC;}
	.st1{fill:#CC9852;stroke:#A76A3D;stroke-width:2.5391;stroke-miterlimit:10;}
	.st2{fill:#CC9852;stroke:#A76A3D;stroke-width:2.5391;stroke-linecap:round;stroke-miterlimit:10;}
	.st3{fill:#CC9852;stroke:#A76A3D;stroke-width:2.518;stroke-miterlimit:10;}
	.st4{fill:#A76A3D;stroke:#A76A3D;stroke-width:2.518;stroke-miterlimit:10;}
	.st5{fill:#D66971;stroke:#302F2F;stroke-width:2.518;stroke-miterlimit:10;}
	.st6{fill:#A76A3D;}
	.st7{fill:#302F2F;}
	.st8{fill:none;stroke:#302F2F;stroke-width:2.518;stroke-linecap:round;stroke-miterlimit:10;}
	.st9{fill:none;stroke:#231F20;stroke-width:3;stroke-linecap:round;stroke-miterlimit:10;}
</style>
<g id="sunny">
</g>
<g id="Layer_5">
</g>
<rect y="0.2" class="st0" width="1105" height="747.8"/>
<g id="living_room">
	<g>
		<g>
			<path class="st1" d="M583.3,541.3l4.1,25.3c2.9,28.6,4.1,42.8,12.1,51.4c7.3,7.8,17.9,10.8,20.3,9.5c2.6,0.7,23.4,8.3,29-4.4
				c10.3-2.6,18.6-16.7,7.3-24.6c-6.2-3.2-9.5-0.4-12.2-12.7s-2.8-27.3-0.7-38.2"/>
			<path class="st2" d="M619.2,613.7c2.3,3,6.3,10.1,0,14"/>
			<path class="st2" d="M645.5,607.6c0,0,7.9,9.4,1.6,18.2"/>
		</g>
		<g>
			<path class="st1" d="M510.3,543.8l-4.1,25.3c-2.9,28.6-4.1,42.8-12.1,51.4c-7.3,7.8-17.9,10.8-20.3,9.5c-2.6,0.7-23.4,8.3-29-4.4
				c-10.3-2.6-18.6-16.7-7.3-24.6c6.2-3.2,9.5-0.4,12.2-12.7s1.8-27.3-0.3-38.2"/>
			<path class="st2" d="M474.4,616.2c-2.3,3-6.3,10.1,0,14"/>
			<path class="st2" d="M448.1,610.1c0,0-7.9,9.4-1.6,18.2"/>
		</g>
		<path class="st3" d="M458.7,589.3c-4.2-10.2-7.3-28.8-13.8-42.6c-21.3-45.2,17.1-90.2,17.1-90.2c-22.1-11.5-25.5-30.7-34.9-59.8
			c4.1-30.2,17.7-74.8,42-97.2c17.7-16.3,47.2-24.5,84.7-24.5c37.1,1.6,54.5,4.4,72,16.8c32.5,23.2,46.2,65.7,52.5,101.9
			c-8,27.6-24.6,44.9-49.1,63.8c40,51.1,12.9,94.9,1.8,126.9C587.7,614.4,503.3,609.2,458.7,589.3L458.7,589.3z"/>
		<path class="st4" d="M616.6,285c33,45.8,35.3,84.7,69.9,124.6c17,17.3,9.9-14,5.9-32.9C688.3,357.9,739,292.9,616.6,285L616.6,285
			z"/>
		<path class="st4" d="M486.6,286.5c-31.4,46.9-32.2,85.8-65.3,127c-16.4,17.9-10.4-13.6-7.1-32.7
			C417.6,361.8,364.6,298.6,486.6,286.5L486.6,286.5z"/>
		<g>
			<path class="st1" d="M571.4,571.5l4.1,25.3c2.9,28.6,4.1,42.8,12.1,51.4c7.3,7.8,17.9,10.8,20.3,9.5c2.6,0.7,23.4,8.3,29-4.4
				c10.3-2.6,18.6-16.7,7.3-24.6c-6.2-3.2-9.5-0.4-12.2-12.7s-2.8-27.3-0.7-38.2"/>
			<path class="st2" d="M607.3,643.9c2.3,3,6.3,10.1,0,14"/>
			<path class="st2" d="M633.6,637.8c0,0,7.9,9.4,1.6,18.2"/>
		</g>
		<g>
			<path class="st1" d="M519,574.3l-4.1,25.3c-2.9,28.6-4.1,42.8-12.1,51.4c-7.3,7.8-17.9,10.8-20.3,9.5c-2.6,0.7-23.4,8.3-29-4.4
				c-10.3-2.6-18.6-16.7-7.3-24.6c6.2-3.2,9.5-0.4,12.2-12.7s1.8-27.3-0.3-38.2"/>
			<path class="st2" d="M483.1,646.7c-2.3,3-6.3,10.1,0,14"/>
			<path class="st2" d="M456.7,640.6c0,0-7.9,9.4-1.6,18.2"/>
		</g>
		<path class="st5" d="M550.2,428.8c-2.9,3.6-6,6.3-9.2,8.4c6.5,2.8,12.7,2.3,18-0.2C556,434.9,553.1,432.2,550.2,428.8L550.2,428.8
			z"/>
		<path class="st6" d="M565.3,402.7c-12-5.4-19.5-4.2-28.4-0.2c-24.7-11.5-42,3.2-40,21.2c0.9,13.7,14.7,21,30.6,20
			c10-0.7,18.5-5.6,23.2-12.5c4.7,7,13.3,11.9,23.2,12.5c16,1,29.7-6.3,30.6-20C607.6,405.3,591,390.8,565.3,402.7L565.3,402.7z"/>
		<path id="nosed" class="st7" d="M565.7,406.3c-9.6-2.3-20-2-28.8-0.2c-0.5,9.6,3.3,17.7,13,15.8
			C560.2,423.8,566.9,411.8,565.7,406.3L565.7,406.3z"/>
		<path class="st8" d="M604.1,422.2c1.6,12.7-28.6,39-54,8.4c-22.1,27.3-54.2,6.7-52.7-7.1"/>
	</g>
	<path class="st9" d="M607.2,368.2c-11.8-18.2-29.3-12.7-34.7,1.8"/>
	<path class="st9" d="M498.4,368.2c11.8-18.2,29.3-12.7,34.7,1.8"/>
</g>
<g id="sponge_00000075147701612495620380000002023488194551886741_">
</g>
<g id="door_00000052071511299511589070000002868416161778254512_">
</g>
<g id="food_bowl_00000101098411415107992050000005519575423441807003_">
</g>
<g id="water_bowl">
</g>
<g id="shoe">
</g>
</svg>
