<?xml version="1.0" encoding="UTF-8"?><svg id="ridgeback-normal-2" xmlns="http://www.w3.org/2000/svg" viewBox="0 0 1105 748"><defs><style>.cls-1{fill:#fff;}.cls-2,.cls-3{fill:#a6693d;}.cls-4{fill:#2f2f2f;}.cls-5{fill:none;}.cls-5,.cls-3,.cls-6,.cls-7{stroke-width:3.58px;}.cls-5,.cls-3,.cls-6,.cls-7,.cls-8,.cls-9{stroke-miterlimit:10;}.cls-5,.cls-6{stroke:#2f2f2f;}.cls-5,.cls-9{stroke-linecap:round;}.cls-3,.cls-7,.cls-8,.cls-9{stroke:#a6693d;}.cls-6{fill:#d66971;}.cls-7,.cls-8,.cls-9{fill:#cd9852;}.cls-8,.cls-9{stroke-width:3.61px;}</style></defs><g><path class="cls-8" d="M596.27,488.93l5.82,35.94c4.11,40.66,5.8,60.82,17.17,73.07,10.33,11.13,25.38,15.31,28.88,13.56,3.72,1.05,33.26,11.84,41.25-6.28,14.67-3.67,26.4-23.73,10.44-34.96-8.84-4.51-13.46-.62-17.34-18.09-3.88-17.47-3.97-38.82-.95-54.35"/><path class="cls-9" d="M647.29,591.83c3.28,4.32,8.98,14.34,0,19.87"/><path class="cls-9" d="M684.75,583.18s11.3,13.43,2.32,25.87"/></g><g><path class="cls-8" d="M492.51,492.44l-5.82,35.94c-4.11,40.66-5.8,60.82-17.17,73.07-10.33,11.13-25.38,15.31-28.88,13.56-3.72,1.05-33.26,11.84-41.25-6.28-14.67-3.67-26.4-23.73-10.44-34.96,8.84-4.51,13.46-.62,17.34-18.09,3.88-17.47,2.55-38.82-.47-54.35"/><path class="cls-9" d="M441.48,595.35c-3.28,4.32-8.98,14.34,0,19.87"/><path class="cls-9" d="M404.03,586.7s-11.3,13.43-2.32,25.87"/></g><path class="cls-7" d="M419.19,557.14c-5.96-14.55-10.38-40.93-19.63-60.58-30.23-64.2,24.31-128.21,24.31-128.21-31.42-16.42-36.19-43.64-49.57-85.06,5.78-42.99,25.17-106.36,59.65-138.13,25.13-23.16,67.09-34.89,120.43-34.89,52.71,2.28,77.55,6.19,102.43,23.91,46.25,32.94,65.7,93.45,74.7,144.83-11.38,39.18-34.91,63.88-69.79,90.66,56.9,72.6,18.34,134.88,2.52,180.36-61.73,42.74-181.65,35.35-245.05,7.12Z"/><path class="cls-3" d="M643.59,124.51c46.98,65.1,50.2,120.36,99.35,177.2,24.22,24.64,14.02-19.91,8.36-46.75-5.66-26.85,66.31-119.27-107.71-130.44Z"/><path class="cls-3" d="M458.86,126.57c-44.58,66.71-45.79,122.04-92.84,180.56-23.31,25.47-14.74-19.4-10.06-46.43,4.68-27.03-70.6-116.87,102.89-134.13Z"/><g><path class="cls-8" d="M579.33,531.85l5.82,35.94c4.11,40.66,5.8,60.82,17.17,73.07,10.33,11.13,25.38,15.31,28.88,13.56,3.72,1.05,33.26,11.84,41.25-6.28,14.67-3.67,26.4-23.73,10.44-34.96-8.84-4.51-13.46-.62-17.34-18.09-3.88-17.47-3.97-38.82-.95-54.35"/><path class="cls-9" d="M630.35,634.75c3.28,4.32,8.98,14.34,0,19.87"/><path class="cls-9" d="M667.81,626.11s11.3,13.43,2.32,25.87"/></g><g><path class="cls-8" d="M504.82,535.85l-5.82,35.94c-4.11,40.66-5.8,60.82-17.17,73.07-10.33,11.13-25.38,15.31-28.88,13.56-3.72,1.05-33.26,11.84-41.25-6.28-14.67-3.67-26.4-23.73-10.44-34.96,8.84-4.51,13.46-.62,17.34-18.09,3.88-17.47,2.55-38.82-.47-54.35"/><path class="cls-9" d="M453.79,638.76c-3.28,4.32-8.98,14.34,0,19.87"/><path class="cls-9" d="M416.34,630.11s-11.3,13.43-2.32,25.87"/></g><path class="cls-6" d="M549.28,324.9c-4.1,5.07-8.54,8.96-13.14,11.88,9.19,3.94,17.99,3.34,25.61-.31-4.26-2.93-8.45-6.74-12.47-11.58Z"/><path class="cls-2" d="M570.63,291.78c-17.02-7.67-27.74-6.01-40.31-.23-35.1-16.36-59.73,4.5-56.88,30.13,1.33,19.48,20.85,29.88,43.55,28.4,14.21-.93,26.32-7.95,33.05-17.84,6.74,9.9,18.84,16.91,33.05,17.84,22.69,1.49,42.22-8.92,43.55-28.4,4.15-26.21-19.44-46.77-56.01-29.9Z"/><path id="nosed" class="cls-4" d="M571.27,296.97c-13.65-3.29-28.46-2.79-40.89-.26-.74,13.72,4.63,25.11,18.46,22.52,14.63,2.59,24.14-14.44,22.42-22.26Z"/><path class="cls-5" d="M625.85,319.6c2.26,18.11-40.7,55.38-76.71,12.01-31.38,38.79-77.06,9.59-74.92-10.09"/><ellipse id="right_eye" class="cls-4" cx="609.28" cy="237.74" rx="10.51" ry="25.36" transform="translate(-44.13 209.51) rotate(-18.84)"/><ellipse id="left_eye" class="cls-4" cx="492.51" cy="237.74" rx="25.36" ry="10.51" transform="translate(108.45 627.08) rotate(-71.16)"/><ellipse id="left_eye-2" class="cls-1" cx="497.16" cy="223.34" rx="10.24" ry="7.05" transform="translate(103.52 600.3) rotate(-67.95)"/><ellipse id="left_eye-3" class="cls-1" cx="604.63" cy="223.34" rx="7.05" ry="10.24" transform="translate(-39.62 243.32) rotate(-22.05)"/></svg>