<?xml version="1.0" encoding="UTF-8"?><svg id="ridgeback-sad" xmlns="http://www.w3.org/2000/svg" viewBox="0 0 1105 748"><defs><style>.cls-1,.cls-2{fill:none;}.cls-1,.cls-2,.cls-3{stroke:#2f2f2f;}.cls-1,.cls-2,.cls-3,.cls-4,.cls-5,.cls-6{stroke-miterlimit:10;}.cls-1,.cls-2,.cls-6{stroke-linecap:round;}.cls-1,.cls-3,.cls-4,.cls-6{stroke-width:3.61px;}.cls-7{fill:#fff;}.cls-8,.cls-5{fill:#a6693d;}.cls-9{fill:#c4e9fb;}.cls-10{fill:#2f2f2f;}.cls-2{stroke-width:2.16px;}.cls-3{fill:#d66971;}.cls-4,.cls-5,.cls-6{stroke:#a6693d;}.cls-4,.cls-6{fill:#cd9852;}.cls-5{stroke-width:3.63px;}</style></defs><g><path class="cls-4" d="M603.19,563.88l23.66,27.67c24.65,32.6,36.57,48.94,52.66,53.49,14.61,4.13,29.64-.11,31.72-3.43,3.72-1.03,34.57-7.18,31.97-26.81,10.62-10.76,10.22-33.99-9.26-35.29-9.9,.75-11.82,6.46-24.22-6.44-12.4-12.91-23.57-31.1-29.07-45.94"/><path class="cls-6" d="M700.28,625.25c5.05,1.98,15.13,7.58,10.33,16.97"/><path class="cls-6" d="M727.78,598.39s16.63,5.59,15.43,20.89"/></g><g><path class="cls-4" d="M484.32,570.43l-24.15,27.25c-25.22,32.15-37.44,48.28-53.6,52.54-14.69,3.87-29.63-.64-31.65-3.99-3.7-1.1-34.44-7.8-31.48-27.37-10.43-10.95-9.61-34.17,9.89-35.12,9.88,.92,11.7,6.67,24.33-6.01,12.63-12.68,22.92-31.44,28.68-46.17"/><path class="cls-6" d="M386.15,630.06c-5.08,1.89-15.26,7.31-10.63,16.79"/><path class="cls-6" d="M359.14,602.72s-16.73,5.3-15.8,20.61"/></g><path class="cls-4" d="M419.19,614.28c-5.96-14.84-10.38-41.75-19.63-61.8-30.23-65.49,24.31-130.79,24.31-130.79-31.42-16.75-36.19-44.52-49.57-86.77,5.78-43.85,25.17-108.49,59.65-140.91,25.13-23.62,67.09-35.59,120.43-35.59,52.71,2.32,77.55,6.31,102.43,24.39,46.25,33.6,65.7,95.32,74.7,147.73-11.38,39.97-34.91,65.16-69.79,92.48,56.9,74.06,18.34,137.59,2.52,183.98-61.73,43.6-181.65,36.06-245.05,7.27Z"/><path class="cls-5" d="M643.59,172.94c46.98,66.86,50.2,123.6,99.35,181.97,24.22,25.3,14.02-20.44,8.36-48.01-5.66-27.57,66.31-122.48-107.71-133.96Z"/><path class="cls-5" d="M458.86,175.09c-44.58,68.5-45.79,125.32-92.84,185.42-23.31,26.16-14.74-19.93-10.06-47.68s-70.6-120.02,102.89-137.74Z"/><g><path class="cls-4" d="M575.73,553.45l5.82,35.94c4.11,40.66,5.8,60.82,17.17,73.07,10.33,11.13,25.38,15.31,28.88,13.56,3.72,1.05,33.26,11.84,41.25-6.28,14.67-3.67,26.4-23.73,10.44-34.96-8.84-4.51-13.46-.62-17.34-18.09-3.88-17.47-3.97-38.82-.95-54.35"/><path class="cls-6" d="M626.75,656.35c3.28,4.32,8.98,14.34,0,19.87"/><path class="cls-6" d="M664.21,647.71s11.3,13.43,2.32,25.87"/></g><g><path class="cls-4" d="M507.7,557.45l-5.82,35.94c-4.11,40.66-5.8,60.82-17.17,73.07-10.33,11.13-25.38,15.31-28.88,13.56-3.72,1.05-33.26,11.84-41.25-6.28-14.67-3.67-26.4-23.73-10.44-34.96,8.84-4.51,13.46-.62,17.34-18.09,3.88-17.47,2.55-38.82-.47-54.35"/><path class="cls-6" d="M456.67,660.36c-3.28,4.32-8.98,14.34,0,19.87"/><path class="cls-6" d="M419.22,651.71s-11.3,13.43-2.32,25.87"/></g><path class="cls-8" d="M570.63,365.19c-17.02-7.82-27.74-6.13-40.31-.23-35.1-16.69-59.73,4.59-56.88,30.74,1.33,19.87,20.85,30.48,43.55,28.97,14.21-.95,26.32-8.11,33.05-18.2,6.74,10.1,18.84,17.25,33.05,18.2,22.69,1.52,42.22-9.1,43.55-28.97,4.15-26.74-19.44-47.71-56.01-30.5Z"/><path class="cls-3" d="M549.28,406.32c-4.1,5.17-8.54,9.14-13.14,12.12,9.19,4.02,17.99,3.41,25.61-.31-4.26-2.99-8.45-6.87-12.47-11.81Z"/><path id="nosed" class="cls-10" d="M571.27,370.49c-13.65-3.35-28.46-2.85-40.89-.26-.74,13.99,4.63,25.61,18.46,22.97,14.63,2.65,24.14-14.73,22.42-22.71Z"/><path class="cls-1" d="M625.85,393.57c2.26,18.47-40.7,56.49-76.71,12.25-31.38,39.57-77.06,9.78-74.92-10.29"/><ellipse id="right_eye" class="cls-10" cx="609.28" cy="310.07" rx="10.53" ry="25.82" transform="translate(-66.65 207.67) rotate(-18.36)"/><ellipse id="left_eye" class="cls-10" cx="492.51" cy="310.07" rx="25.82" ry="10.53" transform="translate(43.11 679.86) rotate(-71.64)"/><ellipse id="left_eye-2" class="cls-7" cx="497.16" cy="295.38" rx="10.42" ry="7.07" transform="translate(43.37 653.84) rotate(-69.02)"/><ellipse id="left_eye-3" class="cls-7" cx="604.63" cy="295.38" rx="7.07" ry="10.42" transform="translate(-65.67 236.04) rotate(-20.98)"/><path class="cls-2" d="M600.12,272.71c-1.99,12.27,8.28,19.24,22.78,19.24"/><path class="cls-2" d="M501.64,272.74c1.99,12.27-8.28,19.24-22.78,19.24"/><path class="cls-9" d="M480.85,331.51c-5.88,8.41-9.01,16.82-.78,16.53s5.88-7.54,.78-16.53Z"/><path class="cls-9" d="M620.36,331.51c5.88,8.41,9.01,16.82,.78,16.53s-5.88-7.54-.78-16.53Z"/></svg>