<?xml version="1.0" encoding="utf-8"?>
<!-- Generator: Adobe Illustrator 27.0.1, SVG Export Plug-In . SVG Version: 6.00 Build 0)  -->
<svg version="1.1" id="Layer_1" xmlns="http://www.w3.org/2000/svg" xmlns:xlink="http://www.w3.org/1999/xlink" x="0px" y="0px"
	 viewBox="0 0 1105 748" style="enable-background:new 0 0 1105 748;" xml:space="preserve">
<style type="text/css">
	.st0{fill:#6C88B3;}
	.st1{fill:url(#SVGID_1_);}
	.st2{fill:#CD9852;stroke:#A6693D;stroke-width:2.5089;stroke-miterlimit:10;}
	.st3{fill:#CD9852;stroke:#A6693D;stroke-width:2.5089;stroke-linecap:round;stroke-miterlimit:10;}
	.st4{fill:#A6693D;stroke:#A6693D;stroke-width:2.5173;stroke-miterlimit:10;}
	.st5{fill:#A6693D;}
	.st6{fill:#D66971;stroke:#2F2F2F;stroke-width:2.5089;stroke-miterlimit:10;}
	.st7{fill:#2F2F2F;}
	.st8{fill:none;stroke:#2F2F2F;stroke-width:2.5089;stroke-linecap:round;stroke-miterlimit:10;}
	.st9{fill:#FFFFFF;}
	.st10{fill:none;stroke:#2F2F2F;stroke-width:1.4961;stroke-linecap:round;stroke-miterlimit:10;}
	.st11{fill:#C4E9FB;}
	.st12{font-family:'Dekko';}
	.st13{font-size:40px;}
</style>
<g id="sunny">
</g>
<g id="Layer_5">
</g>
<g>
	<polygon class="st0" points="817,0 776.8,0 748.7,0 708.6,0 0,0 0,748 1105,748 1105,0 	"/>
</g>
<g>
	<linearGradient id="SVGID_1_" gradientUnits="userSpaceOnUse" x1="552.5" y1="-146.9442" x2="552.5001" y2="960.8176">
		<stop  offset="0" style="stop-color:#6C88B3"/>
		<stop  offset="1" style="stop-color:#000000"/>
	</linearGradient>
	<polygon class="st1" points="817,0 776.8,0 748.7,0 708.6,0 0,0 0,748 1105,748 1105,0 	"/>
</g>
<g>
	<g>
		<path class="st2" d="M590.1,580.7l16.4,19.2c17.1,22.6,25.4,34,36.6,37.1c10.1,2.9,20.6-0.1,22-2.4c2.6-0.7,24-5,22.2-18.6
			c7.4-7.5,7.1-23.6-6.4-24.5c-6.9,0.5-8.2,4.5-16.8-4.5s-16.4-21.6-20.2-31.9"/>
		<path class="st3" d="M657.5,623.3c3.5,1.4,10.5,5.3,7.2,11.8"/>
		<path class="st3" d="M676.6,604.6c0,0,11.5,3.9,10.7,14.5"/>
	</g>
	<g>
		<path class="st2" d="M507.6,585.2l-16.8,18.9c-17.5,22.3-26,33.5-37.2,36.5c-10.2,2.7-20.6-0.4-22-2.8c-2.6-0.8-23.9-5.4-21.9-19
			c-7.2-7.6-6.7-23.7,6.9-24.4c6.9,0.6,8.1,4.6,16.9-4.2s15.9-21.8,19.9-32.1"/>
		<path class="st3" d="M439.4,626.6c-3.5,1.3-10.6,5.1-7.4,11.7"/>
		<path class="st3" d="M420.7,607.6c0,0-11.6,3.7-11,14.3"/>
	</g>
	<path class="st2" d="M462.3,615.7c-4.1-10.3-7.2-29-13.6-42.9c-21-45.5,16.9-90.8,16.9-90.8c-21.8-11.6-25.1-30.9-34.4-60.2
		c4-30.4,17.5-75.3,41.4-97.8c17.4-16.4,46.6-24.7,83.6-24.7c36.6,1.6,53.8,4.4,71.1,16.9c32.1,23.3,45.6,66.2,51.9,102.6
		c-7.9,27.7-24.2,45.2-48.4,64.2c39.5,51.4,12.7,95.5,1.7,127.7C589.6,640.9,506.4,635.6,462.3,615.7z"/>
	<path class="st4" d="M618.1,309.3c32.6,46.4,34.8,85.8,69,126.3c16.8,17.6,9.7-14.2,5.8-33.3C689,383.1,738.9,317.2,618.1,309.3z"
		/>
	<path class="st4" d="M489.9,310.8c-30.9,47.6-31.8,87-64.4,128.7c-16.2,18.2-10.2-13.8-7-33.1C421.7,387.1,369.4,323.1,489.9,310.8
		z"/>
	<g>
		<path class="st2" d="M571,573.4l4,24.9c2.9,28.2,4,42.2,11.9,50.7c7.2,7.7,17.6,10.6,20,9.4c2.6,0.7,23.1,8.2,28.6-4.4
			c10.2-2.5,18.3-16.5,7.2-24.3c-6.1-3.1-9.3-0.4-12-12.6c-2.7-12.1-2.8-27-0.7-37.7"/>
		<path class="st3" d="M606.4,644.9c2.3,3,6.2,10,0,13.8"/>
		<path class="st3" d="M632.4,638.9c0,0,7.8,9.3,1.6,18"/>
	</g>
	<g>
		<path class="st2" d="M523.8,576.2l-4,24.9c-2.9,28.2-4,42.2-11.9,50.7c-7.2,7.7-17.6,10.6-20,9.4c-2.6,0.7-23.1,8.2-28.6-4.4
			c-10.2-2.5-18.3-16.5-7.2-24.3c6.1-3.1,9.3-0.4,12-12.6c2.7-12.1,1.8-27-0.3-37.7"/>
		<path class="st3" d="M488.4,647.6c-2.3,3-6.2,10,0,13.8"/>
		<path class="st3" d="M462.4,641.6c0,0-7.8,9.3-1.6,18"/>
	</g>
	<path class="st5" d="M567.5,442.7c-11.8-5.4-19.3-4.3-28-0.2c-24.4-11.6-41.5,3.2-39.5,21.3c0.9,13.8,14.5,21.2,30.2,20.1
		c9.9-0.7,18.3-5.6,22.9-12.6c4.7,7,13.1,12,22.9,12.6c15.8,1.1,29.3-6.3,30.2-20.1C609.2,445.3,592.9,430.8,567.5,442.7z"/>
	<g>
		<path class="st6" d="M552.7,471.3c-2.8,3.6-5.9,6.3-9.1,8.4c6.4,2.8,12.5,2.4,17.8-0.2C558.4,477.4,555.4,474.7,552.7,471.3z"/>
	</g>
	<path id="nosed_00000139277034112091339620000001598633293241040058_" class="st7" d="M567.9,446.4c-9.5-2.3-19.8-2-28.4-0.2
		c-0.5,9.7,3.2,17.8,12.8,15.9C562.5,464,569.1,451.9,567.9,446.4z"/>
	<path class="st8" d="M605.8,462.4c1.6,12.8-28.3,39.2-53.3,8.5c-21.8,27.5-53.5,6.8-52-7.1"/>
	
		<ellipse id="right_eye_00000127755216091909778190000005356020654051733685_" transform="matrix(0.9491 -0.3149 0.3149 0.9491 -97.1422 207.7216)" class="st7" cx="594.3" cy="404.5" rx="7.3" ry="17.9"/>
	
		<ellipse id="left_eye_00000181053943706177627830000005516749345647662218_" transform="matrix(0.3149 -0.9491 0.9491 0.3149 -32.3691 764.2419)" class="st7" cx="513.2" cy="404.5" rx="17.9" ry="7.3"/>
	
		<ellipse id="left_eye_00000075856405577300044400000016635612486094795961_" transform="matrix(0.358 -0.9337 0.9337 0.358 -36.5362 735.4118)" class="st9" cx="516.5" cy="394.3" rx="7.2" ry="4.9"/>
	
		<ellipse id="left_eye_00000160883626033383471700000010801216987015988651_" transform="matrix(0.9337 -0.358 0.358 0.9337 -101.9821 237.7484)" class="st9" cx="591.1" cy="394.3" rx="4.9" ry="7.2"/>
	<path class="st10" d="M587.9,378.5c-1.4,8.5,5.7,13.4,15.8,13.4"/>
	<path class="st10" d="M519.6,378.6c1.4,8.5-5.7,13.4-15.8,13.4"/>
	<path class="st11" d="M505.1,419.4c-4.1,5.8-6.3,11.7-0.5,11.5S508.7,425.6,505.1,419.4z"/>
	<path class="st11" d="M602,419.4c4.1,5.8,6.3,11.7,0.5,11.5S598.5,425.6,602,419.4z"/>
</g>
<text transform="matrix(1 0 0 1 341.1131 242.3622)" class="st9 st12 st13">Your Pocket Pal ran away :(</text>
<g id="sponge_00000075147701612495620380000002023488194551886741_">
</g>
<g id="door_00000052071511299511589070000002868416161778254512_">
</g>
<g id="food_bowl_00000101098411415107992050000005519575423441807003_">
</g>
<g id="water_bowl">
</g>
<g id="shoe">
</g>
</svg>
