<?xml version="1.0" encoding="UTF-8"?><svg id="ridgeback-normal-1" xmlns="http://www.w3.org/2000/svg" viewBox="0 0 1105 748"><defs><style>.cls-1{fill:none;}.cls-1,.cls-2{stroke:#2f2f2f;}.cls-1,.cls-2,.cls-3,.cls-4,.cls-5{stroke-miterlimit:10;stroke-width:3.61px;}.cls-1,.cls-5{stroke-linecap:round;}.cls-6{fill:#fff;}.cls-7,.cls-4{fill:#a6693d;}.cls-8{fill:#2f2f2f;}.cls-2{fill:#d66971;}.cls-3,.cls-4,.cls-5{stroke:#a6693d;}.cls-3,.cls-5{fill:#cd9852;}</style></defs><g><path class="cls-3" d="M596.27,488.93l5.82,35.94c4.11,40.66,5.8,60.82,17.17,73.07,10.33,11.13,25.38,15.31,28.88,13.56,3.72,1.05,33.26,11.84,41.25-6.28,14.67-3.67,26.4-23.73,10.44-34.96-8.84-4.51-13.46-.62-17.34-18.09-3.88-17.47-3.97-38.82-.95-54.35"/><path class="cls-5" d="M647.29,591.83c3.28,4.32,8.98,14.34,0,19.87"/><path class="cls-5" d="M684.75,583.18s11.3,13.43,2.32,25.87"/></g><g><path class="cls-3" d="M492.51,492.44l-5.82,35.94c-4.11,40.66-5.8,60.82-17.17,73.07-10.33,11.13-25.38,15.31-28.88,13.56-3.72,1.05-33.26,11.84-41.25-6.28-14.67-3.67-26.4-23.73-10.44-34.96,8.84-4.51,13.46-.62,17.34-18.09,3.88-17.47,2.55-38.82-.47-54.35"/><path class="cls-5" d="M441.48,595.35c-3.28,4.32-8.98,14.34,0,19.87"/><path class="cls-5" d="M404.03,586.7s-11.3,13.43-2.32,25.87"/></g><path class="cls-3" d="M419.19,549.48c-5.96-14.84-10.38-41.75-19.63-61.8-30.23-65.49,24.31-130.79,24.31-130.79-31.42-16.75-36.19-44.52-49.57-86.77,5.78-43.85,25.17-108.49,59.65-140.91,25.13-23.62,67.09-35.59,120.43-35.59,52.71,2.32,77.55,6.31,102.43,24.39,46.25,33.6,65.7,95.32,74.7,147.73-11.38,39.97-34.91,65.16-69.79,92.48,56.9,74.06,18.34,137.59,2.52,183.98-61.73,43.6-181.65,36.06-245.05,7.27Z"/><path class="cls-4" d="M643.59,108.14c46.98,66.41,50.2,122.77,99.35,180.76,24.22,25.14,14.02-20.31,8.36-47.69-5.66-27.39,66.31-121.66-107.71-133.06Z"/><path class="cls-4" d="M458.86,110.27c-44.58,68.04-45.79,124.48-92.84,184.18-23.31,25.98-14.74-19.79-10.06-47.36s-70.6-119.22,102.89-136.82Z"/><g><path class="cls-3" d="M579.33,531.85l5.82,35.94c4.11,40.66,5.8,60.82,17.17,73.07,10.33,11.13,25.38,15.31,28.88,13.56,3.72,1.05,33.26,11.84,41.25-6.28,14.67-3.67,26.4-23.73,10.44-34.96-8.84-4.51-13.46-.62-17.34-18.09-3.88-17.47-3.97-38.82-.95-54.35"/><path class="cls-5" d="M630.35,634.75c3.28,4.32,8.98,14.34,0,19.87"/><path class="cls-5" d="M667.81,626.11s11.3,13.43,2.32,25.87"/></g><g><path class="cls-3" d="M504.82,535.85l-5.82,35.94c-4.11,40.66-5.8,60.82-17.17,73.07-10.33,11.13-25.38,15.31-28.88,13.56-3.72,1.05-33.26,11.84-41.25-6.28-14.67-3.67-26.4-23.73-10.44-34.96,8.84-4.51,13.46-.62,17.34-18.09,3.88-17.47,2.55-38.82-.47-54.35"/><path class="cls-5" d="M453.79,638.76c-3.28,4.32-8.98,14.34,0,19.87"/><path class="cls-5" d="M416.34,630.11s-11.3,13.43-2.32,25.87"/></g><path class="cls-7" d="M570.63,278.79c-17.02-7.82-27.74-6.13-40.31-.23-35.1-16.69-59.73,4.59-56.88,30.74,1.33,19.87,20.85,30.48,43.55,28.97,14.21-.95,26.32-8.11,33.05-18.2,6.74,10.1,18.84,17.25,33.05,18.2,22.69,1.52,42.22-9.1,43.55-28.97,4.15-26.74-19.44-47.71-56.01-30.5Z"/><path class="cls-2" d="M549.28,319.92c-4.1,5.17-8.54,9.14-13.14,12.12,9.19,4.02,17.99,3.41,25.61-.31-4.26-2.99-8.45-6.87-12.47-11.81Z"/><path id="nosed" class="cls-8" d="M571.27,284.09c-13.65-3.35-28.46-2.85-40.89-.26-.74,13.99,4.63,25.61,18.46,22.97,14.63,2.65,24.14-14.73,22.42-22.71Z"/><path class="cls-1" d="M625.85,307.17c2.26,18.47-40.7,56.49-76.71,12.25-31.38,39.57-77.06,9.78-74.92-10.29"/><ellipse id="right_eye" class="cls-8" cx="609.28" cy="223.67" rx="10.53" ry="25.82" transform="translate(-39.44 203.27) rotate(-18.36)"/><ellipse id="left_eye" class="cls-8" cx="492.51" cy="223.67" rx="25.82" ry="10.53" transform="translate(125.11 620.67) rotate(-71.64)"/><ellipse id="left_eye-2" class="cls-6" cx="497.16" cy="208.98" rx="10.42" ry="7.07" transform="translate(124.04 598.37) rotate(-69.02)"/><ellipse id="left_eye-3" class="cls-6" cx="604.63" cy="208.98" rx="7.07" ry="10.42" transform="translate(-34.74 230.32) rotate(-20.98)"/></svg>