<?xml version="1.0" encoding="UTF-8"?><svg id="samoyed-normal-1" xmlns="http://www.w3.org/2000/svg" viewBox="0 0 1105 748"><defs><style>.cls-1{stroke-width:3.16px;}.cls-1,.cls-2,.cls-3,.cls-4,.cls-5,.cls-6,.cls-7,.cls-8,.cls-9{stroke-miterlimit:10;}.cls-1,.cls-2,.cls-3,.cls-4,.cls-6,.cls-7,.cls-8,.cls-9{stroke:#a7a9ac;}.cls-1,.cls-2,.cls-3,.cls-4,.cls-9{fill:#f8f8f9;}.cls-2,.cls-7{stroke-width:3.26px;}.cls-10{fill:#fad1e3;}.cls-11{fill:#fff;}.cls-12{fill:#ffefe6;}.cls-13{fill:#d66971;}.cls-14{fill:#2f2f2f;}.cls-3,.cls-6{stroke-width:3.23px;}.cls-4,.cls-8{stroke-width:3.31px;}.cls-5{fill:#231f20;stroke:#2f2f2f;}.cls-6,.cls-7,.cls-8{fill:none;stroke-linecap:round;}.cls-9{stroke-width:3px;}</style></defs><g id="samoyed"><path id="tail" class="cls-9" d="M650.28,533.74c33.77,21.55,134.07-52.15,90.22-166.05-59.47,95.07-229.6,65.35-90.22,166.05Z"/><g><path class="cls-2" d="M642.41,478.39c-76.51-31.37-84.92,11.48-84.92,11.48l-4.59,94.29,25.41,6.12c.91,3.54-.81,27.08,19.88,44.59,10.99,8.16,25.41,9.67,28.41,7.67,3.57,.39,32.23,5.57,37.22-11.19,13.05-5.22,22.55-24.38,6.36-31.85-6.7-2.03-11.23-.06-15.62-5.54,49.72-19.76,26.64-93.71-12.15-115.56Z"/><path class="cls-7" d="M623.24,625.67c3.59,3.27,10.17,11.13,2.6,17.16"/><path class="cls-7" d="M656.65,612.96s12.18,10.01,5.53,22.01"/></g><g><path class="cls-2" d="M434.22,475.74c76.51-31.37,84.92,11.48,84.92,11.48l4.59,94.29-25.41,6.12c-.91,3.54,.81,27.08-19.88,44.59-10.99,8.16-25.41,9.67-28.41,7.67-3.57,.39-32.23,5.57-37.22-11.19-13.05-5.22-22.55-24.38-6.36-31.85,6.7-2.03,11.23-.06,15.62-5.54-49.72-19.76-26.64-93.71,12.15-115.56Z"/><path class="cls-7" d="M453.38,623.02c-3.59,3.27-10.17,11.13-2.6,17.16"/><path class="cls-7" d="M419.97,610.31s-12.18,10.01-5.53,22.01"/></g><path class="cls-12" d="M429.6,218.53s0,0,0,.01c0,0,0,0,0-.01h0Z"/><path class="cls-12" d="M357.86,135.58s0-.03,0-.04c0,.01,0,.03,0,.04Z"/><path class="cls-1" d="M625.08,578.75c-40.12,6.27-40.9-1.25-67.44-.58-1.78,.04-1.07-4.88-2.87-4.83-20.98,.56-34.61-.33-54.98,.21-1.32,.04-2.64,6.29-3.95,6.32-41.51,1.05-43.57,7.87-73.53-7.53-91-71.61-91.27-278.23-2.98-353.79-30.59-5.54-36.78-92.32-21.08-121.57,43.33,8.87,70.81,36.88,82.97,66.91,2.04-.83,4.06-1.63,6.06-2.39,.75-.29,1.49-.55,2.23-.82,1.23-.46,2.46-.91,3.68-1.34,.94-.33,1.86-.64,2.8-.95,1-.34,1.99-.68,2.98-1,1.03-.33,2.06-.65,3.09-.97,.86-.26,1.72-.53,2.58-.78,1.09-.32,2.18-.63,3.27-.93,.76-.21,1.52-.42,2.28-.61,1.14-.3,2.28-.59,3.4-.86,.68-.17,1.36-.32,2.04-.48,1.17-.27,2.34-.54,3.5-.78,.62-.13,1.24-.25,1.86-.37,.75-.15,1.5-.29,2.25-.43,0-.01,0-.03,0-.04,.51-.09,1.01-.17,1.52-.25,.04,0,.08-.02,.12-.02,0,0,0,0,0,0,15.71-2.58,23.33-2.65,37.83-.3,0,0,0-.01,0-.02,20.65,3.4,21.09,1.23,42.13,14,3.57-22.4,17.29-40.51,79.67-60.26,5.09,54.51,15.92,84.75-27.3,114.26,86.81,89.48,66.5,347.45-32.14,360.22Z"/><ellipse class="cls-11" cx="528.77" cy="323.85" rx="63.22" ry="41.19"/><ellipse id="right_eye" class="cls-14" cx="584.97" cy="265.06" rx="9.01" ry="19.5" transform="translate(-57.04 248.86) rotate(-22.93)"/><ellipse id="left_eye" class="cls-14" cx="482.98" cy="265.06" rx="19.5" ry="9.01" transform="translate(50.7 606.6) rotate(-67.07)"/><path id="nosed" class="cls-14" d="M543.4,299.1c-11.92-2.93-23.34-4-34.19-1.74-.65,12.22,2.75,18.5,13.71,22.47,14,1.05,21.99-13.76,20.49-20.72Z"/><g id="mouth"><path class="cls-5" d="M562.1,334.24s-25.28,7.61-37.76-5.18c0,0-21.32,9.61-38.26,1.22,19.47,26.19,71.36,16.96,76.03,3.96Z"/><path class="cls-13" d="M511.21,334.11c.5,17.79,14.52,40.47,28.32,3.1-.05-.06-.1-.12-.15-.18-5.61-.76-11.21-2.75-15.38-7.03-2.63,2.08-12.79,4.11-12.79,4.11Z"/></g><path class="cls-10" d="M419.68,138.73c-7.63,34.44-3.83,67.16,11.59,61.23,4.94-10.33,12.78-15.73,22.25-20.39,5.63-21.96-16.07-34.8-33.85-40.84Z"/><path class="cls-10" d="M663.14,150.31c-.09,32.88-10.22,61.85-23.03,53.31-2.39-10.4-8.41-16.91-16.08-23.08-.64-21.12,21.71-28.36,39.11-30.24Z"/><ellipse id="left_eye-2" class="cls-11" cx="487.05" cy="255.65" rx="9.26" ry="6.19" transform="translate(80.57 626.26) rotate(-70.05)"/><ellipse id="left_eye-3" class="cls-11" cx="580.9" cy="255.65" rx="6.19" ry="9.26" transform="translate(-52.37 213.52) rotate(-19.95)"/><g><path class="cls-4" d="M536.48,549.6l2.03,31.82c-.07,35.73-.43,53.4,9.24,65.26,8.78,10.77,22.73,16.03,26.24,14.89,3.44,1.32,30.6,13.86,40-1,14.36-1.6,27.54-17.74,13.4-29.22-8-4.86-12.79-1.99-14.78-17.57-1.99-15.58,.02-34.12,4.42-47.27"/><path class="cls-8" d="M575.12,644.4c2.71,4.1,7.17,13.41-1.95,17.24"/><path class="cls-8" d="M611.73,640.94s9.47,12.87-.32,22.7"/></g><g><path class="cls-3" d="M526.36,546.75l-1.21,31.81c.88,35.7,1.63,53.35-7.32,65.32-8.13,10.87-21.32,16.28-24.7,15.18-3.26,1.35-28.88,14.21-38.19-.53-13.74-1.43-26.68-17.4-13.45-29.03,7.52-4.95,12.16-2.14,13.7-17.73,1.55-15.59-2.09-33.92-6.6-47.01"/><path class="cls-6" d="M491.67,641.93c-2.49,4.13-6.54,13.49,2.25,17.21"/><path class="cls-6" d="M456.66,638.9s-8.74,12.97,.83,22.67"/></g></g></svg>